<svg width="170" height="60" viewBox="0 0 170 60" fill="none" xmlns="http://www.w3.org/2000/svg">
<rect width="170" height="60" rx="10" fill="#3685FB"/>
<path d="M50.3916 36V24.64H57.3516V26.72H52.7116V29.52H56.8396V31.584H52.7116V36H50.3916ZM62.6397 36.24C62.0104 36.24 61.429 36.128 60.8957 35.904C60.3624 35.68 59.8984 35.3707 59.5037 34.976C59.109 34.5707 58.7997 34.096 58.5757 33.552C58.3624 33.008 58.2557 32.416 58.2557 31.776C58.2557 31.136 58.3677 30.5493 58.5917 30.016C58.8157 29.472 59.125 28.9973 59.5197 28.592C59.925 28.1867 60.3944 27.872 60.9277 27.648C61.4717 27.424 62.0637 27.312 62.7037 27.312C63.333 27.312 63.9144 27.424 64.4477 27.648C64.981 27.872 65.445 28.1867 65.8397 28.592C66.2344 28.9867 66.5384 29.456 66.7517 30C66.9757 30.5333 67.0877 31.12 67.0877 31.76C67.0877 32.4 66.9757 32.992 66.7517 33.536C66.5277 34.08 66.213 34.5547 65.8077 34.96C65.413 35.3653 64.9437 35.68 64.3997 35.904C63.8664 36.128 63.2797 36.24 62.6397 36.24ZM62.6717 34.224C63.077 34.224 63.4397 34.1173 63.7597 33.904C64.0797 33.6907 64.3304 33.4027 64.5117 33.04C64.7037 32.6667 64.7997 32.2453 64.7997 31.776C64.7997 31.3067 64.7037 30.8907 64.5117 30.528C64.3304 30.1547 64.0797 29.8613 63.7597 29.648C63.4397 29.4347 63.077 29.328 62.6717 29.328C62.2664 29.328 61.9037 29.4347 61.5837 29.648C61.2637 29.8613 61.0077 30.1547 60.8157 30.528C60.6344 30.8907 60.5437 31.3067 60.5437 31.776C60.5437 32.2453 60.6344 32.6667 60.8157 33.04C61.0077 33.4027 61.2637 33.6907 61.5837 33.904C61.9037 34.1173 62.2664 34.224 62.6717 34.224ZM68.5601 36V24.064H70.8001V36H68.5601ZM72.5913 36V24.064H74.8313V36H72.5913ZM80.6866 36.24C80.0572 36.24 79.4759 36.128 78.9426 35.904C78.4092 35.68 77.9452 35.3707 77.5506 34.976C77.1559 34.5707 76.8466 34.096 76.6226 33.552C76.4092 33.008 76.3026 32.416 76.3026 31.776C76.3026 31.136 76.4146 30.5493 76.6386 30.016C76.8626 29.472 77.1719 28.9973 77.5666 28.592C77.9719 28.1867 78.4412 27.872 78.9746 27.648C79.5186 27.424 80.1106 27.312 80.7506 27.312C81.3799 27.312 81.9612 27.424 82.4946 27.648C83.0279 27.872 83.4919 28.1867 83.8866 28.592C84.2812 28.9867 84.5852 29.456 84.7986 30C85.0226 30.5333 85.1346 31.12 85.1346 31.76C85.1346 32.4 85.0226 32.992 84.7986 33.536C84.5746 34.08 84.2599 34.5547 83.8546 34.96C83.4599 35.3653 82.9906 35.68 82.4466 35.904C81.9132 36.128 81.3266 36.24 80.6866 36.24ZM80.7186 34.224C81.1239 34.224 81.4866 34.1173 81.8066 33.904C82.1266 33.6907 82.3772 33.4027 82.5586 33.04C82.7506 32.6667 82.8466 32.2453 82.8466 31.776C82.8466 31.3067 82.7506 30.8907 82.5586 30.528C82.3772 30.1547 82.1266 29.8613 81.8066 29.648C81.4866 29.4347 81.1239 29.328 80.7186 29.328C80.3132 29.328 79.9506 29.4347 79.6306 29.648C79.3106 29.8613 79.0546 30.1547 78.8626 30.528C78.6812 30.8907 78.5906 31.3067 78.5906 31.776C78.5906 32.2453 78.6812 32.6667 78.8626 33.04C79.0546 33.4027 79.3106 33.6907 79.6306 33.904C79.9506 34.1173 80.3132 34.224 80.7186 34.224ZM88.4369 36L85.6369 27.552H87.9409L89.5249 33.264L91.2369 27.552H93.1729L94.8849 33.28L96.5009 27.552H98.7249L95.9249 36H93.8609L92.1649 30.288L90.4689 36H88.4369ZM108.002 36.32C107.256 36.32 106.584 36.208 105.986 35.984C105.389 35.7493 104.877 35.4187 104.45 34.992C104.024 34.5547 103.693 34.0373 103.458 33.44C103.234 32.832 103.122 32.1547 103.122 31.408V24.64H105.506V31.296C105.506 31.872 105.608 32.3733 105.81 32.8C106.013 33.2267 106.301 33.5573 106.674 33.792C107.058 34.016 107.506 34.128 108.018 34.128C108.53 34.128 108.973 34.016 109.346 33.792C109.72 33.5573 110.008 33.2267 110.21 32.8C110.424 32.3733 110.53 31.872 110.53 31.296V24.64H112.914V31.408C112.914 32.1547 112.797 32.832 112.562 33.44C112.338 34.0373 112.008 34.5547 111.57 34.992C111.144 35.4187 110.626 35.7493 110.018 35.984C109.421 36.208 108.749 36.32 108.002 36.32ZM117.725 36.24C117.128 36.24 116.584 36.144 116.093 35.952C115.613 35.76 115.202 35.488 114.861 35.136C114.53 34.784 114.301 34.368 114.173 33.888L116.189 33.456C116.296 33.7867 116.488 34.048 116.765 34.24C117.042 34.432 117.373 34.528 117.757 34.528C118.12 34.528 118.418 34.448 118.653 34.288C118.888 34.128 119.005 33.9093 119.005 33.632C119.005 33.3973 118.898 33.2053 118.685 33.056C118.482 32.896 118.141 32.7733 117.661 32.688L117.213 32.608C116.296 32.448 115.597 32.1493 115.117 31.712C114.648 31.2747 114.413 30.72 114.413 30.048C114.413 29.5147 114.552 29.0453 114.829 28.64C115.106 28.224 115.49 27.8987 115.981 27.664C116.472 27.4293 117.037 27.312 117.677 27.312C118.242 27.312 118.754 27.408 119.213 27.6C119.682 27.7813 120.072 28.0427 120.381 28.384C120.69 28.7253 120.904 29.136 121.021 29.616L119.021 30.032C118.914 29.712 118.738 29.4613 118.493 29.28C118.258 29.0987 117.981 29.008 117.661 29.008C117.33 29.008 117.058 29.088 116.845 29.248C116.632 29.408 116.525 29.6107 116.525 29.856C116.525 30.0693 116.626 30.2507 116.829 30.4C117.042 30.5387 117.4 30.6507 117.901 30.736L118.349 30.816C119.256 30.976 119.949 31.28 120.429 31.728C120.909 32.1653 121.149 32.7253 121.149 33.408C121.149 33.824 121.064 34.2027 120.893 34.544C120.733 34.8853 120.498 35.184 120.189 35.44C119.88 35.696 119.517 35.8933 119.101 36.032C118.685 36.1707 118.226 36.24 117.725 36.24Z" fill="white"/>
</svg>
