<svg width="170" height="60" viewBox="0 0 170 60" fill="none" xmlns="http://www.w3.org/2000/svg">
<rect width="170" height="60" rx="10" fill="#3685FB"/>
<path d="M48.4219 36.32C47.7713 36.32 47.1579 36.224 46.5819 36.032C46.0059 35.84 45.4833 35.568 45.0139 35.216C44.5446 34.864 44.1393 34.448 43.7979 33.968C43.4673 33.4773 43.2113 32.9333 43.0299 32.336C42.8486 31.728 42.7579 31.0827 42.7579 30.4C42.7579 29.7173 42.8486 29.072 43.0299 28.464C43.2219 27.8453 43.4886 27.2853 43.8299 26.784C44.1713 26.272 44.5766 25.8347 45.0459 25.472C45.5153 25.0987 46.0326 24.816 46.5979 24.624C47.1739 24.4213 47.7819 24.32 48.4219 24.32C49.0086 24.32 49.5633 24.4 50.0859 24.56C50.6086 24.72 51.0833 24.9493 51.5099 25.248C51.9366 25.5467 52.3046 25.904 52.6139 26.32C52.9339 26.736 53.1739 27.2053 53.3339 27.728L51.0299 28.304C50.7739 27.7387 50.4166 27.3013 49.9579 26.992C49.4993 26.672 48.9766 26.512 48.3899 26.512C47.9419 26.512 47.5206 26.608 47.1259 26.8C46.7419 26.992 46.4059 27.264 46.1179 27.616C45.8406 27.9573 45.6219 28.3627 45.4619 28.832C45.3019 29.3013 45.2219 29.8133 45.2219 30.368C45.2219 30.9227 45.2966 31.4293 45.4459 31.888C45.6059 32.3467 45.8299 32.7467 46.1179 33.088C46.4059 33.4187 46.7419 33.6747 47.1259 33.856C47.5206 34.0373 47.9526 34.128 48.4219 34.128C49.0299 34.128 49.5633 33.9787 50.0219 33.68C50.4913 33.3707 50.8646 32.9227 51.1419 32.336L53.4459 32.912C53.2219 33.6053 52.8646 34.208 52.3739 34.72C51.8939 35.232 51.3179 35.6267 50.6459 35.904C49.9739 36.1813 49.2326 36.32 48.4219 36.32ZM58.9053 36.24C58.276 36.24 57.6946 36.128 57.1613 35.904C56.628 35.68 56.164 35.3707 55.7693 34.976C55.3746 34.5707 55.0653 34.096 54.8413 33.552C54.628 33.008 54.5213 32.416 54.5213 31.776C54.5213 31.136 54.6333 30.5493 54.8573 30.016C55.0813 29.472 55.3906 28.9973 55.7853 28.592C56.1906 28.1867 56.66 27.872 57.1933 27.648C57.7373 27.424 58.3293 27.312 58.9693 27.312C59.5986 27.312 60.18 27.424 60.7133 27.648C61.2466 27.872 61.7106 28.1867 62.1053 28.592C62.5 28.9867 62.804 29.456 63.0173 30C63.2413 30.5333 63.3533 31.12 63.3533 31.76C63.3533 32.4 63.2413 32.992 63.0173 33.536C62.7933 34.08 62.4786 34.5547 62.0733 34.96C61.6786 35.3653 61.2093 35.68 60.6653 35.904C60.132 36.128 59.5453 36.24 58.9053 36.24ZM58.9373 34.224C59.3426 34.224 59.7053 34.1173 60.0253 33.904C60.3453 33.6907 60.596 33.4027 60.7773 33.04C60.9693 32.6667 61.0653 32.2453 61.0653 31.776C61.0653 31.3067 60.9693 30.8907 60.7773 30.528C60.596 30.1547 60.3453 29.8613 60.0253 29.648C59.7053 29.4347 59.3426 29.328 58.9373 29.328C58.532 29.328 58.1693 29.4347 57.8493 29.648C57.5293 29.8613 57.2733 30.1547 57.0813 30.528C56.9 30.8907 56.8093 31.3067 56.8093 31.776C56.8093 32.2453 56.9 32.6667 57.0813 33.04C57.2733 33.4027 57.5293 33.6907 57.8493 33.904C58.1693 34.1173 58.532 34.224 58.9373 34.224ZM64.8257 36V27.552H66.8897L66.9537 28.64C67.199 28.2347 67.535 27.9147 67.9617 27.68C68.399 27.4347 68.895 27.312 69.4497 27.312C70.0684 27.312 70.607 27.4613 71.0657 27.76C71.535 28.048 71.8977 28.464 72.1537 29.008C72.4097 29.552 72.5377 30.192 72.5377 30.928V36H70.2977V31.216C70.2977 30.6293 70.1644 30.1707 69.8977 29.84C69.631 29.4987 69.263 29.328 68.7937 29.328C68.4524 29.328 68.1537 29.408 67.8977 29.568C67.6417 29.7173 67.439 29.9307 67.2897 30.208C67.1404 30.4853 67.0657 30.8 67.0657 31.152V36H64.8257ZM77.7553 36.24C77.1686 36.24 76.662 36.128 76.2353 35.904C75.8193 35.6693 75.494 35.3333 75.2593 34.896C75.0353 34.4587 74.9233 33.9253 74.9233 33.296V29.36H73.4833V27.552H74.9233V24.672H77.1633V27.552H79.4673V29.36H77.1633V33.024C77.1633 33.4293 77.2486 33.744 77.4193 33.968C77.59 34.1813 77.8513 34.288 78.2033 34.288C78.3846 34.288 78.5766 34.2613 78.7793 34.208C78.9926 34.1547 79.1953 34.0853 79.3873 34L79.7873 35.68C79.51 35.8507 79.2006 35.984 78.8593 36.08C78.518 36.1867 78.15 36.24 77.7553 36.24ZM83.6524 36.24C83.2151 36.24 82.8151 36.176 82.4524 36.048C82.0898 35.92 81.7698 35.7387 81.4924 35.504C81.2258 35.2587 81.0178 34.976 80.8684 34.656C80.7191 34.336 80.6444 33.984 80.6444 33.6C80.6444 33.0667 80.7884 32.5973 81.0764 32.192C81.3644 31.7867 81.7698 31.472 82.2924 31.248C82.8151 31.0133 83.4231 30.896 84.1164 30.896C84.4684 30.896 84.7991 30.928 85.1084 30.992C85.4284 31.056 85.7378 31.1467 86.0364 31.264V30.768C86.0364 30.288 85.8978 29.8987 85.6204 29.6C85.3538 29.3013 84.9858 29.152 84.5164 29.152C84.1644 29.152 83.8444 29.2427 83.5564 29.424C83.2684 29.5947 83.0658 29.84 82.9484 30.16L80.9484 29.76C81.0658 29.2693 81.2951 28.8427 81.6364 28.48C81.9884 28.1067 82.4151 27.8187 82.9164 27.616C83.4178 27.4133 83.9618 27.312 84.5484 27.312C85.0924 27.312 85.5884 27.3973 86.0364 27.568C86.4844 27.7387 86.8684 27.984 87.1884 28.304C87.5191 28.624 87.7698 29.0027 87.9404 29.44C88.1218 29.8667 88.2124 30.3467 88.2124 30.88V36H86.2124L86.1484 35.008C85.9244 35.3707 85.5991 35.6693 85.1724 35.904C84.7458 36.128 84.2391 36.24 83.6524 36.24ZM82.8524 33.488C82.8524 33.7867 82.9751 34.032 83.2204 34.224C83.4658 34.416 83.7911 34.512 84.1964 34.512C84.5484 34.512 84.8631 34.4373 85.1404 34.288C85.4178 34.1387 85.6364 33.936 85.7964 33.68C85.9564 33.4133 86.0364 33.12 86.0364 32.8V32.72C85.8018 32.624 85.5511 32.5493 85.2844 32.496C85.0178 32.432 84.7511 32.4 84.4844 32.4C83.9831 32.4 83.5831 32.5013 83.2844 32.704C82.9964 32.896 82.8524 33.1573 82.8524 33.488ZM93.9176 36.24C93.3096 36.24 92.7442 36.1333 92.2216 35.92C91.7096 35.696 91.2616 35.3867 90.8776 34.992C90.5042 34.5973 90.2109 34.1333 89.9976 33.6C89.7842 33.056 89.6776 32.4693 89.6776 31.84C89.6776 31.2 89.7842 30.608 89.9976 30.064C90.2216 29.5093 90.5256 29.0293 90.9096 28.624C91.3042 28.208 91.7629 27.888 92.2856 27.664C92.8082 27.4293 93.3736 27.312 93.9816 27.312C94.5896 27.312 95.1496 27.4293 95.6616 27.664C96.1736 27.888 96.6056 28.208 96.9576 28.624C97.3202 29.04 97.5709 29.5253 97.7096 30.08L95.5816 30.496C95.4216 30.1333 95.1976 29.8507 94.9096 29.648C94.6216 29.4347 94.2962 29.328 93.9336 29.328C93.5496 29.328 93.2082 29.4347 92.9096 29.648C92.6216 29.8613 92.3922 30.16 92.2216 30.544C92.0509 30.9173 91.9656 31.3387 91.9656 31.808C91.9656 32.2773 92.0456 32.6933 92.2056 33.056C92.3762 33.4187 92.6109 33.7067 92.9096 33.92C93.2082 34.1227 93.5496 34.224 93.9336 34.224C94.3176 34.224 94.6642 34.1227 94.9736 33.92C95.2829 33.7173 95.5122 33.4293 95.6616 33.056L97.7896 33.472C97.6509 34.0373 97.3896 34.528 97.0056 34.944C96.6322 35.36 96.1789 35.68 95.6456 35.904C95.1122 36.128 94.5362 36.24 93.9176 36.24ZM102.708 36.24C102.122 36.24 101.615 36.128 101.188 35.904C100.772 35.6693 100.447 35.3333 100.212 34.896C99.9884 34.4587 99.8764 33.9253 99.8764 33.296V29.36H98.4364V27.552H99.8764V24.672H102.116V27.552H104.42V29.36H102.116V33.024C102.116 33.4293 102.202 33.744 102.372 33.968C102.543 34.1813 102.804 34.288 103.156 34.288C103.338 34.288 103.53 34.2613 103.732 34.208C103.946 34.1547 104.148 34.0853 104.34 34L104.74 35.68C104.463 35.8507 104.154 35.984 103.812 36.08C103.471 36.1867 103.103 36.24 102.708 36.24ZM114.268 36.32C113.521 36.32 112.849 36.208 112.252 35.984C111.654 35.7493 111.142 35.4187 110.716 34.992C110.289 34.5547 109.958 34.0373 109.724 33.44C109.5 32.832 109.388 32.1547 109.388 31.408V24.64H111.772V31.296C111.772 31.872 111.873 32.3733 112.076 32.8C112.278 33.2267 112.566 33.5573 112.94 33.792C113.324 34.016 113.772 34.128 114.284 34.128C114.796 34.128 115.238 34.016 115.612 33.792C115.985 33.5573 116.273 33.2267 116.476 32.8C116.689 32.3733 116.796 31.872 116.796 31.296V24.64H119.18V31.408C119.18 32.1547 119.062 32.832 118.828 33.44C118.604 34.0373 118.273 34.5547 117.836 34.992C117.409 35.4187 116.892 35.7493 116.284 35.984C115.686 36.208 115.014 36.32 114.268 36.32ZM123.991 36.24C123.393 36.24 122.849 36.144 122.359 35.952C121.879 35.76 121.468 35.488 121.127 35.136C120.796 34.784 120.567 34.368 120.439 33.888L122.455 33.456C122.561 33.7867 122.753 34.048 123.031 34.24C123.308 34.432 123.639 34.528 124.023 34.528C124.385 34.528 124.684 34.448 124.919 34.288C125.153 34.128 125.271 33.9093 125.271 33.632C125.271 33.3973 125.164 33.2053 124.951 33.056C124.748 32.896 124.407 32.7733 123.927 32.688L123.479 32.608C122.561 32.448 121.863 32.1493 121.383 31.712C120.913 31.2747 120.679 30.72 120.679 30.048C120.679 29.5147 120.817 29.0453 121.095 28.64C121.372 28.224 121.756 27.8987 122.247 27.664C122.737 27.4293 123.303 27.312 123.943 27.312C124.508 27.312 125.02 27.408 125.479 27.6C125.948 27.7813 126.337 28.0427 126.647 28.384C126.956 28.7253 127.169 29.136 127.287 29.616L125.287 30.032C125.18 29.712 125.004 29.4613 124.759 29.28C124.524 29.0987 124.247 29.008 123.927 29.008C123.596 29.008 123.324 29.088 123.111 29.248C122.897 29.408 122.791 29.6107 122.791 29.856C122.791 30.0693 122.892 30.2507 123.095 30.4C123.308 30.5387 123.665 30.6507 124.167 30.736L124.615 30.816C125.521 30.976 126.215 31.28 126.695 31.728C127.175 32.1653 127.415 32.7253 127.415 33.408C127.415 33.824 127.329 34.2027 127.159 34.544C126.999 34.8853 126.764 35.184 126.455 35.44C126.145 35.696 125.783 35.8933 125.367 36.032C124.951 36.1707 124.492 36.24 123.991 36.24Z" fill="white"/>
</svg>
