<svg width="437" height="19" viewBox="0 0 437 19" fill="none" xmlns="http://www.w3.org/2000/svg">
<path d="M1.248 15V3.64H2.592V8.472H8.896V3.64H10.24V15H8.896V9.704H2.592V15H1.248ZM16.2684 15.24C15.6817 15.24 15.1377 15.1333 14.6364 14.92C14.1457 14.696 13.7137 14.392 13.3404 14.008C12.9777 13.6133 12.695 13.1493 12.4924 12.616C12.2897 12.0827 12.1884 11.5013 12.1884 10.872C12.1884 10.2427 12.2897 9.66133 12.4924 9.128C12.7057 8.59467 12.9937 8.136 13.3564 7.752C13.7297 7.35733 14.167 7.05333 14.6684 6.84C15.1697 6.616 15.7137 6.504 16.3004 6.504C16.887 6.504 17.4257 6.616 17.9164 6.84C18.4177 7.05333 18.8497 7.35733 19.2124 7.752C19.5857 8.136 19.8737 8.59467 20.0764 9.128C20.279 9.66133 20.3804 10.2427 20.3804 10.872C20.3804 11.5013 20.2737 12.0827 20.0604 12.616C19.8577 13.1493 19.5697 13.6133 19.1964 14.008C18.8337 14.392 18.4017 14.696 17.9004 14.92C17.399 15.1333 16.855 15.24 16.2684 15.24ZM16.2844 14.072C16.6897 14.072 17.0577 13.992 17.3884 13.832C17.7297 13.672 18.023 13.4533 18.2684 13.176C18.5244 12.888 18.7217 12.552 18.8604 12.168C18.999 11.7733 19.0684 11.3413 19.0684 10.872C19.0684 10.4027 18.999 9.976 18.8604 9.592C18.7217 9.19733 18.5244 8.86133 18.2684 8.584C18.023 8.296 17.7297 8.072 17.3884 7.912C17.0577 7.752 16.6897 7.672 16.2844 7.672C15.879 7.672 15.5057 7.752 15.1644 7.912C14.8337 8.072 14.5404 8.296 14.2844 8.584C14.039 8.86133 13.847 9.19733 13.7084 9.592C13.5697 9.976 13.5004 10.4027 13.5004 10.872C13.5004 11.3413 13.5697 11.7733 13.7084 12.168C13.847 12.552 14.039 12.888 14.2844 13.176C14.5404 13.4533 14.8337 13.672 15.1644 13.832C15.5057 13.992 15.879 14.072 16.2844 14.072ZM22.1981 15V6.744H23.3501L23.4141 8.008C23.6488 7.54933 23.9901 7.18667 24.4381 6.92C24.8861 6.64267 25.3981 6.504 25.9741 6.504C26.5928 6.504 27.1315 6.664 27.5901 6.984C28.0488 7.304 28.3901 7.752 28.6141 8.328C28.7528 7.96533 28.9608 7.65067 29.2381 7.384C29.5155 7.10667 29.8408 6.89333 30.2141 6.744C30.5981 6.584 31.0088 6.504 31.4461 6.504C32.0648 6.504 32.5981 6.65333 33.0461 6.952C33.5048 7.24 33.8515 7.65067 34.0861 8.184C34.3315 8.71733 34.4541 9.35733 34.4541 10.104V15H33.1741V10.184C33.1741 9.37333 33.0088 8.75467 32.6781 8.328C32.3475 7.89067 31.8675 7.672 31.2381 7.672C30.8008 7.672 30.4115 7.77867 30.0701 7.992C29.7288 8.19467 29.4568 8.47733 29.2541 8.84C29.0621 9.192 28.9661 9.592 28.9661 10.04V15H27.6861V10.184C27.6861 9.37333 27.5155 8.75467 27.1741 8.328C26.8328 7.89067 26.3475 7.672 25.7181 7.672C25.2915 7.672 24.9075 7.77867 24.5661 7.992C24.2248 8.19467 23.9581 8.47733 23.7661 8.84C23.5741 9.192 23.4781 9.592 23.4781 10.04V15H22.1981ZM40.3796 15.24C39.7716 15.24 39.2116 15.1333 38.6996 14.92C38.1983 14.7067 37.761 14.408 37.3876 14.024C37.0143 13.6293 36.7263 13.1707 36.5236 12.648C36.321 12.1147 36.2196 11.528 36.2196 10.888C36.2196 10.2587 36.3156 9.68267 36.5076 9.16C36.7103 8.62667 36.9876 8.16267 37.3396 7.768C37.7023 7.37333 38.1236 7.06933 38.6036 6.856C39.0836 6.632 39.6063 6.52 40.1716 6.52C40.7156 6.52 41.217 6.62133 41.6756 6.824C42.145 7.02667 42.5503 7.30933 42.8916 7.672C43.233 8.03467 43.4943 8.46667 43.6756 8.968C43.8676 9.46933 43.9636 10.0133 43.9636 10.6V11.128H37.5476C37.5903 11.7253 37.729 12.248 37.9636 12.696C38.209 13.144 38.5343 13.4907 38.9396 13.736C39.345 13.9813 39.8143 14.104 40.3476 14.104C40.8703 14.104 41.3236 13.9973 41.7076 13.784C42.1023 13.56 42.4383 13.2347 42.7156 12.808L43.8036 13.304C43.5903 13.7093 43.313 14.056 42.9716 14.344C42.6303 14.632 42.2356 14.8507 41.7876 15C41.3503 15.16 40.881 15.24 40.3796 15.24ZM40.1716 7.608C39.7343 7.608 39.3343 7.71467 38.9716 7.928C38.6196 8.14133 38.321 8.44 38.0756 8.824C37.841 9.19733 37.6863 9.63467 37.6116 10.136H42.6196C42.577 9.63467 42.4436 9.19733 42.2196 8.824C41.9956 8.44 41.7076 8.14133 41.3556 7.928C41.0036 7.71467 40.609 7.608 40.1716 7.608Z" fill="#002248"/>
<path d="M85.368 15L89.944 3.64H91.368L95.944 15H94.504L93.24 11.768H88.024L86.76 15H85.368ZM88.504 10.536H92.744L90.632 5.128L88.504 10.536ZM97.4325 15V3.128H98.7125V8.2C99.0112 7.67733 99.4165 7.26667 99.9285 6.968C100.451 6.65867 101.038 6.504 101.689 6.504C102.233 6.504 102.739 6.616 103.209 6.84C103.678 7.05333 104.089 7.35733 104.441 7.752C104.793 8.14667 105.065 8.61067 105.257 9.144C105.459 9.66667 105.561 10.2373 105.561 10.856C105.561 11.4747 105.459 12.0507 105.257 12.584C105.065 13.1173 104.787 13.5813 104.425 13.976C104.073 14.3707 103.657 14.68 103.177 14.904C102.697 15.128 102.179 15.24 101.625 15.24C100.985 15.24 100.403 15.0853 99.8805 14.776C99.3578 14.4667 98.9472 14.04 98.6485 13.496L98.5845 15H97.4325ZM101.465 14.072C101.87 14.072 102.238 13.992 102.569 13.832C102.91 13.672 103.203 13.4533 103.449 13.176C103.705 12.888 103.902 12.552 104.041 12.168C104.179 11.7733 104.249 11.3413 104.249 10.872C104.249 10.4027 104.179 9.976 104.041 9.592C103.902 9.19733 103.705 8.86133 103.449 8.584C103.203 8.296 102.91 8.072 102.569 7.912C102.238 7.752 101.87 7.672 101.465 7.672C101.059 7.672 100.686 7.752 100.345 7.912C100.014 8.072 99.7205 8.296 99.4645 8.584C99.2192 8.86133 99.0272 9.19733 98.8885 9.592C98.7498 9.976 98.6805 10.4027 98.6805 10.872C98.6805 11.3413 98.7498 11.7733 98.8885 12.168C99.0272 12.552 99.2192 12.888 99.4645 13.176C99.7205 13.4533 100.014 13.672 100.345 13.832C100.686 13.992 101.059 14.072 101.465 14.072ZM111.128 15.24C110.541 15.24 109.997 15.1333 109.496 14.92C109.005 14.696 108.573 14.392 108.2 14.008C107.837 13.6133 107.554 13.1493 107.352 12.616C107.149 12.0827 107.048 11.5013 107.048 10.872C107.048 10.2427 107.149 9.66133 107.352 9.128C107.565 8.59467 107.853 8.136 108.216 7.752C108.589 7.35733 109.026 7.05333 109.528 6.84C110.029 6.616 110.573 6.504 111.16 6.504C111.746 6.504 112.285 6.616 112.776 6.84C113.277 7.05333 113.709 7.35733 114.072 7.752C114.445 8.136 114.733 8.59467 114.936 9.128C115.138 9.66133 115.24 10.2427 115.24 10.872C115.24 11.5013 115.133 12.0827 114.92 12.616C114.717 13.1493 114.429 13.6133 114.056 14.008C113.693 14.392 113.261 14.696 112.76 14.92C112.258 15.1333 111.714 15.24 111.128 15.24ZM111.144 14.072C111.549 14.072 111.917 13.992 112.248 13.832C112.589 13.672 112.882 13.4533 113.128 13.176C113.384 12.888 113.581 12.552 113.72 12.168C113.858 11.7733 113.928 11.3413 113.928 10.872C113.928 10.4027 113.858 9.976 113.72 9.592C113.581 9.19733 113.384 8.86133 113.128 8.584C112.882 8.296 112.589 8.072 112.248 7.912C111.917 7.752 111.549 7.672 111.144 7.672C110.738 7.672 110.365 7.752 110.024 7.912C109.693 8.072 109.4 8.296 109.144 8.584C108.898 8.86133 108.706 9.19733 108.568 9.592C108.429 9.976 108.36 10.4027 108.36 10.872C108.36 11.3413 108.429 11.7733 108.568 12.168C108.706 12.552 108.898 12.888 109.144 13.176C109.4 13.4533 109.693 13.672 110.024 13.832C110.365 13.992 110.738 14.072 111.144 14.072ZM120.418 15.24C119.714 15.24 119.106 15.0853 118.594 14.776C118.082 14.4667 117.687 14.0293 117.41 13.464C117.132 12.888 116.993 12.2053 116.993 11.416V6.744H118.274V11.432C118.274 11.976 118.359 12.4453 118.53 12.84C118.711 13.2347 118.962 13.5387 119.282 13.752C119.612 13.9653 120.002 14.072 120.45 14.072C120.898 14.072 121.282 13.9653 121.602 13.752C121.932 13.5387 122.183 13.2347 122.354 12.84C122.535 12.4453 122.626 11.976 122.626 11.432V6.744H123.906V11.416C123.906 12.184 123.762 12.856 123.474 13.432C123.186 14.008 122.78 14.456 122.258 14.776C121.735 15.0853 121.122 15.24 120.418 15.24ZM129.177 15.24C128.675 15.24 128.243 15.1387 127.881 14.936C127.518 14.7333 127.235 14.4347 127.033 14.04C126.841 13.6453 126.745 13.1653 126.745 12.6V7.832H125.225V6.744H126.745V3.976H128.025V6.744H130.617V7.832H128.025V12.536C128.025 13.0267 128.126 13.4107 128.329 13.688C128.542 13.9547 128.862 14.088 129.289 14.088C129.513 14.088 129.737 14.056 129.961 13.992C130.195 13.9173 130.403 13.8213 130.585 13.704L130.969 14.696C130.745 14.856 130.483 14.984 130.185 15.08C129.886 15.1867 129.55 15.24 129.177 15.24Z" fill="#002248"/>
<path d="M173.248 15V3.64H176.384C177.248 3.64 177.989 3.784 178.608 4.072C179.237 4.36 179.717 4.77067 180.048 5.304C180.379 5.83733 180.544 6.47733 180.544 7.224C180.544 7.94933 180.368 8.57867 180.016 9.112C179.664 9.64533 179.163 10.056 178.512 10.344C177.861 10.632 177.093 10.776 176.208 10.776C175.973 10.776 175.717 10.7653 175.44 10.744C175.173 10.7227 174.891 10.6907 174.592 10.648V15H173.248ZM174.592 4.84V9.448C174.848 9.49067 175.115 9.52267 175.392 9.544C175.68 9.56533 175.941 9.576 176.176 9.576C177.125 9.576 177.861 9.37333 178.384 8.968C178.907 8.552 179.168 7.96533 179.168 7.208C179.168 6.71733 179.056 6.296 178.832 5.944C178.608 5.592 178.288 5.32 177.872 5.128C177.456 4.936 176.955 4.84 176.368 4.84H174.592ZM184.524 15.24C183.948 15.24 183.436 15.1333 182.988 14.92C182.54 14.696 182.188 14.392 181.932 14.008C181.686 13.624 181.564 13.1813 181.564 12.68C181.564 12.136 181.702 11.6667 181.98 11.272C182.268 10.8773 182.668 10.5733 183.18 10.36C183.692 10.136 184.289 10.024 184.972 10.024C185.356 10.024 185.745 10.0667 186.14 10.152C186.534 10.2373 186.886 10.3493 187.196 10.488V9.88C187.196 9.432 187.105 9.04267 186.924 8.712C186.753 8.37067 186.513 8.10933 186.204 7.928C185.894 7.736 185.532 7.64 185.116 7.64C184.614 7.64 184.177 7.75733 183.804 7.992C183.441 8.22667 183.169 8.55733 182.988 8.984L181.868 8.6C182.017 8.17333 182.246 7.80533 182.556 7.496C182.876 7.18667 183.254 6.94667 183.692 6.776C184.14 6.60533 184.62 6.52 185.132 6.52C185.793 6.52 186.369 6.664 186.86 6.952C187.361 7.22933 187.745 7.624 188.012 8.136C188.289 8.63733 188.428 9.22933 188.428 9.912V15H187.308L187.228 13.72C186.993 14.1787 186.636 14.5467 186.156 14.824C185.686 15.1013 185.142 15.24 184.524 15.24ZM182.86 12.632C182.86 12.9413 182.94 13.2133 183.1 13.448C183.26 13.672 183.484 13.848 183.772 13.976C184.06 14.104 184.39 14.168 184.764 14.168C185.222 14.168 185.633 14.0667 185.996 13.864C186.369 13.6507 186.662 13.368 186.876 13.016C187.089 12.6533 187.196 12.2427 187.196 11.784V11.48C186.844 11.3413 186.486 11.2347 186.124 11.16C185.772 11.0747 185.436 11.032 185.116 11.032C184.412 11.032 183.857 11.176 183.452 11.464C183.057 11.752 182.86 12.1413 182.86 12.632ZM194.156 15.24C193.591 15.24 193.068 15.1333 192.588 14.92C192.108 14.7067 191.687 14.408 191.324 14.024C190.962 13.6293 190.679 13.1707 190.476 12.648C190.284 12.1253 190.188 11.5547 190.188 10.936C190.188 10.3173 190.29 9.74133 190.492 9.208C190.695 8.664 190.978 8.18933 191.34 7.784C191.703 7.37867 192.13 7.064 192.62 6.84C193.111 6.616 193.644 6.504 194.22 6.504C194.754 6.504 195.234 6.6 195.66 6.792C196.098 6.984 196.471 7.24533 196.78 7.576C197.1 7.90667 197.346 8.28533 197.516 8.712L196.348 9.112C196.114 8.664 195.81 8.312 195.436 8.056C195.063 7.8 194.642 7.672 194.172 7.672C193.788 7.672 193.436 7.75733 193.116 7.928C192.796 8.088 192.514 8.312 192.268 8.6C192.023 8.888 191.831 9.23467 191.692 9.64C191.564 10.0347 191.5 10.4613 191.5 10.92C191.5 11.3787 191.564 11.8 191.692 12.184C191.831 12.568 192.018 12.904 192.252 13.192C192.487 13.4693 192.764 13.688 193.084 13.848C193.415 13.9973 193.772 14.072 194.156 14.072C194.647 14.072 195.095 13.9493 195.5 13.704C195.916 13.448 196.231 13.096 196.444 12.648L197.612 13.048C197.442 13.496 197.18 13.8853 196.828 14.216C196.487 14.536 196.082 14.7867 195.612 14.968C195.154 15.1493 194.668 15.24 194.156 15.24ZM199.339 15V3.128H200.619V10.2L204.523 6.744H206.171L201.947 10.44L206.555 15H204.795L200.619 10.776V15H199.339ZM210.336 15.24C209.76 15.24 209.248 15.1333 208.8 14.92C208.352 14.696 208 14.392 207.744 14.008C207.499 13.624 207.376 13.1813 207.376 12.68C207.376 12.136 207.515 11.6667 207.792 11.272C208.08 10.8773 208.48 10.5733 208.992 10.36C209.504 10.136 210.102 10.024 210.784 10.024C211.168 10.024 211.558 10.0667 211.952 10.152C212.347 10.2373 212.699 10.3493 213.008 10.488V9.88C213.008 9.432 212.918 9.04267 212.736 8.712C212.566 8.37067 212.326 8.10933 212.016 7.928C211.707 7.736 211.344 7.64 210.928 7.64C210.427 7.64 209.99 7.75733 209.616 7.992C209.254 8.22667 208.982 8.55733 208.8 8.984L207.68 8.6C207.83 8.17333 208.059 7.80533 208.368 7.496C208.688 7.18667 209.067 6.94667 209.504 6.776C209.952 6.60533 210.432 6.52 210.944 6.52C211.606 6.52 212.182 6.664 212.672 6.952C213.174 7.22933 213.558 7.624 213.824 8.136C214.102 8.63733 214.24 9.22933 214.24 9.912V15H213.12L213.04 13.72C212.806 14.1787 212.448 14.5467 211.968 14.824C211.499 15.1013 210.955 15.24 210.336 15.24ZM208.672 12.632C208.672 12.9413 208.752 13.2133 208.912 13.448C209.072 13.672 209.296 13.848 209.584 13.976C209.872 14.104 210.203 14.168 210.576 14.168C211.035 14.168 211.446 14.0667 211.808 13.864C212.182 13.6507 212.475 13.368 212.688 13.016C212.902 12.6533 213.008 12.2427 213.008 11.784V11.48C212.656 11.3413 212.299 11.2347 211.936 11.16C211.584 11.0747 211.248 11.032 210.928 11.032C210.224 11.032 209.67 11.176 209.264 11.464C208.87 11.752 208.672 12.1413 208.672 12.632ZM219.825 14.92C219.281 14.92 218.774 14.8133 218.305 14.6C217.846 14.3867 217.441 14.0933 217.089 13.72C216.748 13.336 216.481 12.888 216.289 12.376C216.097 11.864 216.001 11.3147 216.001 10.728C216.001 10.1307 216.097 9.576 216.289 9.064C216.492 8.552 216.769 8.104 217.121 7.72C217.473 7.336 217.884 7.03733 218.353 6.824C218.833 6.61067 219.345 6.504 219.889 6.504C220.518 6.504 221.089 6.65333 221.601 6.952C222.124 7.25067 222.529 7.66133 222.817 8.184L222.881 6.744H224.033V14.296C224.033 14.9253 223.937 15.496 223.745 16.008C223.553 16.5307 223.281 16.9787 222.929 17.352C222.577 17.7253 222.156 18.008 221.665 18.2C221.174 18.4027 220.63 18.504 220.033 18.504C219.51 18.504 219.02 18.424 218.561 18.264C218.102 18.1147 217.692 17.8907 217.329 17.592C216.977 17.304 216.684 16.9573 216.449 16.552L217.521 16.008C217.83 16.456 218.193 16.7973 218.609 17.032C219.036 17.2773 219.51 17.4 220.033 17.4C220.588 17.4 221.068 17.272 221.473 17.016C221.889 16.7707 222.204 16.4187 222.417 15.96C222.641 15.5013 222.753 14.9627 222.753 14.344V13.288C222.454 13.8 222.049 14.2 221.537 14.488C221.025 14.776 220.454 14.92 219.825 14.92ZM220.049 13.752C220.444 13.752 220.806 13.6773 221.137 13.528C221.478 13.3787 221.772 13.1707 222.017 12.904C222.262 12.6267 222.449 12.3013 222.577 11.928C222.716 11.5547 222.785 11.1493 222.785 10.712C222.785 10.2747 222.716 9.86933 222.577 9.496C222.449 9.12267 222.262 8.80267 222.017 8.536C221.772 8.25867 221.478 8.04533 221.137 7.896C220.806 7.74667 220.444 7.672 220.049 7.672C219.654 7.672 219.286 7.74667 218.945 7.896C218.614 8.04533 218.326 8.25867 218.081 8.536C217.836 8.80267 217.644 9.12267 217.505 9.496C217.377 9.86933 217.313 10.2747 217.313 10.712C217.313 11.1493 217.377 11.5547 217.505 11.928C217.644 12.3013 217.836 12.6267 218.081 12.904C218.326 13.1707 218.614 13.3787 218.945 13.528C219.286 13.6773 219.654 13.752 220.049 13.752ZM230.02 15.24C229.412 15.24 228.852 15.1333 228.34 14.92C227.839 14.7067 227.402 14.408 227.028 14.024C226.655 13.6293 226.367 13.1707 226.164 12.648C225.962 12.1147 225.86 11.528 225.86 10.888C225.86 10.2587 225.956 9.68267 226.148 9.16C226.351 8.62667 226.628 8.16267 226.98 7.768C227.343 7.37333 227.764 7.06933 228.244 6.856C228.724 6.632 229.247 6.52 229.812 6.52C230.356 6.52 230.858 6.62133 231.316 6.824C231.786 7.02667 232.191 7.30933 232.532 7.672C232.874 8.03467 233.135 8.46667 233.316 8.968C233.508 9.46933 233.604 10.0133 233.604 10.6V11.128H227.188C227.231 11.7253 227.37 12.248 227.604 12.696C227.85 13.144 228.175 13.4907 228.58 13.736C228.986 13.9813 229.455 14.104 229.988 14.104C230.511 14.104 230.964 13.9973 231.348 13.784C231.743 13.56 232.079 13.2347 232.356 12.808L233.444 13.304C233.231 13.7093 232.954 14.056 232.612 14.344C232.271 14.632 231.876 14.8507 231.428 15C230.991 15.16 230.522 15.24 230.02 15.24ZM229.812 7.608C229.375 7.608 228.975 7.71467 228.612 7.928C228.26 8.14133 227.962 8.44 227.716 8.824C227.482 9.19733 227.327 9.63467 227.252 10.136H232.26C232.218 9.63467 232.084 9.19733 231.86 8.824C231.636 8.44 231.348 8.14133 230.996 7.928C230.644 7.71467 230.25 7.608 229.812 7.608ZM238.072 15.24C237.592 15.24 237.138 15.16 236.712 15C236.296 14.84 235.933 14.6107 235.624 14.312C235.314 14.0133 235.08 13.6613 234.92 13.256L236.072 12.84C236.285 13.2453 236.562 13.56 236.904 13.784C237.245 14.008 237.634 14.12 238.072 14.12C238.424 14.12 238.733 14.0613 239 13.944C239.266 13.8267 239.474 13.6667 239.624 13.464C239.773 13.2507 239.848 13.016 239.848 12.76C239.848 12.0667 239.346 11.6187 238.344 11.416L237.72 11.288C236.845 11.1173 236.2 10.84 235.784 10.456C235.368 10.0613 235.16 9.56533 235.16 8.968C235.16 8.488 235.282 8.06133 235.528 7.688C235.773 7.31467 236.114 7.02667 236.552 6.824C237 6.61067 237.506 6.504 238.072 6.504C238.541 6.504 238.973 6.584 239.368 6.744C239.762 6.89333 240.098 7.11733 240.376 7.416C240.664 7.71467 240.882 8.06667 241.032 8.472L239.88 8.856C239.709 8.46133 239.464 8.15733 239.144 7.944C238.834 7.72 238.472 7.608 238.056 7.608C237.736 7.608 237.453 7.66133 237.208 7.768C236.973 7.87467 236.786 8.01867 236.648 8.2C236.509 8.38133 236.44 8.59467 236.44 8.84C236.44 9.18133 236.568 9.45333 236.824 9.656C237.09 9.85867 237.517 10.0187 238.104 10.136L238.728 10.264C239.517 10.424 240.12 10.7067 240.536 11.112C240.952 11.5067 241.16 12.0133 241.16 12.632C241.16 13.016 241.08 13.368 240.92 13.688C240.77 13.9973 240.557 14.2693 240.28 14.504C240.013 14.7387 239.688 14.92 239.304 15.048C238.93 15.176 238.52 15.24 238.072 15.24Z" fill="#002248"/>
<path d="M288.224 15.32C287.445 15.32 286.725 15.176 286.064 14.888C285.413 14.5893 284.843 14.1787 284.352 13.656C283.872 13.1227 283.499 12.4987 283.232 11.784C282.965 11.0587 282.832 10.2693 282.832 9.416C282.832 8.72267 282.917 8.072 283.088 7.464C283.269 6.84533 283.52 6.28533 283.84 5.784C284.171 5.272 284.555 4.83467 284.992 4.472C285.44 4.09867 285.936 3.816 286.48 3.624C287.024 3.42133 287.6 3.32 288.208 3.32C288.891 3.32 289.525 3.43733 290.112 3.672C290.709 3.90667 291.232 4.23733 291.68 4.664C292.139 5.09067 292.491 5.60267 292.736 6.2L291.504 6.664C291.173 5.992 290.72 5.47467 290.144 5.112C289.579 4.73867 288.939 4.552 288.224 4.552C287.648 4.552 287.115 4.67467 286.624 4.92C286.144 5.16533 285.723 5.50667 285.36 5.944C284.997 6.38133 284.715 6.89333 284.512 7.48C284.309 8.06667 284.208 8.70667 284.208 9.4C284.208 10.0827 284.304 10.712 284.496 11.288C284.699 11.8533 284.981 12.3493 285.344 12.776C285.707 13.192 286.133 13.5173 286.624 13.752C287.125 13.976 287.669 14.088 288.256 14.088C288.992 14.088 289.643 13.9067 290.208 13.544C290.784 13.1813 291.253 12.6587 291.616 11.976L292.848 12.44C292.592 13.0373 292.235 13.5547 291.776 13.992C291.317 14.4187 290.784 14.7493 290.176 14.984C289.568 15.208 288.917 15.32 288.224 15.32ZM298.331 15.24C297.744 15.24 297.2 15.1333 296.699 14.92C296.208 14.696 295.776 14.392 295.403 14.008C295.04 13.6133 294.758 13.1493 294.555 12.616C294.352 12.0827 294.251 11.5013 294.251 10.872C294.251 10.2427 294.352 9.66133 294.555 9.128C294.768 8.59467 295.056 8.136 295.419 7.752C295.792 7.35733 296.23 7.05333 296.731 6.84C297.232 6.616 297.776 6.504 298.363 6.504C298.95 6.504 299.488 6.616 299.979 6.84C300.48 7.05333 300.912 7.35733 301.275 7.752C301.648 8.136 301.936 8.59467 302.139 9.128C302.342 9.66133 302.443 10.2427 302.443 10.872C302.443 11.5013 302.336 12.0827 302.123 12.616C301.92 13.1493 301.632 13.6133 301.259 14.008C300.896 14.392 300.464 14.696 299.963 14.92C299.462 15.1333 298.918 15.24 298.331 15.24ZM298.347 14.072C298.752 14.072 299.12 13.992 299.451 13.832C299.792 13.672 300.086 13.4533 300.331 13.176C300.587 12.888 300.784 12.552 300.923 12.168C301.062 11.7733 301.131 11.3413 301.131 10.872C301.131 10.4027 301.062 9.976 300.923 9.592C300.784 9.19733 300.587 8.86133 300.331 8.584C300.086 8.296 299.792 8.072 299.451 7.912C299.12 7.752 298.752 7.672 298.347 7.672C297.942 7.672 297.568 7.752 297.227 7.912C296.896 8.072 296.603 8.296 296.347 8.584C296.102 8.86133 295.91 9.19733 295.771 9.592C295.632 9.976 295.563 10.4027 295.563 10.872C295.563 11.3413 295.632 11.7733 295.771 12.168C295.91 12.552 296.102 12.888 296.347 13.176C296.603 13.4533 296.896 13.672 297.227 13.832C297.568 13.992 297.942 14.072 298.347 14.072ZM304.261 15V6.744H305.413L305.477 8.056C305.722 7.58667 306.074 7.21333 306.533 6.936C307.002 6.648 307.541 6.504 308.149 6.504C308.778 6.504 309.327 6.65333 309.797 6.952C310.266 7.25067 310.623 7.67733 310.869 8.232C311.125 8.776 311.253 9.42133 311.253 10.168V15H309.973V10.248C309.973 9.42667 309.791 8.792 309.429 8.344C309.077 7.896 308.57 7.672 307.909 7.672C307.45 7.672 307.039 7.77867 306.677 7.992C306.325 8.19467 306.047 8.48267 305.845 8.856C305.642 9.21867 305.541 9.63467 305.541 10.104V15H304.261ZM316.286 15.24C315.785 15.24 315.353 15.1387 314.99 14.936C314.627 14.7333 314.345 14.4347 314.142 14.04C313.95 13.6453 313.854 13.1653 313.854 12.6V7.832H312.334V6.744H313.854V3.976H315.134V6.744H317.726V7.832H315.134V12.536C315.134 13.0267 315.235 13.4107 315.438 13.688C315.651 13.9547 315.971 14.088 316.398 14.088C316.622 14.088 316.846 14.056 317.07 13.992C317.305 13.9173 317.513 13.8213 317.694 13.704L318.078 14.696C317.854 14.856 317.593 14.984 317.294 15.08C316.995 15.1867 316.659 15.24 316.286 15.24ZM322.149 15.24C321.573 15.24 321.061 15.1333 320.613 14.92C320.165 14.696 319.813 14.392 319.557 14.008C319.311 13.624 319.189 13.1813 319.189 12.68C319.189 12.136 319.327 11.6667 319.605 11.272C319.893 10.8773 320.293 10.5733 320.805 10.36C321.317 10.136 321.914 10.024 322.597 10.024C322.981 10.024 323.37 10.0667 323.765 10.152C324.159 10.2373 324.511 10.3493 324.821 10.488V9.88C324.821 9.432 324.73 9.04267 324.549 8.712C324.378 8.37067 324.138 8.10933 323.829 7.928C323.519 7.736 323.157 7.64 322.741 7.64C322.239 7.64 321.802 7.75733 321.429 7.992C321.066 8.22667 320.794 8.55733 320.613 8.984L319.493 8.6C319.642 8.17333 319.871 7.80533 320.181 7.496C320.501 7.18667 320.879 6.94667 321.317 6.776C321.765 6.60533 322.245 6.52 322.757 6.52C323.418 6.52 323.994 6.664 324.485 6.952C324.986 7.22933 325.37 7.624 325.637 8.136C325.914 8.63733 326.053 9.22933 326.053 9.912V15H324.933L324.853 13.72C324.618 14.1787 324.261 14.5467 323.781 14.824C323.311 15.1013 322.767 15.24 322.149 15.24ZM320.485 12.632C320.485 12.9413 320.565 13.2133 320.725 13.448C320.885 13.672 321.109 13.848 321.397 13.976C321.685 14.104 322.015 14.168 322.389 14.168C322.847 14.168 323.258 14.0667 323.621 13.864C323.994 13.6507 324.287 13.368 324.501 13.016C324.714 12.6533 324.821 12.2427 324.821 11.784V11.48C324.469 11.3413 324.111 11.2347 323.749 11.16C323.397 11.0747 323.061 11.032 322.741 11.032C322.037 11.032 321.482 11.176 321.077 11.464C320.682 11.752 320.485 12.1413 320.485 12.632ZM331.781 15.24C331.216 15.24 330.693 15.1333 330.213 14.92C329.733 14.7067 329.312 14.408 328.949 14.024C328.587 13.6293 328.304 13.1707 328.101 12.648C327.909 12.1253 327.813 11.5547 327.813 10.936C327.813 10.3173 327.915 9.74133 328.117 9.208C328.32 8.664 328.603 8.18933 328.965 7.784C329.328 7.37867 329.755 7.064 330.245 6.84C330.736 6.616 331.269 6.504 331.845 6.504C332.379 6.504 332.859 6.6 333.285 6.792C333.723 6.984 334.096 7.24533 334.405 7.576C334.725 7.90667 334.971 8.28533 335.141 8.712L333.973 9.112C333.739 8.664 333.435 8.312 333.061 8.056C332.688 7.8 332.267 7.672 331.797 7.672C331.413 7.672 331.061 7.75733 330.741 7.928C330.421 8.088 330.139 8.312 329.893 8.6C329.648 8.888 329.456 9.23467 329.317 9.64C329.189 10.0347 329.125 10.4613 329.125 10.92C329.125 11.3787 329.189 11.8 329.317 12.184C329.456 12.568 329.643 12.904 329.877 13.192C330.112 13.4693 330.389 13.688 330.709 13.848C331.04 13.9973 331.397 14.072 331.781 14.072C332.272 14.072 332.72 13.9493 333.125 13.704C333.541 13.448 333.856 13.096 334.069 12.648L335.237 13.048C335.067 13.496 334.805 13.8853 334.453 14.216C334.112 14.536 333.707 14.7867 333.237 14.968C332.779 15.1493 332.293 15.24 331.781 15.24ZM340.021 15.24C339.519 15.24 339.087 15.1387 338.725 14.936C338.362 14.7333 338.079 14.4347 337.877 14.04C337.685 13.6453 337.589 13.1653 337.589 12.6V7.832H336.069V6.744H337.589V3.976H338.869V6.744H341.461V7.832H338.869V12.536C338.869 13.0267 338.97 13.4107 339.173 13.688C339.386 13.9547 339.706 14.088 340.133 14.088C340.357 14.088 340.581 14.056 340.805 13.992C341.039 13.9173 341.247 13.8213 341.429 13.704L341.813 14.696C341.589 14.856 341.327 14.984 341.029 15.08C340.73 15.1867 340.394 15.24 340.021 15.24ZM351.412 15.32C350.729 15.32 350.11 15.2133 349.556 15C349.012 14.776 348.542 14.456 348.148 14.04C347.753 13.624 347.449 13.128 347.236 12.552C347.033 11.9653 346.932 11.3147 346.932 10.6V3.64H348.276V10.552C348.276 11.2773 348.404 11.9067 348.66 12.44C348.916 12.9627 349.278 13.368 349.748 13.656C350.217 13.944 350.777 14.088 351.428 14.088C352.078 14.088 352.638 13.944 353.108 13.656C353.577 13.368 353.94 12.9627 354.196 12.44C354.452 11.9067 354.58 11.2773 354.58 10.552V3.64H355.924V10.6C355.924 11.3147 355.817 11.96 355.604 12.536C355.39 13.112 355.086 13.608 354.692 14.024C354.297 14.44 353.822 14.76 353.268 14.984C352.713 15.208 352.094 15.32 351.412 15.32ZM360.744 15.24C360.264 15.24 359.81 15.16 359.384 15C358.968 14.84 358.605 14.6107 358.296 14.312C357.986 14.0133 357.752 13.6613 357.592 13.256L358.744 12.84C358.957 13.2453 359.234 13.56 359.576 13.784C359.917 14.008 360.306 14.12 360.744 14.12C361.096 14.12 361.405 14.0613 361.672 13.944C361.938 13.8267 362.146 13.6667 362.296 13.464C362.445 13.2507 362.52 13.016 362.52 12.76C362.52 12.0667 362.018 11.6187 361.016 11.416L360.392 11.288C359.517 11.1173 358.872 10.84 358.456 10.456C358.04 10.0613 357.832 9.56533 357.832 8.968C357.832 8.488 357.954 8.06133 358.2 7.688C358.445 7.31467 358.786 7.02667 359.224 6.824C359.672 6.61067 360.178 6.504 360.744 6.504C361.213 6.504 361.645 6.584 362.04 6.744C362.434 6.89333 362.77 7.11733 363.048 7.416C363.336 7.71467 363.554 8.06667 363.704 8.472L362.552 8.856C362.381 8.46133 362.136 8.15733 361.816 7.944C361.506 7.72 361.144 7.608 360.728 7.608C360.408 7.608 360.125 7.66133 359.88 7.768C359.645 7.87467 359.458 8.01867 359.32 8.2C359.181 8.38133 359.112 8.59467 359.112 8.84C359.112 9.18133 359.24 9.45333 359.496 9.656C359.762 9.85867 360.189 10.0187 360.776 10.136L361.4 10.264C362.189 10.424 362.792 10.7067 363.208 11.112C363.624 11.5067 363.832 12.0133 363.832 12.632C363.832 13.016 363.752 13.368 363.592 13.688C363.442 13.9973 363.229 14.2693 362.952 14.504C362.685 14.7387 362.36 14.92 361.976 15.048C361.602 15.176 361.192 15.24 360.744 15.24Z" fill="#002248"/>
<path d="M406.248 15V3.64H412.648V4.872H407.592V8.776H412.184V10.008H407.592V15H406.248ZM412.946 15L417.522 3.64H418.946L423.522 15H422.082L420.818 11.768H415.602L414.338 15H412.946ZM416.082 10.536H420.322L418.21 5.128L416.082 10.536ZM424.207 9.336C424.207 8.64267 424.298 7.992 424.479 7.384C424.66 6.776 424.916 6.22133 425.247 5.72C425.578 5.21867 425.972 4.792 426.431 4.44C426.89 4.07733 427.402 3.8 427.967 3.608C428.532 3.416 429.14 3.32 429.791 3.32C430.591 3.32 431.327 3.46933 431.999 3.768C432.671 4.056 433.252 4.472 433.743 5.016C434.244 5.54933 434.628 6.184 434.895 6.92C435.172 7.64533 435.311 8.44533 435.311 9.32C435.311 10.2373 435.151 11.0853 434.831 11.864C434.522 12.632 434.09 13.288 433.535 13.832L434.975 15.608L434.031 16.376L432.575 14.568C432.159 14.8133 431.711 15 431.231 15.128C430.762 15.2667 430.26 15.336 429.727 15.336C428.927 15.336 428.191 15.192 427.519 14.904C426.847 14.6053 426.26 14.1893 425.759 13.656C425.268 13.112 424.884 12.4773 424.607 11.752C424.34 11.016 424.207 10.2107 424.207 9.336ZM425.583 9.32C425.583 10.0133 425.684 10.6533 425.887 11.24C426.1 11.8267 426.394 12.3333 426.767 12.76C427.14 13.1867 427.578 13.5173 428.079 13.752C428.591 13.9867 429.151 14.104 429.759 14.104C430.132 14.104 430.484 14.0613 430.815 13.976C431.156 13.88 431.476 13.7467 431.775 13.576L429.663 10.984L430.607 10.216L432.703 12.808C433.087 12.3813 433.386 11.8693 433.599 11.272C433.823 10.6747 433.935 10.024 433.935 9.32C433.935 8.62667 433.828 7.992 433.615 7.416C433.412 6.82933 433.124 6.32267 432.751 5.896C432.378 5.46933 431.935 5.13867 431.423 4.904C430.922 4.66933 430.367 4.552 429.759 4.552C429.151 4.552 428.591 4.66933 428.079 4.904C427.578 5.13867 427.14 5.46933 426.767 5.896C426.394 6.32267 426.1 6.82933 425.887 7.416C425.684 7.992 425.583 8.62667 425.583 9.32Z" fill="#002248"/>
</svg>
