<svg width="170" height="61" viewBox="0 0 170 61" fill="none" xmlns="http://www.w3.org/2000/svg">
<rect y="0.418945" width="170" height="60" rx="10" fill="#3685FB"/>
<path d="M51.6378 36.6589C50.9551 36.6589 50.3258 36.5416 49.7498 36.3069C49.1844 36.0616 48.6991 35.7202 48.2938 35.2829C47.8991 34.8349 47.6271 34.3016 47.4778 33.6829L49.7018 33.2029C49.8404 33.6402 50.0804 33.9816 50.4218 34.2269C50.7738 34.4722 51.1898 34.5949 51.6698 34.5949C52.0111 34.5949 52.3098 34.5362 52.5658 34.4189C52.8324 34.2909 53.0351 34.1202 53.1738 33.9069C53.3231 33.6936 53.3978 33.4482 53.3978 33.1709C53.3978 32.8189 53.2644 32.5362 52.9978 32.3229C52.7311 32.0989 52.2991 31.9176 51.7018 31.7789L51.1898 31.6669C50.0164 31.4109 49.1524 31.0002 48.5978 30.4349C48.0431 29.8589 47.7658 29.1602 47.7658 28.3389C47.7658 27.8269 47.8671 27.3576 48.0698 26.9309C48.2724 26.5042 48.5498 26.1362 48.9018 25.8269C49.2644 25.5069 49.6858 25.2616 50.1658 25.0909C50.6458 24.9096 51.1631 24.8189 51.7178 24.8189C52.3471 24.8189 52.9338 24.9362 53.4778 25.1709C54.0218 25.4056 54.4804 25.7416 54.8538 26.1789C55.2271 26.6162 55.4778 27.1336 55.6058 27.7309L53.4138 28.2109C53.2858 27.7842 53.0618 27.4589 52.7418 27.2349C52.4324 27.0002 52.0698 26.8829 51.6538 26.8829C51.3658 26.8829 51.1044 26.9416 50.8698 27.0589C50.6458 27.1656 50.4644 27.3202 50.3258 27.5229C50.1978 27.7149 50.1338 27.9336 50.1338 28.1789C50.1338 28.5522 50.2778 28.8402 50.5658 29.0429C50.8538 29.2349 51.2804 29.3949 51.8458 29.5229L52.3578 29.6349C53.5204 29.8909 54.3791 30.2962 54.9338 30.8509C55.4991 31.4056 55.7818 32.1149 55.7818 32.9789C55.7818 33.5229 55.6751 34.0189 55.4618 34.4669C55.2591 34.9149 54.9711 35.3042 54.5978 35.6349C54.2244 35.9656 53.7871 36.2216 53.2858 36.4029C52.7844 36.5736 52.2351 36.6589 51.6378 36.6589ZM60.7319 36.6589C60.1452 36.6589 59.6385 36.5469 59.2119 36.3229C58.7959 36.0882 58.4705 35.7522 58.2359 35.3149C58.0119 34.8776 57.8999 34.3442 57.8999 33.7149V29.7789H56.4599V27.9709H57.8999V25.0909H60.1399V27.9709H62.4439V29.7789H60.1399V33.4429C60.1399 33.8482 60.2252 34.1629 60.3959 34.3869C60.5665 34.6002 60.8279 34.7069 61.1799 34.7069C61.3612 34.7069 61.5532 34.6802 61.7559 34.6269C61.9692 34.5736 62.1719 34.5042 62.3639 34.4189L62.7639 36.0989C62.4865 36.2696 62.1772 36.4029 61.8359 36.4989C61.4945 36.6056 61.1265 36.6589 60.7319 36.6589ZM66.629 36.6589C66.1917 36.6589 65.7917 36.5949 65.429 36.4669C65.0663 36.3389 64.7463 36.1576 64.469 35.9229C64.2023 35.6776 63.9943 35.3949 63.845 35.0749C63.6957 34.7549 63.621 34.4029 63.621 34.0189C63.621 33.4856 63.765 33.0162 64.053 32.6109C64.341 32.2056 64.7463 31.8909 65.269 31.6669C65.7917 31.4322 66.3997 31.3149 67.093 31.3149C67.445 31.3149 67.7757 31.3469 68.085 31.4109C68.405 31.4749 68.7143 31.5656 69.013 31.6829V31.1869C69.013 30.7069 68.8743 30.3176 68.597 30.0189C68.3303 29.7202 67.9623 29.5709 67.493 29.5709C67.141 29.5709 66.821 29.6616 66.533 29.8429C66.245 30.0136 66.0423 30.2589 65.925 30.5789L63.925 30.1789C64.0423 29.6882 64.2717 29.2616 64.613 28.8989C64.965 28.5256 65.3917 28.2376 65.893 28.0349C66.3943 27.8322 66.9383 27.7309 67.525 27.7309C68.069 27.7309 68.565 27.8162 69.013 27.9869C69.461 28.1576 69.845 28.4029 70.165 28.7229C70.4957 29.0429 70.7463 29.4216 70.917 29.8589C71.0983 30.2856 71.189 30.7656 71.189 31.2989V36.4189H69.189L69.125 35.4269C68.901 35.7896 68.5757 36.0882 68.149 36.3229C67.7223 36.5469 67.2157 36.6589 66.629 36.6589ZM65.829 33.9069C65.829 34.2056 65.9517 34.4509 66.197 34.6429C66.4423 34.8349 66.7677 34.9309 67.173 34.9309C67.525 34.9309 67.8397 34.8562 68.117 34.7069C68.3943 34.5576 68.613 34.3549 68.773 34.0989C68.933 33.8322 69.013 33.5389 69.013 33.2189V33.1389C68.7783 33.0429 68.5277 32.9682 68.261 32.9149C67.9943 32.8509 67.7277 32.8189 67.461 32.8189C66.9597 32.8189 66.5597 32.9202 66.261 33.1229C65.973 33.3149 65.829 33.5762 65.829 33.9069ZM72.9741 36.4189V27.9709H75.0381L75.1181 29.2509C75.3315 28.8029 75.6195 28.4616 75.9821 28.2269C76.3448 27.9816 76.7715 27.8589 77.2621 27.8589C77.4115 27.8589 77.5608 27.8749 77.7101 27.9069C77.8595 27.9282 77.9928 27.9602 78.1101 28.0029L77.8701 30.2109C77.7528 30.1682 77.6301 30.1416 77.5021 30.1309C77.3848 30.1096 77.2621 30.0989 77.1341 30.0989C76.5155 30.0989 76.0408 30.2909 75.7101 30.6749C75.3795 31.0482 75.2141 31.5816 75.2141 32.2749V36.4189H72.9741ZM83.2163 36.6589C82.6296 36.6589 82.1229 36.5469 81.6963 36.3229C81.2803 36.0882 80.9549 35.7522 80.7203 35.3149C80.4963 34.8776 80.3843 34.3442 80.3843 33.7149V29.7789H78.9443V27.9709H80.3843V25.0909H82.6243V27.9709H84.9283V29.7789H82.6243V33.4429C82.6243 33.8482 82.7096 34.1629 82.8802 34.3869C83.0509 34.6002 83.3123 34.7069 83.6643 34.7069C83.8456 34.7069 84.0376 34.6802 84.2403 34.6269C84.4536 34.5736 84.6563 34.5042 84.8483 34.4189L85.2483 36.0989C84.9709 36.2696 84.6616 36.4029 84.3203 36.4989C83.9789 36.6056 83.6109 36.6589 83.2163 36.6589ZM90.0556 36.4189V25.0589H92.1196L97.3836 32.5789V25.0589H99.6876V36.4189H97.6236L92.3596 28.8989V36.4189H90.0556ZM105.694 36.6589C105.065 36.6589 104.484 36.5469 103.95 36.3229C103.417 36.0989 102.953 35.7896 102.558 35.3949C102.164 34.9896 101.854 34.5149 101.63 33.9709C101.417 33.4269 101.31 32.8349 101.31 32.1949C101.31 31.5549 101.422 30.9682 101.646 30.4349C101.87 29.8909 102.18 29.4162 102.574 29.0109C102.98 28.6056 103.449 28.2909 103.982 28.0669C104.526 27.8429 105.118 27.7309 105.758 27.7309C106.388 27.7309 106.969 27.8429 107.502 28.0669C108.036 28.2909 108.5 28.6056 108.894 29.0109C109.289 29.4056 109.593 29.8749 109.806 30.4189C110.03 30.9522 110.142 31.5389 110.142 32.1789C110.142 32.8189 110.03 33.4109 109.806 33.9549C109.582 34.4989 109.268 34.9736 108.862 35.3789C108.468 35.7842 107.998 36.0989 107.454 36.3229C106.921 36.5469 106.334 36.6589 105.694 36.6589ZM105.726 34.6429C106.132 34.6429 106.494 34.5362 106.814 34.3229C107.134 34.1096 107.385 33.8216 107.566 33.4589C107.758 33.0856 107.854 32.6642 107.854 32.1949C107.854 31.7256 107.758 31.3096 107.566 30.9469C107.385 30.5736 107.134 30.2802 106.814 30.0669C106.494 29.8536 106.132 29.7469 105.726 29.7469C105.321 29.7469 104.958 29.8536 104.638 30.0669C104.318 30.2802 104.062 30.5736 103.87 30.9469C103.689 31.3096 103.598 31.7256 103.598 32.1949C103.598 32.6642 103.689 33.0856 103.87 33.4589C104.062 33.8216 104.318 34.1096 104.638 34.3229C104.958 34.5362 105.321 34.6429 105.726 34.6429ZM113.445 36.4189L110.645 27.9709H112.949L114.533 33.6829L116.245 27.9709H118.181L119.893 33.6989L121.509 27.9709H123.733L120.933 36.4189H118.869L117.173 30.7069L115.477 36.4189H113.445Z" fill="white"/>
</svg>
