<svg width="150" height="130" viewBox="0 0 150 130" fill="none" xmlns="http://www.w3.org/2000/svg">
<rect x="1" y="1" width="148" height="128" rx="9" stroke="#F8F8F8" stroke-width="2"/>
<path d="M73.344 53.856C72.928 54.464 72.608 54.912 72.384 55.168C72.192 55.392 71.872 55.616 71.456 55.84C71.04 56.064 70.496 56.16 69.888 56.16H64.864C64.992 56 65.184 55.776 65.408 55.424C67.008 53.312 68.192 51.712 68.96 50.624C69.728 49.536 70.592 48.032 71.52 46.144C72.48 44.224 72.96 42.624 72.96 41.312C72.96 38.752 71.36 37.152 68.416 37.152C66.848 37.152 65.28 37.6 63.68 38.464C62.112 39.328 60.896 40.256 60.032 41.216V41.312C61.696 40.768 63.264 40.48 64.704 40.48C67.008 40.48 68.16 41.472 68.16 43.456C68.16 44.704 67.648 46.464 66.592 48.704C65.536 50.944 64.448 52.96 63.328 54.752C62.208 56.512 61.056 58.272 59.808 60H72.192L73.44 53.856H73.344ZM81.5483 37.312C79.6603 37.312 78.0923 38.176 76.8443 39.872C75.5963 41.568 74.9883 43.616 74.9883 46.016C74.9883 48.512 75.7243 50.464 77.1963 51.904C78.6683 53.312 80.3003 54.016 82.0603 54.016C82.5083 54.016 82.8603 53.984 83.1163 53.888C81.4843 56.8 78.5403 59.168 75.1803 59.936V60.032C75.7243 60.128 76.3003 60.192 76.9083 60.192C80.5563 60.192 83.5003 58.912 85.7083 56.32C87.9163 53.728 89.0363 50.592 89.0363 46.88C89.0363 44.352 88.3003 42.144 86.8603 40.224C85.4203 38.272 83.6603 37.312 81.5483 37.312ZM82.8603 52.16C82.1243 52.16 81.3883 51.392 80.6523 49.824C79.9163 48.256 79.5643 46.272 79.5643 43.936C79.5643 40.768 80.1083 39.2 81.1963 39.2C81.9643 39.2 82.7003 39.968 83.3723 41.536C84.0763 43.104 84.4283 44.992 84.4283 47.232C84.4283 50.176 83.7563 52.16 82.8603 52.16Z" fill="#3685FB"/>
<path d="M36.1669 90V78.64H42.9029V80.352H38.0869V83.616H42.4069V85.328H38.0869V90H36.1669ZM48.1456 90.24C47.5376 90.24 46.9723 90.1333 46.4496 89.92C45.9376 89.696 45.4896 89.3867 45.1056 88.992C44.7216 88.5867 44.423 88.1173 44.2096 87.584C43.9963 87.04 43.8896 86.448 43.8896 85.808C43.8896 85.1787 43.9963 84.5973 44.2096 84.064C44.423 83.52 44.7216 83.0507 45.1056 82.656C45.5003 82.2507 45.959 81.9413 46.4816 81.728C47.015 81.504 47.591 81.392 48.2096 81.392C48.8176 81.392 49.3776 81.504 49.8896 81.728C50.4123 81.9413 50.8656 82.2507 51.2496 82.656C51.6336 83.0507 51.9323 83.5147 52.1456 84.048C52.359 84.5813 52.4656 85.168 52.4656 85.808C52.4656 86.448 52.359 87.04 52.1456 87.584C51.9323 88.1173 51.6283 88.5867 51.2336 88.992C50.8496 89.3867 50.391 89.696 49.8576 89.92C49.335 90.1333 48.7643 90.24 48.1456 90.24ZM48.1776 88.576C48.6363 88.576 49.047 88.4587 49.4096 88.224C49.7723 87.9787 50.055 87.648 50.2576 87.232C50.471 86.816 50.5776 86.3413 50.5776 85.808C50.5776 85.2747 50.471 84.8053 50.2576 84.4C50.055 83.984 49.7723 83.6587 49.4096 83.424C49.047 83.1787 48.6363 83.056 48.1776 83.056C47.719 83.056 47.3083 83.1787 46.9456 83.424C46.583 83.6587 46.295 83.984 46.0816 84.4C45.879 84.8053 45.7776 85.2747 45.7776 85.808C45.7776 86.3413 45.879 86.816 46.0816 87.232C46.295 87.648 46.583 87.9787 46.9456 88.224C47.3083 88.4587 47.719 88.576 48.1776 88.576ZM58.0519 90.24C57.4439 90.24 56.8785 90.1333 56.3559 89.92C55.8439 89.696 55.3959 89.3867 55.0119 88.992C54.6279 88.5867 54.3292 88.1173 54.1159 87.584C53.9025 87.04 53.7959 86.448 53.7959 85.808C53.7959 85.1787 53.9025 84.5973 54.1159 84.064C54.3292 83.52 54.6279 83.0507 55.0119 82.656C55.4065 82.2507 55.8652 81.9413 56.3879 81.728C56.9212 81.504 57.4972 81.392 58.1159 81.392C58.7239 81.392 59.2839 81.504 59.7959 81.728C60.3185 81.9413 60.7719 82.2507 61.1559 82.656C61.5399 83.0507 61.8385 83.5147 62.0519 84.048C62.2652 84.5813 62.3719 85.168 62.3719 85.808C62.3719 86.448 62.2652 87.04 62.0519 87.584C61.8385 88.1173 61.5345 88.5867 61.1399 88.992C60.7559 89.3867 60.2972 89.696 59.7639 89.92C59.2412 90.1333 58.6705 90.24 58.0519 90.24ZM58.0839 88.576C58.5425 88.576 58.9532 88.4587 59.3159 88.224C59.6785 87.9787 59.9612 87.648 60.1639 87.232C60.3772 86.816 60.4839 86.3413 60.4839 85.808C60.4839 85.2747 60.3772 84.8053 60.1639 84.4C59.9612 83.984 59.6785 83.6587 59.3159 83.424C58.9532 83.1787 58.5425 83.056 58.0839 83.056C57.6252 83.056 57.2145 83.1787 56.8519 83.424C56.4892 83.6587 56.2012 83.984 55.9879 84.4C55.7852 84.8053 55.6839 85.2747 55.6839 85.808C55.6839 86.3413 55.7852 86.816 55.9879 87.232C56.2012 87.648 56.4892 87.9787 56.8519 88.224C57.2145 88.4587 57.6252 88.576 58.0839 88.576ZM67.6061 90.24C67.0515 90.24 66.5341 90.128 66.0541 89.904C65.5848 89.68 65.1741 89.3707 64.8221 88.976C64.4701 88.5813 64.1928 88.1173 63.9901 87.584C63.7981 87.0507 63.7021 86.4747 63.7021 85.856C63.7021 85.2267 63.8035 84.64 64.0061 84.096C64.2088 83.552 64.4915 83.0773 64.8541 82.672C65.2168 82.2667 65.6381 81.952 66.1181 81.728C66.6088 81.504 67.1368 81.392 67.7021 81.392C68.2568 81.392 68.7635 81.5093 69.2221 81.744C69.6808 81.9787 70.0595 82.3093 70.3581 82.736V78.096H72.1981V90H70.5181L70.4381 88.656C70.1395 89.1467 69.7448 89.536 69.2541 89.824C68.7635 90.1013 68.2141 90.24 67.6061 90.24ZM67.9901 88.576C68.4488 88.576 68.8595 88.4587 69.2221 88.224C69.5848 87.9787 69.8675 87.648 70.0701 87.232C70.2835 86.816 70.3901 86.3467 70.3901 85.824C70.3901 85.2907 70.2835 84.816 70.0701 84.4C69.8675 83.984 69.5848 83.6587 69.2221 83.424C68.8595 83.1787 68.4488 83.056 67.9901 83.056C67.5315 83.056 67.1208 83.1787 66.7581 83.424C66.3955 83.6587 66.1075 83.984 65.8941 84.4C65.6915 84.816 65.5901 85.2907 65.5901 85.824C65.5901 86.3467 65.6915 86.816 65.8941 87.232C66.1075 87.648 66.3955 87.9787 66.7581 88.224C67.1208 88.4587 67.5315 88.576 67.9901 88.576ZM81.0578 90.24C80.4178 90.24 79.8204 90.128 79.2658 89.904C78.7218 89.6693 78.2578 89.344 77.8738 88.928C77.4898 88.512 77.2178 88.016 77.0578 87.44L78.8978 86.992C79.0684 87.4827 79.3404 87.8613 79.7138 88.128C80.0871 88.3947 80.5404 88.528 81.0738 88.528C81.4578 88.528 81.7991 88.4533 82.0978 88.304C82.3964 88.1547 82.6311 87.952 82.8018 87.696C82.9831 87.44 83.0738 87.1467 83.0738 86.816C83.0738 86.4107 82.9244 86.0747 82.6258 85.808C82.3378 85.5307 81.8791 85.3227 81.2498 85.184L80.6578 85.056C79.5271 84.8107 78.6898 84.4053 78.1458 83.84C77.6124 83.2747 77.3458 82.5867 77.3458 81.776C77.3458 81.2853 77.4418 80.8373 77.6338 80.432C77.8258 80.016 78.0924 79.6587 78.4338 79.36C78.7751 79.0507 79.1751 78.816 79.6338 78.656C80.0924 78.4853 80.5884 78.4 81.1218 78.4C81.7298 78.4 82.2898 78.512 82.8018 78.736C83.3138 78.96 83.7511 79.28 84.1138 79.696C84.4764 80.1013 84.7324 80.5867 84.8818 81.152L83.0578 81.6C82.8871 81.12 82.6311 80.752 82.2898 80.496C81.9484 80.24 81.5431 80.112 81.0738 80.112C80.7324 80.112 80.4284 80.1813 80.1618 80.32C79.9058 80.448 79.6978 80.6293 79.5378 80.864C79.3884 81.088 79.3138 81.344 79.3138 81.632C79.3138 82.048 79.4684 82.3787 79.7778 82.624C80.0871 82.8693 80.5618 83.0667 81.2018 83.216L81.7938 83.344C83.9698 83.8347 85.0578 84.9387 85.0578 86.656C85.0578 87.1787 84.9564 87.664 84.7538 88.112C84.5618 88.5493 84.2844 88.928 83.9218 89.248C83.5591 89.5573 83.1324 89.8027 82.6418 89.984C82.1618 90.1547 81.6338 90.24 81.0578 90.24ZM86.617 90V78.096H88.457V82.64C88.713 82.256 89.0543 81.952 89.481 81.728C89.9077 81.504 90.3877 81.392 90.921 81.392C91.5503 81.392 92.0943 81.5413 92.553 81.84C93.0223 82.1387 93.385 82.56 93.641 83.104C93.897 83.648 94.025 84.288 94.025 85.024V90H92.185V85.232C92.185 84.5493 92.0303 84.016 91.721 83.632C91.4223 83.248 91.001 83.056 90.457 83.056C90.073 83.056 89.7263 83.1467 89.417 83.328C89.1183 83.5093 88.8837 83.7547 88.713 84.064C88.5423 84.3733 88.457 84.7307 88.457 85.136V90H86.617ZM99.8956 90.24C99.2876 90.24 98.7223 90.1333 98.1996 89.92C97.6876 89.696 97.2396 89.3867 96.8556 88.992C96.4716 88.5867 96.173 88.1173 95.9596 87.584C95.7463 87.04 95.6396 86.448 95.6396 85.808C95.6396 85.1787 95.7463 84.5973 95.9596 84.064C96.173 83.52 96.4716 83.0507 96.8556 82.656C97.2503 82.2507 97.709 81.9413 98.2316 81.728C98.765 81.504 99.341 81.392 99.9596 81.392C100.568 81.392 101.128 81.504 101.64 81.728C102.162 81.9413 102.616 82.2507 103 82.656C103.384 83.0507 103.682 83.5147 103.896 84.048C104.109 84.5813 104.216 85.168 104.216 85.808C104.216 86.448 104.109 87.04 103.896 87.584C103.682 88.1173 103.378 88.5867 102.984 88.992C102.6 89.3867 102.141 89.696 101.608 89.92C101.085 90.1333 100.514 90.24 99.8956 90.24ZM99.9276 88.576C100.386 88.576 100.797 88.4587 101.16 88.224C101.522 87.9787 101.805 87.648 102.008 87.232C102.221 86.816 102.328 86.3413 102.328 85.808C102.328 85.2747 102.221 84.8053 102.008 84.4C101.805 83.984 101.522 83.6587 101.16 83.424C100.797 83.1787 100.386 83.056 99.9276 83.056C99.469 83.056 99.0583 83.1787 98.6956 83.424C98.333 83.6587 98.045 83.984 97.8316 84.4C97.629 84.8053 97.5276 85.2747 97.5276 85.808C97.5276 86.3413 97.629 86.816 97.8316 87.232C98.045 87.648 98.333 87.9787 98.6956 88.224C99.0583 88.4587 99.469 88.576 99.9276 88.576ZM105.836 93.168V81.632H107.516L107.596 82.976C107.894 82.4853 108.289 82.1013 108.78 81.824C109.27 81.536 109.82 81.392 110.428 81.392C110.982 81.392 111.494 81.504 111.964 81.728C112.444 81.952 112.86 82.2613 113.212 82.656C113.564 83.0507 113.836 83.5147 114.028 84.048C114.23 84.5813 114.332 85.1573 114.332 85.776C114.332 86.4053 114.23 86.992 114.028 87.536C113.825 88.08 113.542 88.5547 113.18 88.96C112.817 89.3653 112.39 89.68 111.9 89.904C111.42 90.128 110.897 90.24 110.332 90.24C109.777 90.24 109.27 90.1227 108.812 89.888C108.353 89.6533 107.974 89.3227 107.676 88.896V93.168H105.836ZM110.044 88.576C110.502 88.576 110.913 88.4587 111.276 88.224C111.638 87.9787 111.921 87.648 112.124 87.232C112.337 86.816 112.444 86.3413 112.444 85.808C112.444 85.2747 112.337 84.8053 112.124 84.4C111.921 83.984 111.638 83.6587 111.276 83.424C110.913 83.1787 110.502 83.056 110.044 83.056C109.585 83.056 109.174 83.1787 108.812 83.424C108.449 83.6587 108.161 83.984 107.948 84.4C107.745 84.8053 107.644 85.2747 107.644 85.808C107.644 86.3413 107.745 86.816 107.948 87.232C108.161 87.648 108.449 87.9787 108.812 88.224C109.174 88.4587 109.585 88.576 110.044 88.576Z" fill="#002248"/>
</svg>
