<svg width="150" height="130" viewBox="0 0 150 130" fill="none" xmlns="http://www.w3.org/2000/svg">
<rect x="1" y="1" width="148" height="128" rx="9" stroke="#F8F8F8" stroke-width="2"/>
<path d="M62.341 60V59.936C60.933 59.168 60.741 58.144 60.741 56.096V37.312L53.509 41.28V41.344C55.813 41.824 56.389 42.528 56.389 44.096V56.096C56.389 58.144 56.197 59.168 54.789 59.936V60H62.341ZM71.7552 60.192C73.1953 60.192 74.8593 59.36 76.4273 57.696C77.9953 56.032 79.1473 52.832 79.1473 48.896C79.1473 44.928 78.0913 41.696 76.5553 40C75.0193 38.24 73.2913 37.376 71.6273 37.376C69.7073 37.376 68.0113 38.432 66.5713 40.544C65.1313 42.624 64.4273 45.536 64.4273 49.216C64.4273 52.896 65.5793 56 67.1153 57.664C68.6833 59.328 70.3473 60.192 71.7552 60.192ZM72.4273 58.176C71.6913 58.176 71.0833 57.472 70.5393 56.032C70.0273 54.592 69.6753 53.024 69.4513 51.392C69.2593 49.728 69.1633 48.192 69.1633 46.784C69.1633 44.8 69.2913 43.072 69.5473 41.6C69.8033 40.128 70.2193 39.392 70.7953 39.392C71.4673 39.392 72.3633 40.64 73.0993 42.592C73.8673 44.544 74.4113 47.744 74.4113 51.072C74.4113 53.088 74.2193 54.784 73.8353 56.16C73.4833 57.504 73.0033 58.176 72.4273 58.176ZM87.4233 37.312C85.5353 37.312 83.9673 38.176 82.7193 39.872C81.4713 41.568 80.8633 43.616 80.8633 46.016C80.8633 48.512 81.5993 50.464 83.0713 51.904C84.5433 53.312 86.1753 54.016 87.9353 54.016C88.3833 54.016 88.7353 53.984 88.9913 53.888C87.3593 56.8 84.4153 59.168 81.0553 59.936V60.032C81.5993 60.128 82.1753 60.192 82.7833 60.192C86.4313 60.192 89.3753 58.912 91.5833 56.32C93.7913 53.728 94.9113 50.592 94.9113 46.88C94.9113 44.352 94.1753 42.144 92.7353 40.224C91.2953 38.272 89.5353 37.312 87.4233 37.312ZM88.7353 52.16C87.9993 52.16 87.2633 51.392 86.5273 49.824C85.7913 48.256 85.4393 46.272 85.4393 43.936C85.4393 40.768 85.9833 39.2 87.0713 39.2C87.8393 39.2 88.5753 39.968 89.2473 41.536C89.9513 43.104 90.3033 44.992 90.3033 47.232C90.3033 50.176 89.6313 52.16 88.7353 52.16Z" fill="#3685FB"/>
<path d="M51.245 90V78.64H53.197V83.248H58.749V78.64H60.701V90H58.749V84.992H53.197V90H51.245ZM66.7081 90.24C66.1001 90.24 65.5348 90.1333 65.0121 89.92C64.5001 89.696 64.0521 89.3867 63.6681 88.992C63.2841 88.5867 62.9855 88.1173 62.7721 87.584C62.5588 87.04 62.4521 86.448 62.4521 85.808C62.4521 85.1787 62.5588 84.5973 62.7721 84.064C62.9855 83.52 63.2841 83.0507 63.6681 82.656C64.0628 82.2507 64.5215 81.9413 65.0441 81.728C65.5775 81.504 66.1535 81.392 66.7721 81.392C67.3801 81.392 67.9401 81.504 68.4521 81.728C68.9748 81.9413 69.4281 82.2507 69.8121 82.656C70.1961 83.0507 70.4948 83.5147 70.7081 84.048C70.9215 84.5813 71.0281 85.168 71.0281 85.808C71.0281 86.448 70.9215 87.04 70.7081 87.584C70.4948 88.1173 70.1908 88.5867 69.7961 88.992C69.4121 89.3867 68.9535 89.696 68.4201 89.92C67.8975 90.1333 67.3268 90.24 66.7081 90.24ZM66.7401 88.576C67.1988 88.576 67.6095 88.4587 67.9721 88.224C68.3348 87.9787 68.6175 87.648 68.8201 87.232C69.0335 86.816 69.1401 86.3413 69.1401 85.808C69.1401 85.2747 69.0335 84.8053 68.8201 84.4C68.6175 83.984 68.3348 83.6587 67.9721 83.424C67.6095 83.1787 67.1988 83.056 66.7401 83.056C66.2815 83.056 65.8708 83.1787 65.5081 83.424C65.1455 83.6587 64.8575 83.984 64.6441 84.4C64.4415 84.8053 64.3401 85.2747 64.3401 85.808C64.3401 86.3413 64.4415 86.816 64.6441 87.232C64.8575 87.648 65.1455 87.9787 65.5081 88.224C65.8708 88.4587 66.2815 88.576 66.7401 88.576ZM75.8855 90.24C75.0428 90.24 74.3815 90 73.9015 89.52C73.4215 89.0293 73.1815 88.3307 73.1815 87.424V83.12H71.7095V81.632H73.1815V78.8H75.0215V81.632H77.4535V83.12H75.0215V87.232C75.0215 87.68 75.1122 88.0267 75.2935 88.272C75.4855 88.5067 75.7628 88.624 76.1255 88.624C76.3175 88.624 76.5255 88.5973 76.7495 88.544C76.9735 88.48 77.1815 88.3947 77.3735 88.288L77.7895 89.68C77.5442 89.8507 77.2562 89.984 76.9255 90.08C76.6055 90.1867 76.2588 90.24 75.8855 90.24ZM82.9738 90.24C82.3551 90.24 81.7844 90.1333 81.2618 89.92C80.7498 89.696 80.3018 89.3867 79.9178 88.992C79.5338 88.5973 79.2351 88.1333 79.0218 87.6C78.8191 87.056 78.7178 86.4587 78.7178 85.808C78.7178 85.1787 78.8191 84.5973 79.0218 84.064C79.2351 83.5307 79.5231 83.0667 79.8858 82.672C80.2591 82.2667 80.6964 81.952 81.1978 81.728C81.6991 81.504 82.2431 81.392 82.8298 81.392C83.4164 81.392 83.9498 81.4987 84.4298 81.712C84.9204 81.9147 85.3418 82.208 85.6938 82.592C86.0564 82.976 86.3338 83.4347 86.5258 83.968C86.7178 84.4907 86.8138 85.072 86.8138 85.712V86.256H80.6218C80.6751 86.7467 80.8031 87.1733 81.0058 87.536C81.2191 87.888 81.4911 88.16 81.8218 88.352C82.1524 88.544 82.5364 88.64 82.9738 88.64C83.8484 88.64 84.5311 88.2507 85.0218 87.472L86.6378 88.096C86.4458 88.5333 86.1631 88.9173 85.7898 89.248C85.4271 89.568 85.0004 89.8133 84.5098 89.984C84.0298 90.1547 83.5178 90.24 82.9738 90.24ZM82.8298 82.88C82.4564 82.88 82.1204 82.9653 81.8218 83.136C81.5338 83.3067 81.2884 83.5467 81.0858 83.856C80.8831 84.1653 80.7444 84.528 80.6698 84.944H84.8938C84.8298 84.528 84.7071 84.1653 84.5258 83.856C84.3444 83.5467 84.1044 83.3067 83.8058 83.136C83.5178 82.9653 83.1924 82.88 82.8298 82.88ZM88.3826 90V78.096H90.2226V90H88.3826ZM95.0748 90.24C94.5308 90.24 94.0241 90.1493 93.5548 89.968C93.0961 89.7867 92.7014 89.5307 92.3708 89.2C92.0508 88.8587 91.8214 88.4587 91.6828 88L93.3468 87.568C93.4854 87.9307 93.7094 88.2133 94.0188 88.416C94.3281 88.6187 94.6854 88.72 95.0908 88.72C95.5068 88.72 95.8481 88.624 96.1148 88.432C96.3814 88.2293 96.5148 87.9733 96.5148 87.664C96.5148 87.3973 96.4081 87.1733 96.1948 86.992C95.9814 86.8107 95.6348 86.6773 95.1548 86.592L94.6268 86.496C93.7308 86.336 93.0534 86.048 92.5948 85.632C92.1468 85.216 91.9228 84.6827 91.9228 84.032C91.9228 83.5093 92.0561 83.0507 92.3228 82.656C92.5894 82.2613 92.9574 81.952 93.4268 81.728C93.8961 81.504 94.4348 81.392 95.0428 81.392C95.5654 81.392 96.0454 81.4827 96.4828 81.664C96.9201 81.8453 97.2881 82.1013 97.5868 82.432C97.8854 82.7627 98.0988 83.152 98.2268 83.6L96.5788 84C96.4508 83.6587 96.2481 83.392 95.9708 83.2C95.7041 82.9973 95.3894 82.896 95.0268 82.896C94.6534 82.896 94.3441 82.992 94.0988 83.184C93.8534 83.3653 93.7308 83.6 93.7308 83.888C93.7308 84.1333 93.8374 84.336 94.0508 84.496C94.2748 84.656 94.6481 84.784 95.1708 84.88L95.6988 84.976C96.5521 85.1253 97.2081 85.4187 97.6668 85.856C98.1254 86.2933 98.3548 86.8373 98.3548 87.488C98.3548 87.8827 98.2748 88.2507 98.1148 88.592C97.9548 88.9227 97.7254 89.216 97.4268 89.472C97.1388 89.7173 96.7921 89.904 96.3868 90.032C95.9921 90.1707 95.5548 90.24 95.0748 90.24Z" fill="#002248"/>
</svg>
