<svg width="150" height="130" viewBox="0 0 150 130" fill="none" xmlns="http://www.w3.org/2000/svg">
<rect x="1" y="1" width="148" height="128" rx="9" stroke="#F8F8F8" stroke-width="2"/>
<path d="M70.6691 60V59.936C69.2611 59.168 69.0691 58.144 69.0691 56.096V37.312L61.8371 41.28V41.344C64.1411 41.824 64.7171 42.528 64.7171 44.096V56.096C64.7171 58.144 64.5251 59.168 63.1171 59.936V60H70.6691ZM82.9709 46.976C84.6349 45.632 85.4669 44.096 85.4669 42.368C85.4669 40.96 84.9229 39.776 83.8029 38.784C82.6829 37.792 81.3389 37.312 79.7069 37.312C78.1709 37.312 76.7629 37.824 75.4829 38.848C74.2349 39.84 73.5949 41.248 73.5949 43.04C73.5949 44.672 74.4269 46.272 76.0909 47.776C73.6269 49.216 72.3789 51.104 72.3789 53.376C72.3789 55.392 73.1469 57.056 74.6829 58.368C76.2189 59.648 77.9469 60.288 79.8349 60.288C81.6909 60.288 83.2909 59.648 84.6669 58.336C86.0429 57.024 86.7149 55.296 86.7149 53.152C86.7149 50.592 85.3069 48.864 82.9709 46.976ZM79.4829 39.008C81.0189 39.008 82.1389 40.416 82.1389 42.368C82.1389 43.488 81.7549 44.544 81.0189 45.536C78.8109 43.904 77.6269 42.72 77.6269 41.152C77.6269 39.968 78.4589 39.008 79.4829 39.008ZM80.1869 58.56C79.0989 58.56 78.1389 57.984 77.3389 56.832C76.5389 55.68 76.1549 54.496 76.1549 53.248C76.1549 51.616 76.6989 50.24 77.8189 49.184C77.9149 49.248 78.0429 49.344 78.2029 49.472C79.1629 50.208 79.8989 50.784 80.3789 51.2C80.8589 51.616 81.3389 52.224 81.8189 52.96C82.2989 53.696 82.5229 54.464 82.5229 55.232C82.5229 57.056 81.6269 58.56 80.1869 58.56Z" fill="#3685FB"/>
<path d="M23.4872 90V78.64H26.9112C27.8179 78.64 28.5965 78.784 29.2472 79.072C29.9085 79.36 30.4152 79.7707 30.7672 80.304C31.1192 80.8373 31.2952 81.472 31.2952 82.208C31.2952 82.6667 31.2099 83.0987 31.0392 83.504C30.8792 83.8987 30.6445 84.256 30.3352 84.576C30.0365 84.896 29.6739 85.1573 29.2472 85.36L31.8872 90H29.7272L27.5352 85.872C27.4179 85.8827 27.2845 85.8933 27.1352 85.904C26.9965 85.904 26.8525 85.904 26.7032 85.904C26.3299 85.904 25.8979 85.8667 25.4072 85.792V90H23.4872ZM25.4072 80.336V84.096C25.6312 84.1387 25.8605 84.1707 26.0952 84.192C26.3405 84.2027 26.5805 84.208 26.8152 84.208C27.6045 84.208 28.2179 84.0373 28.6552 83.696C29.0925 83.3547 29.3112 82.88 29.3112 82.272C29.3112 81.664 29.0979 81.1893 28.6712 80.848C28.2445 80.5067 27.6472 80.336 26.8792 80.336H25.4072ZM36.9503 90.24C36.3316 90.24 35.761 90.1333 35.2383 89.92C34.7263 89.696 34.2783 89.3867 33.8943 88.992C33.5103 88.5973 33.2116 88.1333 32.9983 87.6C32.7956 87.056 32.6943 86.4587 32.6943 85.808C32.6943 85.1787 32.7956 84.5973 32.9983 84.064C33.2116 83.5307 33.4996 83.0667 33.8623 82.672C34.2356 82.2667 34.673 81.952 35.1743 81.728C35.6756 81.504 36.2196 81.392 36.8063 81.392C37.393 81.392 37.9263 81.4987 38.4063 81.712C38.897 81.9147 39.3183 82.208 39.6703 82.592C40.033 82.976 40.3103 83.4347 40.5023 83.968C40.6943 84.4907 40.7903 85.072 40.7903 85.712V86.256H34.5983C34.6516 86.7467 34.7796 87.1733 34.9823 87.536C35.1956 87.888 35.4676 88.16 35.7983 88.352C36.129 88.544 36.513 88.64 36.9503 88.64C37.825 88.64 38.5076 88.2507 38.9983 87.472L40.6143 88.096C40.4223 88.5333 40.1396 88.9173 39.7663 89.248C39.4036 89.568 38.977 89.8133 38.4863 89.984C38.0063 90.1547 37.4943 90.24 36.9503 90.24ZM36.8063 82.88C36.433 82.88 36.097 82.9653 35.7983 83.136C35.5103 83.3067 35.265 83.5467 35.0623 83.856C34.8596 84.1653 34.721 84.528 34.6463 84.944H38.8703C38.8063 84.528 38.6836 84.1653 38.5023 83.856C38.321 83.5467 38.081 83.3067 37.7823 83.136C37.4943 82.9653 37.169 82.88 36.8063 82.88ZM42.3592 90V78.096H44.1992V90H42.3592ZM48.7473 90.24C48.3206 90.24 47.926 90.176 47.5633 90.048C47.2113 89.92 46.902 89.7387 46.6353 89.504C46.3686 89.2693 46.1606 88.992 46.0113 88.672C45.862 88.352 45.7873 88 45.7873 87.616C45.7873 87.0827 45.926 86.6187 46.2033 86.224C46.4913 85.8187 46.8913 85.504 47.4033 85.28C47.9153 85.056 48.5126 84.944 49.1953 84.944C49.5686 84.944 49.926 84.9813 50.2673 85.056C50.6086 85.12 50.934 85.216 51.2433 85.344V84.816C51.2433 84.4427 51.174 84.1173 51.0353 83.84C50.8966 83.552 50.6993 83.328 50.4433 83.168C50.1873 83.008 49.878 82.928 49.5153 82.928C49.1313 82.928 48.7846 83.0293 48.4753 83.232C48.166 83.4347 47.9366 83.7173 47.7873 84.08L46.0913 83.696C46.2193 83.2267 46.4486 82.8213 46.7793 82.48C47.1206 82.1387 47.526 81.872 47.9953 81.68C48.4753 81.488 48.9926 81.392 49.5473 81.392C50.07 81.392 50.5446 81.4773 50.9713 81.648C51.4086 81.8187 51.782 82.0587 52.0913 82.368C52.4006 82.6773 52.6406 83.0453 52.8113 83.472C52.982 83.8987 53.0673 84.3733 53.0673 84.896V90H51.3873L51.3233 88.896C51.0993 89.3013 50.7633 89.6267 50.3153 89.872C49.8673 90.1173 49.3446 90.24 48.7473 90.24ZM47.6433 87.536C47.6433 87.7707 47.7073 87.984 47.8353 88.176C47.9633 88.3573 48.1393 88.5013 48.3633 88.608C48.598 88.7147 48.87 88.768 49.1793 88.768C49.574 88.768 49.926 88.6827 50.2353 88.512C50.5446 88.3413 50.79 88.112 50.9713 87.824C51.1526 87.5253 51.2433 87.1893 51.2433 86.816V86.624C50.966 86.5067 50.678 86.416 50.3793 86.352C50.0913 86.2773 49.7926 86.24 49.4833 86.24C48.9286 86.24 48.4806 86.3573 48.1393 86.592C47.8086 86.8267 47.6433 87.1413 47.6433 87.536ZM58.2371 90.24C57.3944 90.24 56.7331 90 56.2531 89.52C55.7731 89.0293 55.5331 88.3307 55.5331 87.424V83.12H54.0611V81.632H55.5331V78.8H57.3731V81.632H59.8051V83.12H57.3731V87.232C57.3731 87.68 57.4637 88.0267 57.6451 88.272C57.8371 88.5067 58.1144 88.624 58.4771 88.624C58.6691 88.624 58.8771 88.5973 59.1011 88.544C59.3251 88.48 59.5331 88.3947 59.7251 88.288L60.1411 89.68C59.8957 89.8507 59.6077 89.984 59.2771 90.08C58.9571 90.1867 58.6104 90.24 58.2371 90.24ZM65.3253 90.24C64.7066 90.24 64.136 90.1333 63.6133 89.92C63.1013 89.696 62.6533 89.3867 62.2693 88.992C61.8853 88.5973 61.5866 88.1333 61.3733 87.6C61.1706 87.056 61.0693 86.4587 61.0693 85.808C61.0693 85.1787 61.1706 84.5973 61.3733 84.064C61.5866 83.5307 61.8746 83.0667 62.2373 82.672C62.6106 82.2667 63.048 81.952 63.5493 81.728C64.0506 81.504 64.5946 81.392 65.1813 81.392C65.768 81.392 66.3013 81.4987 66.7813 81.712C67.272 81.9147 67.6933 82.208 68.0453 82.592C68.408 82.976 68.6853 83.4347 68.8773 83.968C69.0693 84.4907 69.1653 85.072 69.1653 85.712V86.256H62.9733C63.0266 86.7467 63.1546 87.1733 63.3573 87.536C63.5706 87.888 63.8426 88.16 64.1733 88.352C64.504 88.544 64.888 88.64 65.3253 88.64C66.2 88.64 66.8826 88.2507 67.3733 87.472L68.9893 88.096C68.7973 88.5333 68.5146 88.9173 68.1413 89.248C67.7786 89.568 67.352 89.8133 66.8613 89.984C66.3813 90.1547 65.8693 90.24 65.3253 90.24ZM65.1813 82.88C64.808 82.88 64.472 82.9653 64.1733 83.136C63.8853 83.3067 63.64 83.5467 63.4373 83.856C63.2346 84.1653 63.096 84.528 63.0213 84.944H67.2453C67.1813 84.528 67.0586 84.1653 66.8773 83.856C66.696 83.5467 66.456 83.3067 66.1573 83.136C65.8693 82.9653 65.544 82.88 65.1813 82.88ZM74.3483 90.24C73.7936 90.24 73.2763 90.128 72.7963 89.904C72.327 89.68 71.9163 89.3707 71.5643 88.976C71.2123 88.5813 70.935 88.1173 70.7323 87.584C70.5403 87.0507 70.4443 86.4747 70.4443 85.856C70.4443 85.2267 70.5456 84.64 70.7483 84.096C70.951 83.552 71.2336 83.0773 71.5963 82.672C71.959 82.2667 72.3803 81.952 72.8603 81.728C73.351 81.504 73.879 81.392 74.4443 81.392C74.999 81.392 75.5056 81.5093 75.9643 81.744C76.423 81.9787 76.8016 82.3093 77.1003 82.736V78.096H78.9403V90H77.2603L77.1803 88.656C76.8816 89.1467 76.487 89.536 75.9963 89.824C75.5056 90.1013 74.9563 90.24 74.3483 90.24ZM74.7323 88.576C75.191 88.576 75.6016 88.4587 75.9643 88.224C76.327 87.9787 76.6096 87.648 76.8123 87.232C77.0256 86.816 77.1323 86.3467 77.1323 85.824C77.1323 85.2907 77.0256 84.816 76.8123 84.4C76.6096 83.984 76.327 83.6587 75.9643 83.424C75.6016 83.1787 75.191 83.056 74.7323 83.056C74.2736 83.056 73.863 83.1787 73.5003 83.424C73.1376 83.6587 72.8496 83.984 72.6363 84.4C72.4336 84.816 72.3323 85.2907 72.3323 85.824C72.3323 86.3467 72.4336 86.816 72.6363 87.232C72.8496 87.648 73.1376 87.9787 73.5003 88.224C73.863 88.4587 74.2736 88.576 74.7323 88.576ZM87.7999 90.24C87.1599 90.24 86.5626 90.128 86.0079 89.904C85.4639 89.6693 84.9999 89.344 84.6159 88.928C84.2319 88.512 83.9599 88.016 83.7999 87.44L85.6399 86.992C85.8106 87.4827 86.0826 87.8613 86.4559 88.128C86.8293 88.3947 87.2826 88.528 87.8159 88.528C88.1999 88.528 88.5413 88.4533 88.8399 88.304C89.1386 88.1547 89.3733 87.952 89.5439 87.696C89.7253 87.44 89.8159 87.1467 89.8159 86.816C89.8159 86.4107 89.6666 86.0747 89.3679 85.808C89.0799 85.5307 88.6213 85.3227 87.9919 85.184L87.3999 85.056C86.2693 84.8107 85.4319 84.4053 84.8879 83.84C84.3546 83.2747 84.0879 82.5867 84.0879 81.776C84.0879 81.2853 84.1839 80.8373 84.3759 80.432C84.5679 80.016 84.8346 79.6587 85.1759 79.36C85.5173 79.0507 85.9173 78.816 86.3759 78.656C86.8346 78.4853 87.3306 78.4 87.8639 78.4C88.4719 78.4 89.0319 78.512 89.5439 78.736C90.0559 78.96 90.4933 79.28 90.8559 79.696C91.2186 80.1013 91.4746 80.5867 91.6239 81.152L89.7999 81.6C89.6293 81.12 89.3733 80.752 89.0319 80.496C88.6906 80.24 88.2853 80.112 87.8159 80.112C87.4746 80.112 87.1706 80.1813 86.9039 80.32C86.6479 80.448 86.4399 80.6293 86.2799 80.864C86.1306 81.088 86.0559 81.344 86.0559 81.632C86.0559 82.048 86.2106 82.3787 86.5199 82.624C86.8293 82.8693 87.3039 83.0667 87.9439 83.216L88.5359 83.344C90.7119 83.8347 91.7999 84.9387 91.7999 86.656C91.7999 87.1787 91.6986 87.664 91.4959 88.112C91.3039 88.5493 91.0266 88.928 90.6639 89.248C90.3013 89.5573 89.8746 89.8027 89.3839 89.984C88.9039 90.1547 88.3759 90.24 87.7999 90.24ZM93.3592 93.168V81.632H95.0392L95.1192 82.976C95.4179 82.4853 95.8125 82.1013 96.3032 81.824C96.7939 81.536 97.3432 81.392 97.9512 81.392C98.5059 81.392 99.0179 81.504 99.4872 81.728C99.9672 81.952 100.383 82.2613 100.735 82.656C101.087 83.0507 101.359 83.5147 101.551 84.048C101.754 84.5813 101.855 85.1573 101.855 85.776C101.855 86.4053 101.754 86.992 101.551 87.536C101.349 88.08 101.066 88.5547 100.703 88.96C100.341 89.3653 99.9139 89.68 99.4232 89.904C98.9432 90.128 98.4205 90.24 97.8552 90.24C97.3005 90.24 96.7939 90.1227 96.3352 89.888C95.8765 89.6533 95.4979 89.3227 95.1992 88.896V93.168H93.3592ZM97.5672 88.576C98.0259 88.576 98.4365 88.4587 98.7992 88.224C99.1619 87.9787 99.4445 87.648 99.6472 87.232C99.8605 86.816 99.9672 86.3413 99.9672 85.808C99.9672 85.2747 99.8605 84.8053 99.6472 84.4C99.4445 83.984 99.1619 83.6587 98.7992 83.424C98.4365 83.1787 98.0259 83.056 97.5672 83.056C97.1085 83.056 96.6979 83.1787 96.3352 83.424C95.9725 83.6587 95.6845 83.984 95.4712 84.4C95.2685 84.8053 95.1672 85.2747 95.1672 85.808C95.1672 86.3413 95.2685 86.816 95.4712 87.232C95.6845 87.648 95.9725 87.9787 96.3352 88.224C96.6979 88.4587 97.1085 88.576 97.5672 88.576ZM107.435 90.24C106.827 90.24 106.261 90.1333 105.739 89.92C105.227 89.696 104.779 89.3867 104.395 88.992C104.011 88.5867 103.712 88.1173 103.499 87.584C103.285 87.04 103.179 86.448 103.179 85.808C103.179 85.1787 103.285 84.5973 103.499 84.064C103.712 83.52 104.011 83.0507 104.395 82.656C104.789 82.2507 105.248 81.9413 105.771 81.728C106.304 81.504 106.88 81.392 107.499 81.392C108.107 81.392 108.667 81.504 109.179 81.728C109.701 81.9413 110.155 82.2507 110.539 82.656C110.923 83.0507 111.221 83.5147 111.435 84.048C111.648 84.5813 111.755 85.168 111.755 85.808C111.755 86.448 111.648 87.04 111.435 87.584C111.221 88.1173 110.917 88.5867 110.523 88.992C110.139 89.3867 109.68 89.696 109.147 89.92C108.624 90.1333 108.053 90.24 107.435 90.24ZM107.467 88.576C107.925 88.576 108.336 88.4587 108.699 88.224C109.061 87.9787 109.344 87.648 109.547 87.232C109.76 86.816 109.867 86.3413 109.867 85.808C109.867 85.2747 109.76 84.8053 109.547 84.4C109.344 83.984 109.061 83.6587 108.699 83.424C108.336 83.1787 107.925 83.056 107.467 83.056C107.008 83.056 106.597 83.1787 106.235 83.424C105.872 83.6587 105.584 83.984 105.371 84.4C105.168 84.8053 105.067 85.2747 105.067 85.808C105.067 86.3413 105.168 86.816 105.371 87.232C105.584 87.648 105.872 87.9787 106.235 88.224C106.597 88.4587 107.008 88.576 107.467 88.576ZM116.612 90.24C115.769 90.24 115.108 90 114.628 89.52C114.148 89.0293 113.908 88.3307 113.908 87.424V83.12H112.436V81.632H113.908V78.8H115.748V81.632H118.18V83.12H115.748V87.232C115.748 87.68 115.839 88.0267 116.02 88.272C116.212 88.5067 116.489 88.624 116.852 88.624C117.044 88.624 117.252 88.5973 117.476 88.544C117.7 88.48 117.908 88.3947 118.1 88.288L118.516 89.68C118.271 89.8507 117.983 89.984 117.652 90.08C117.332 90.1867 116.985 90.24 116.612 90.24ZM122.833 90.24C122.289 90.24 121.782 90.1493 121.313 89.968C120.854 89.7867 120.459 89.5307 120.129 89.2C119.809 88.8587 119.579 88.4587 119.441 88L121.105 87.568C121.243 87.9307 121.467 88.2133 121.777 88.416C122.086 88.6187 122.443 88.72 122.849 88.72C123.265 88.72 123.606 88.624 123.873 88.432C124.139 88.2293 124.273 87.9733 124.273 87.664C124.273 87.3973 124.166 87.1733 123.953 86.992C123.739 86.8107 123.393 86.6773 122.913 86.592L122.385 86.496C121.489 86.336 120.811 86.048 120.353 85.632C119.905 85.216 119.681 84.6827 119.681 84.032C119.681 83.5093 119.814 83.0507 120.081 82.656C120.347 82.2613 120.715 81.952 121.185 81.728C121.654 81.504 122.193 81.392 122.801 81.392C123.323 81.392 123.803 81.4827 124.241 81.664C124.678 81.8453 125.046 82.1013 125.345 82.432C125.643 82.7627 125.857 83.152 125.985 83.6L124.337 84C124.209 83.6587 124.006 83.392 123.729 83.2C123.462 82.9973 123.147 82.896 122.785 82.896C122.411 82.896 122.102 82.992 121.857 83.184C121.611 83.3653 121.489 83.6 121.489 83.888C121.489 84.1333 121.595 84.336 121.809 84.496C122.033 84.656 122.406 84.784 122.929 84.88L123.457 84.976C124.31 85.1253 124.966 85.4187 125.425 85.856C125.883 86.2933 126.113 86.8373 126.113 87.488C126.113 87.8827 126.033 88.2507 125.873 88.592C125.713 88.9227 125.483 89.216 125.185 89.472C124.897 89.7173 124.55 89.904 124.145 90.032C123.75 90.1707 123.313 90.24 122.833 90.24Z" fill="#002248"/>
</svg>
