<svg width="150" height="130" viewBox="0 0 150 130" fill="none" xmlns="http://www.w3.org/2000/svg">
<rect x="1" y="1" width="148" height="128" rx="9" stroke="#F8F8F8" stroke-width="2"/>
<path d="M47.2316 60V59.936C45.8236 59.168 45.6316 58.144 45.6316 56.096V37.312L38.3996 41.28V41.344C40.7036 41.824 41.2796 42.528 41.2796 44.096V56.096C41.2796 58.144 41.0876 59.168 39.6796 59.936V60H47.2316ZM56.6459 60.192C58.0859 60.192 59.7499 59.36 61.3179 57.696C62.8859 56.032 64.0379 52.832 64.0379 48.896C64.0379 44.928 62.9819 41.696 61.4459 40C59.9099 38.24 58.1819 37.376 56.5179 37.376C54.5979 37.376 52.9019 38.432 51.4619 40.544C50.0219 42.624 49.3179 45.536 49.3179 49.216C49.3179 52.896 50.4699 56 52.0059 57.664C53.5739 59.328 55.2379 60.192 56.6459 60.192ZM57.3179 58.176C56.5819 58.176 55.9739 57.472 55.4299 56.032C54.9179 54.592 54.5659 53.024 54.3419 51.392C54.1499 49.728 54.0539 48.192 54.0539 46.784C54.0539 44.8 54.1819 43.072 54.4379 41.6C54.6939 40.128 55.1099 39.392 55.6859 39.392C56.3579 39.392 57.2539 40.64 57.9899 42.592C58.7579 44.544 59.3019 47.744 59.3019 51.072C59.3019 53.088 59.1099 54.784 58.7259 56.16C58.3739 57.504 57.8939 58.176 57.3179 58.176ZM93.9139 37.6H86.1379L79.9939 51.52L73.9139 37.6H65.4979V37.664C67.0019 38.336 67.8979 39.808 67.8979 41.504V56.096C67.8979 57.792 67.0019 59.264 65.4979 59.936V60H72.6019V59.936C71.0979 59.264 70.2019 57.792 70.2019 56.096V42.304L78.2659 60.48H78.3299L86.5219 42.368V56.096C86.5219 57.792 85.6259 59.264 84.1219 59.936V60H93.9139V59.936C92.4739 59.264 91.5459 57.792 91.5459 56.096V41.504C91.5459 39.808 92.4739 38.336 93.9139 37.664V37.6ZM103.732 48.768V42.432H101.748V48.768H95.4444V50.688H101.748V57.024H103.732V50.688H110.036V48.768H103.732Z" fill="#3685FB"/>
<path d="M53.1844 89L49.3764 79.06H51.2384L54.1364 87.068L57.0204 79.06H58.8124L55.0044 89H53.1844ZM61.5864 79.634C61.5864 79.8113 61.5398 79.9747 61.4464 80.124C61.3624 80.2733 61.2458 80.3947 61.0964 80.488C60.9471 80.572 60.7838 80.614 60.6064 80.614C60.4291 80.614 60.2658 80.572 60.1164 80.488C59.9671 80.3947 59.8458 80.2733 59.7524 80.124C59.6684 79.9747 59.6264 79.8113 59.6264 79.634C59.6264 79.4567 59.6684 79.2933 59.7524 79.144C59.8458 78.9947 59.9671 78.878 60.1164 78.794C60.2658 78.7007 60.4291 78.654 60.6064 78.654C60.7838 78.654 60.9471 78.7007 61.0964 78.794C61.2458 78.878 61.3624 78.9947 61.4464 79.144C61.5398 79.2933 61.5864 79.4567 61.5864 79.634ZM59.8084 89V81.678H61.4184V89H59.8084ZM65.664 89.21C65.188 89.21 64.7447 89.1307 64.334 88.972C63.9327 88.8133 63.5874 88.5893 63.298 88.3C63.018 88.0013 62.8174 87.6513 62.696 87.25L64.152 86.872C64.2734 87.1893 64.4694 87.4367 64.74 87.614C65.0107 87.7913 65.3234 87.88 65.678 87.88C66.042 87.88 66.3407 87.796 66.574 87.628C66.8074 87.4507 66.924 87.2267 66.924 86.956C66.924 86.7227 66.8307 86.5267 66.644 86.368C66.4574 86.2093 66.154 86.0927 65.734 86.018L65.272 85.934C64.488 85.794 63.8954 85.542 63.494 85.178C63.102 84.814 62.906 84.3473 62.906 83.778C62.906 83.3207 63.0227 82.9193 63.256 82.574C63.4894 82.2287 63.8114 81.958 64.222 81.762C64.6327 81.566 65.104 81.468 65.636 81.468C66.0934 81.468 66.5134 81.5473 66.896 81.706C67.2787 81.8647 67.6007 82.0887 67.862 82.378C68.1234 82.6673 68.31 83.008 68.422 83.4L66.98 83.75C66.868 83.4513 66.6907 83.218 66.448 83.05C66.2147 82.8727 65.9394 82.784 65.622 82.784C65.2954 82.784 65.0247 82.868 64.81 83.036C64.5954 83.1947 64.488 83.4 64.488 83.652C64.488 83.8667 64.5814 84.044 64.768 84.184C64.964 84.324 65.2907 84.436 65.748 84.52L66.21 84.604C66.9567 84.7347 67.5307 84.9913 67.932 85.374C68.3334 85.7567 68.534 86.2327 68.534 86.802C68.534 87.1473 68.464 87.4693 68.324 87.768C68.184 88.0573 67.9834 88.314 67.722 88.538C67.47 88.7527 67.1667 88.916 66.812 89.028C66.4667 89.1493 66.084 89.21 65.664 89.21ZM71.6353 79.634C71.6353 79.8113 71.5886 79.9747 71.4953 80.124C71.4113 80.2733 71.2946 80.3947 71.1453 80.488C70.9959 80.572 70.8326 80.614 70.6553 80.614C70.4779 80.614 70.3146 80.572 70.1653 80.488C70.0159 80.3947 69.8946 80.2733 69.8013 80.124C69.7173 79.9747 69.6753 79.8113 69.6753 79.634C69.6753 79.4567 69.7173 79.2933 69.8013 79.144C69.8946 78.9947 70.0159 78.878 70.1653 78.794C70.3146 78.7007 70.4779 78.654 70.6553 78.654C70.8326 78.654 70.9959 78.7007 71.1453 78.794C71.2946 78.878 71.4113 78.9947 71.4953 79.144C71.5886 79.2933 71.6353 79.4567 71.6353 79.634ZM69.8573 89V81.678H71.4673V89H69.8573ZM76.2309 89.21C75.4935 89.21 74.9149 89 74.4949 88.58C74.0749 88.1507 73.8649 87.5393 73.8649 86.746V82.98H72.5769V81.678H73.8649V79.2H75.4749V81.678H77.6029V82.98H75.4749V86.578C75.4749 86.97 75.5542 87.2733 75.7129 87.488C75.8809 87.6933 76.1235 87.796 76.4409 87.796C76.6089 87.796 76.7909 87.7727 76.9869 87.726C77.1829 87.67 77.3649 87.5953 77.5329 87.502L77.8969 88.72C77.6822 88.8693 77.4302 88.986 77.1409 89.07C76.8609 89.1633 76.5575 89.21 76.2309 89.21ZM82.4331 89.21C81.9011 89.21 81.4064 89.1167 80.9491 88.93C80.5011 88.734 80.1091 88.4633 79.7731 88.118C79.4371 87.7633 79.1758 87.3527 78.9891 86.886C78.8024 86.41 78.7091 85.892 78.7091 85.332C78.7091 84.7813 78.8024 84.2727 78.9891 83.806C79.1758 83.33 79.4371 82.9193 79.7731 82.574C80.1184 82.2193 80.5198 81.9487 80.9771 81.762C81.4438 81.566 81.9478 81.468 82.4891 81.468C83.0211 81.468 83.5111 81.566 83.9591 81.762C84.4164 81.9487 84.8131 82.2193 85.1491 82.574C85.4851 82.9193 85.7464 83.3253 85.9331 83.792C86.1198 84.2587 86.2131 84.772 86.2131 85.332C86.2131 85.892 86.1198 86.41 85.9331 86.886C85.7464 87.3527 85.4804 87.7633 85.1351 88.118C84.7991 88.4633 84.3978 88.734 83.9311 88.93C83.4738 89.1167 82.9744 89.21 82.4331 89.21ZM82.4611 87.754C82.8624 87.754 83.2218 87.6513 83.5391 87.446C83.8564 87.2313 84.1038 86.942 84.2811 86.578C84.4678 86.214 84.5611 85.7987 84.5611 85.332C84.5611 84.8653 84.4678 84.4547 84.2811 84.1C84.1038 83.736 83.8564 83.4513 83.5391 83.246C83.2218 83.0313 82.8624 82.924 82.4611 82.924C82.0598 82.924 81.7004 83.0313 81.3831 83.246C81.0658 83.4513 80.8138 83.736 80.6271 84.1C80.4498 84.4547 80.3611 84.8653 80.3611 85.332C80.3611 85.7987 80.4498 86.214 80.6271 86.578C80.8138 86.942 81.0658 87.2313 81.3831 87.446C81.7004 87.6513 82.0598 87.754 82.4611 87.754ZM87.6307 89V81.678H89.1007L89.1707 82.882C89.3574 82.4713 89.614 82.154 89.9407 81.93C90.2767 81.6967 90.6687 81.58 91.1167 81.58C91.2567 81.58 91.392 81.5893 91.5227 81.608C91.6534 81.6267 91.77 81.6593 91.8727 81.706L91.6907 83.274C91.588 83.2367 91.4807 83.2133 91.3687 83.204C91.2567 83.1853 91.1447 83.176 91.0327 83.176C90.4727 83.176 90.034 83.3627 89.7167 83.736C89.3994 84.1093 89.2407 84.6273 89.2407 85.29V89H87.6307ZM95.5644 89.21C95.0884 89.21 94.6451 89.1307 94.2344 88.972C93.8331 88.8133 93.4878 88.5893 93.1984 88.3C92.9184 88.0013 92.7178 87.6513 92.5964 87.25L94.0524 86.872C94.1738 87.1893 94.3698 87.4367 94.6404 87.614C94.9111 87.7913 95.2238 87.88 95.5784 87.88C95.9424 87.88 96.2411 87.796 96.4744 87.628C96.7078 87.4507 96.8244 87.2267 96.8244 86.956C96.8244 86.7227 96.7311 86.5267 96.5444 86.368C96.3578 86.2093 96.0544 86.0927 95.6344 86.018L95.1724 85.934C94.3884 85.794 93.7958 85.542 93.3944 85.178C93.0024 84.814 92.8064 84.3473 92.8064 83.778C92.8064 83.3207 92.9231 82.9193 93.1564 82.574C93.3898 82.2287 93.7118 81.958 94.1224 81.762C94.5331 81.566 95.0044 81.468 95.5364 81.468C95.9938 81.468 96.4138 81.5473 96.7964 81.706C97.1791 81.8647 97.5011 82.0887 97.7624 82.378C98.0238 82.6673 98.2104 83.008 98.3224 83.4L96.8804 83.75C96.7684 83.4513 96.5911 83.218 96.3484 83.05C96.1151 82.8727 95.8398 82.784 95.5224 82.784C95.1958 82.784 94.9251 82.868 94.7104 83.036C94.4958 83.1947 94.3884 83.4 94.3884 83.652C94.3884 83.8667 94.4818 84.044 94.6684 84.184C94.8644 84.324 95.1911 84.436 95.6484 84.52L96.1104 84.604C96.8571 84.7347 97.4311 84.9913 97.8324 85.374C98.2338 85.7567 98.4344 86.2327 98.4344 86.802C98.4344 87.1473 98.3644 87.4693 98.2244 87.768C98.0844 88.0573 97.8838 88.314 97.6224 88.538C97.3704 88.7527 97.0671 88.916 96.7124 89.028C96.3671 89.1493 95.9844 89.21 95.5644 89.21Z" fill="#002248"/>
</svg>
