<svg width="1320" height="484" viewBox="0 0 1320 484" fill="none" xmlns="http://www.w3.org/2000/svg">
<g filter="url(#filter0_d_1_286)">
<path d="M170 160C170 143.431 183.431 130 200 130H1120C1136.57 130 1150 143.431 1150 160V244C1150 260.569 1136.57 274 1120 274H200C183.431 274 170 260.569 170 244V160Z" fill="#FCFCFC"/>
</g>
<g filter="url(#filter1_d_1_286)">
<path d="M940 130H1120C1136.57 130 1150 143.431 1150 160V243.84C1150 260.409 1136.57 273.84 1120 273.84H940V130Z" fill="#3685FB"/>
</g>
<path d="M245.916 189.26H252.371V191.233H243.445V177.014H245.916V189.26ZM253.592 185.852C253.592 184.817 253.797 183.886 254.207 183.059C254.617 182.226 255.193 181.588 255.936 181.145C256.678 180.696 257.531 180.471 258.494 180.471C259.92 180.471 261.076 180.93 261.961 181.848C262.853 182.766 263.335 183.984 263.406 185.501L263.416 186.057C263.416 187.099 263.214 188.03 262.811 188.85C262.413 189.671 261.84 190.305 261.092 190.755C260.35 191.204 259.49 191.428 258.514 191.428C257.023 191.428 255.828 190.934 254.93 189.944C254.038 188.948 253.592 187.623 253.592 185.969V185.852ZM255.965 186.057C255.965 187.145 256.189 187.997 256.639 188.616C257.088 189.228 257.713 189.534 258.514 189.534C259.314 189.534 259.936 189.221 260.379 188.596C260.828 187.971 261.053 187.057 261.053 185.852C261.053 184.785 260.822 183.938 260.359 183.313C259.904 182.688 259.282 182.376 258.494 182.376C257.719 182.376 257.104 182.685 256.648 183.303C256.193 183.915 255.965 184.833 255.965 186.057ZM269.764 189.534C270.356 189.534 270.848 189.361 271.238 189.016C271.629 188.671 271.837 188.245 271.863 187.737H274.1C274.074 188.395 273.868 189.01 273.484 189.583C273.1 190.149 272.579 190.598 271.922 190.93C271.264 191.262 270.555 191.428 269.793 191.428C268.315 191.428 267.143 190.95 266.277 189.993C265.411 189.036 264.979 187.714 264.979 186.028V185.784C264.979 184.176 265.408 182.89 266.268 181.927C267.127 180.956 268.299 180.471 269.783 180.471C271.04 180.471 272.062 180.839 272.85 181.575C273.644 182.304 274.061 183.264 274.1 184.456H271.863C271.837 183.85 271.629 183.352 271.238 182.962C270.854 182.571 270.363 182.376 269.764 182.376C268.995 182.376 268.403 182.656 267.986 183.216C267.57 183.769 267.358 184.612 267.352 185.745V186.126C267.352 187.272 267.557 188.128 267.967 188.694C268.383 189.254 268.982 189.534 269.764 189.534ZM282.205 191.233C282.101 191.031 282.01 190.703 281.932 190.247C281.176 191.035 280.252 191.428 279.158 191.428C278.097 191.428 277.231 191.126 276.561 190.52C275.89 189.915 275.555 189.166 275.555 188.274C275.555 187.148 275.971 186.285 276.805 185.686C277.645 185.081 278.842 184.778 280.398 184.778H281.854V184.085C281.854 183.538 281.701 183.102 281.395 182.776C281.089 182.444 280.623 182.278 279.998 182.278C279.458 182.278 279.015 182.415 278.67 182.688C278.325 182.955 278.152 183.297 278.152 183.714H275.779C275.779 183.134 275.971 182.594 276.355 182.093C276.74 181.585 277.26 181.188 277.918 180.901C278.582 180.615 279.321 180.471 280.135 180.471C281.372 180.471 282.358 180.784 283.094 181.409C283.829 182.027 284.207 182.9 284.227 184.026V188.792C284.227 189.742 284.36 190.501 284.627 191.067V191.233H282.205ZM279.598 189.524C280.066 189.524 280.506 189.41 280.916 189.182C281.333 188.955 281.645 188.649 281.854 188.264V186.272H280.574C279.695 186.272 279.035 186.425 278.592 186.731C278.149 187.037 277.928 187.47 277.928 188.03C277.928 188.486 278.077 188.85 278.377 189.124C278.683 189.391 279.09 189.524 279.598 189.524ZM289.686 178.098V180.667H291.551V182.425H289.686V188.323C289.686 188.727 289.764 189.02 289.92 189.202C290.083 189.378 290.369 189.466 290.779 189.466C291.053 189.466 291.329 189.433 291.609 189.368V191.204C291.069 191.354 290.548 191.428 290.047 191.428C288.224 191.428 287.312 190.423 287.312 188.411V182.425H285.574V180.667H287.312V178.098H289.686ZM295.896 191.233H293.523V180.667H295.896V191.233ZM293.377 177.923C293.377 177.558 293.491 177.255 293.719 177.014C293.953 176.774 294.285 176.653 294.715 176.653C295.145 176.653 295.477 176.774 295.711 177.014C295.945 177.255 296.062 177.558 296.062 177.923C296.062 178.281 295.945 178.58 295.711 178.821C295.477 179.055 295.145 179.173 294.715 179.173C294.285 179.173 293.953 179.055 293.719 178.821C293.491 178.58 293.377 178.281 293.377 177.923ZM298.045 185.852C298.045 184.817 298.25 183.886 298.66 183.059C299.07 182.226 299.646 181.588 300.389 181.145C301.131 180.696 301.984 180.471 302.947 180.471C304.373 180.471 305.529 180.93 306.414 181.848C307.306 182.766 307.788 183.984 307.859 185.501L307.869 186.057C307.869 187.099 307.667 188.03 307.264 188.85C306.867 189.671 306.294 190.305 305.545 190.755C304.803 191.204 303.943 191.428 302.967 191.428C301.476 191.428 300.281 190.934 299.383 189.944C298.491 188.948 298.045 187.623 298.045 185.969V185.852ZM300.418 186.057C300.418 187.145 300.643 187.997 301.092 188.616C301.541 189.228 302.166 189.534 302.967 189.534C303.768 189.534 304.389 189.221 304.832 188.596C305.281 187.971 305.506 187.057 305.506 185.852C305.506 184.785 305.275 183.938 304.812 183.313C304.357 182.688 303.735 182.376 302.947 182.376C302.173 182.376 301.557 182.685 301.102 183.303C300.646 183.915 300.418 184.833 300.418 186.057ZM312.078 180.667L312.146 181.887C312.928 180.943 313.953 180.471 315.223 180.471C317.423 180.471 318.543 181.731 318.582 184.251V191.233H316.209V184.387C316.209 183.717 316.062 183.222 315.77 182.903C315.483 182.578 315.011 182.415 314.354 182.415C313.396 182.415 312.684 182.848 312.215 183.714V191.233H309.842V180.667H312.078Z" fill="#002248"/>
<path d="M337 184L341 188L345 184" stroke="#002248" stroke-width="2" stroke-linecap="round" stroke-linejoin="round"/>
<path d="M246.384 229.428C245.787 229.428 245.232 229.326 244.72 229.124C244.208 228.91 243.765 228.612 243.392 228.228C243.019 227.844 242.747 227.39 242.576 226.868L243.84 226.468C244.053 227.022 244.379 227.454 244.816 227.764C245.264 228.073 245.781 228.228 246.368 228.228C246.827 228.228 247.237 228.137 247.6 227.956C247.973 227.764 248.261 227.508 248.464 227.188C248.677 226.857 248.784 226.489 248.784 226.084C248.784 225.561 248.603 225.134 248.24 224.804C247.888 224.462 247.376 224.217 246.704 224.068L246 223.908C244.955 223.673 244.171 223.289 243.648 222.756C243.125 222.222 242.864 221.566 242.864 220.788C242.864 220.318 242.949 219.892 243.12 219.508C243.301 219.113 243.552 218.772 243.872 218.484C244.192 218.196 244.56 217.977 244.976 217.828C245.403 217.668 245.861 217.588 246.352 217.588C246.928 217.588 247.456 217.694 247.936 217.908C248.427 218.11 248.848 218.404 249.2 218.788C249.552 219.172 249.808 219.62 249.968 220.132L248.704 220.532C248.491 219.966 248.181 219.534 247.776 219.236C247.371 218.937 246.896 218.788 246.352 218.788C245.936 218.788 245.568 218.873 245.248 219.044C244.928 219.204 244.677 219.428 244.496 219.716C244.315 219.993 244.224 220.318 244.224 220.692C244.224 221.182 244.4 221.588 244.752 221.908C245.104 222.217 245.664 222.462 246.432 222.644L247.136 222.804C248.149 223.038 248.901 223.433 249.392 223.988C249.893 224.542 250.144 225.214 250.144 226.004C250.144 226.505 250.048 226.969 249.856 227.396C249.675 227.812 249.413 228.174 249.072 228.484C248.741 228.782 248.347 229.017 247.888 229.188C247.429 229.348 246.928 229.428 246.384 229.428ZM255.911 229.428C255.303 229.428 254.743 229.321 254.231 229.108C253.73 228.894 253.292 228.596 252.919 228.212C252.546 227.817 252.258 227.358 252.055 226.836C251.852 226.302 251.751 225.716 251.751 225.076C251.751 224.446 251.847 223.87 252.039 223.348C252.242 222.814 252.519 222.35 252.871 221.956C253.234 221.561 253.655 221.257 254.135 221.044C254.615 220.82 255.138 220.708 255.703 220.708C256.247 220.708 256.748 220.809 257.207 221.012C257.676 221.214 258.082 221.497 258.423 221.86C258.764 222.222 259.026 222.654 259.207 223.156C259.399 223.657 259.495 224.201 259.495 224.788V225.316H253.079C253.122 225.913 253.26 226.436 253.495 226.884C253.74 227.332 254.066 227.678 254.471 227.924C254.876 228.169 255.346 228.292 255.879 228.292C256.402 228.292 256.855 228.185 257.239 227.972C257.634 227.748 257.97 227.422 258.247 226.996L259.335 227.492C259.122 227.897 258.844 228.244 258.503 228.532C258.162 228.82 257.767 229.038 257.319 229.188C256.882 229.348 256.412 229.428 255.911 229.428ZM255.703 221.796C255.266 221.796 254.866 221.902 254.503 222.116C254.151 222.329 253.852 222.628 253.607 223.012C253.372 223.385 253.218 223.822 253.143 224.324H258.151C258.108 223.822 257.975 223.385 257.751 223.012C257.527 222.628 257.239 222.329 256.887 222.116C256.535 221.902 256.14 221.796 255.703 221.796ZM261.323 229.188V217.316H262.603V229.188H261.323ZM268.583 229.428C267.975 229.428 267.415 229.321 266.903 229.108C266.401 228.894 265.964 228.596 265.591 228.212C265.217 227.817 264.929 227.358 264.727 226.836C264.524 226.302 264.423 225.716 264.423 225.076C264.423 224.446 264.519 223.87 264.711 223.348C264.913 222.814 265.191 222.35 265.543 221.956C265.905 221.561 266.327 221.257 266.807 221.044C267.287 220.82 267.809 220.708 268.375 220.708C268.919 220.708 269.42 220.809 269.879 221.012C270.348 221.214 270.753 221.497 271.095 221.86C271.436 222.222 271.697 222.654 271.879 223.156C272.071 223.657 272.167 224.201 272.167 224.788V225.316H265.751C265.793 225.913 265.932 226.436 266.167 226.884C266.412 227.332 266.737 227.678 267.143 227.924C267.548 228.169 268.017 228.292 268.551 228.292C269.073 228.292 269.527 228.185 269.911 227.972C270.305 227.748 270.641 227.422 270.919 226.996L272.007 227.492C271.793 227.897 271.516 228.244 271.175 228.532C270.833 228.82 270.439 229.038 269.991 229.188C269.553 229.348 269.084 229.428 268.583 229.428ZM268.375 221.796C267.937 221.796 267.537 221.902 267.175 222.116C266.823 222.329 266.524 222.628 266.279 223.012C266.044 223.385 265.889 223.822 265.815 224.324H270.823C270.78 223.822 270.647 223.385 270.423 223.012C270.199 222.628 269.911 222.329 269.559 222.116C269.207 221.902 268.812 221.796 268.375 221.796ZM277.625 229.428C277.06 229.428 276.537 229.321 276.057 229.108C275.577 228.894 275.156 228.596 274.793 228.212C274.43 227.817 274.148 227.358 273.945 226.836C273.753 226.313 273.657 225.742 273.657 225.124C273.657 224.505 273.758 223.929 273.961 223.396C274.164 222.852 274.446 222.377 274.809 221.972C275.172 221.566 275.598 221.252 276.089 221.028C276.58 220.804 277.113 220.692 277.689 220.692C278.222 220.692 278.702 220.788 279.129 220.98C279.566 221.172 279.94 221.433 280.249 221.764C280.569 222.094 280.814 222.473 280.985 222.9L279.817 223.3C279.582 222.852 279.278 222.5 278.905 222.244C278.532 221.988 278.11 221.86 277.641 221.86C277.257 221.86 276.905 221.945 276.585 222.116C276.265 222.276 275.982 222.5 275.737 222.788C275.492 223.076 275.3 223.422 275.161 223.828C275.033 224.222 274.969 224.649 274.969 225.108C274.969 225.566 275.033 225.988 275.161 226.372C275.3 226.756 275.486 227.092 275.721 227.38C275.956 227.657 276.233 227.876 276.553 228.036C276.884 228.185 277.241 228.26 277.625 228.26C278.116 228.26 278.564 228.137 278.969 227.892C279.385 227.636 279.7 227.284 279.913 226.836L281.081 227.236C280.91 227.684 280.649 228.073 280.297 228.404C279.956 228.724 279.55 228.974 279.081 229.156C278.622 229.337 278.137 229.428 277.625 229.428ZM285.864 229.428C285.363 229.428 284.931 229.326 284.568 229.124C284.206 228.921 283.923 228.622 283.72 228.228C283.528 227.833 283.432 227.353 283.432 226.788V222.02H281.912V220.932H283.432V218.164H284.712V220.932H287.304V222.02H284.712V226.724C284.712 227.214 284.814 227.598 285.016 227.876C285.23 228.142 285.55 228.276 285.976 228.276C286.2 228.276 286.424 228.244 286.648 228.18C286.883 228.105 287.091 228.009 287.272 227.892L287.656 228.884C287.432 229.044 287.171 229.172 286.872 229.268C286.574 229.374 286.238 229.428 285.864 229.428Z" fill="#697687"/>
<path d="M474.26 191.233V185.633L469.28 177.033H472.04L475.52 183.393L478.98 177.033H481.68L476.7 185.633V191.233H474.26ZM486.35 191.533C485.59 191.533 484.883 191.4 484.23 191.133C483.59 190.853 483.03 190.466 482.55 189.973C482.07 189.466 481.697 188.88 481.43 188.213C481.163 187.533 481.03 186.793 481.03 185.993C481.03 185.206 481.163 184.48 481.43 183.813C481.697 183.133 482.07 182.546 482.55 182.053C483.043 181.546 483.617 181.16 484.27 180.893C484.937 180.613 485.657 180.473 486.43 180.473C487.19 180.473 487.89 180.613 488.53 180.893C489.183 181.16 489.75 181.546 490.23 182.053C490.71 182.546 491.083 183.126 491.35 183.793C491.617 184.46 491.75 185.193 491.75 185.993C491.75 186.793 491.617 187.533 491.35 188.213C491.083 188.88 490.703 189.466 490.21 189.973C489.73 190.466 489.157 190.853 488.49 191.133C487.837 191.4 487.123 191.533 486.35 191.533ZM486.39 189.453C486.963 189.453 487.477 189.306 487.93 189.013C488.383 188.706 488.737 188.293 488.99 187.773C489.257 187.253 489.39 186.66 489.39 185.993C489.39 185.326 489.257 184.74 488.99 184.233C488.737 183.713 488.383 183.306 487.93 183.013C487.477 182.706 486.963 182.553 486.39 182.553C485.817 182.553 485.303 182.706 484.85 183.013C484.397 183.306 484.037 183.713 483.77 184.233C483.517 184.74 483.39 185.326 483.39 185.993C483.39 186.66 483.517 187.253 483.77 187.773C484.037 188.293 484.397 188.706 484.85 189.013C485.303 189.306 485.817 189.453 486.39 189.453ZM498.375 191.533C497.442 191.533 496.628 191.333 495.935 190.933C495.255 190.533 494.722 189.966 494.335 189.233C493.962 188.486 493.775 187.613 493.775 186.613V180.773H496.075V186.653C496.075 187.52 496.282 188.206 496.695 188.713C497.108 189.206 497.675 189.453 498.395 189.453C499.115 189.453 499.682 189.206 500.095 188.713C500.508 188.206 500.715 187.52 500.715 186.653V180.773H503.015V186.613C503.015 187.6 502.822 188.466 502.435 189.213C502.062 189.946 501.528 190.52 500.835 190.933C500.142 191.333 499.322 191.533 498.375 191.533ZM505.494 191.233V180.773H507.594L507.694 182.493C507.961 181.906 508.327 181.453 508.794 181.133C509.274 180.8 509.834 180.633 510.474 180.633C510.674 180.633 510.867 180.646 511.054 180.673C511.241 180.7 511.407 180.746 511.554 180.813L511.294 183.053C511.147 183 510.994 182.966 510.834 182.953C510.674 182.926 510.514 182.913 510.354 182.913C509.554 182.913 508.927 183.18 508.474 183.713C508.021 184.246 507.794 184.986 507.794 185.933V191.233H505.494ZM524.126 191.633C523.126 191.633 522.199 191.453 521.346 191.093C520.506 190.72 519.772 190.2 519.146 189.533C518.532 188.866 518.052 188.086 517.706 187.193C517.359 186.286 517.186 185.3 517.186 184.233C517.186 183.38 517.299 182.573 517.526 181.813C517.752 181.04 518.072 180.34 518.486 179.713C518.912 179.073 519.412 178.526 519.986 178.073C520.559 177.606 521.192 177.253 521.886 177.013C522.592 176.76 523.339 176.633 524.126 176.633C525.046 176.633 525.899 176.8 526.686 177.133C527.486 177.453 528.172 177.913 528.746 178.513C529.332 179.1 529.772 179.8 530.066 180.613L527.726 181.273C527.379 180.513 526.886 179.926 526.246 179.513C525.619 179.086 524.906 178.873 524.106 178.873C523.479 178.873 522.899 179.006 522.366 179.273C521.832 179.54 521.366 179.913 520.966 180.393C520.566 180.873 520.252 181.44 520.026 182.093C519.812 182.746 519.706 183.453 519.706 184.213C519.706 184.973 519.812 185.673 520.026 186.313C520.252 186.94 520.559 187.486 520.946 187.953C521.346 188.406 521.812 188.76 522.346 189.013C522.892 189.266 523.492 189.393 524.146 189.393C524.972 189.393 525.699 189.186 526.326 188.773C526.966 188.36 527.479 187.766 527.866 186.993L530.206 187.653C529.899 188.466 529.452 189.173 528.866 189.773C528.279 190.373 527.579 190.833 526.766 191.153C525.952 191.473 525.072 191.633 524.126 191.633ZM535.452 191.533C534.918 191.533 534.425 191.453 533.972 191.293C533.532 191.133 533.145 190.906 532.812 190.613C532.478 190.32 532.218 189.973 532.032 189.573C531.845 189.173 531.752 188.733 531.752 188.253C531.752 187.586 531.925 187.006 532.272 186.513C532.632 186.006 533.132 185.613 533.772 185.333C534.412 185.053 535.158 184.913 536.012 184.913C536.478 184.913 536.925 184.96 537.352 185.053C537.778 185.133 538.185 185.253 538.572 185.413V184.753C538.572 184.286 538.485 183.88 538.312 183.533C538.138 183.173 537.892 182.893 537.572 182.693C537.252 182.493 536.865 182.393 536.412 182.393C535.932 182.393 535.498 182.52 535.112 182.773C534.725 183.026 534.438 183.38 534.252 183.833L532.132 183.353C532.292 182.766 532.578 182.26 532.992 181.833C533.418 181.406 533.925 181.073 534.512 180.833C535.112 180.593 535.758 180.473 536.452 180.473C537.105 180.473 537.698 180.58 538.232 180.793C538.778 181.006 539.245 181.306 539.632 181.693C540.018 182.08 540.318 182.54 540.532 183.073C540.745 183.606 540.852 184.2 540.852 184.853V191.233H538.752L538.672 189.853C538.392 190.36 537.972 190.766 537.412 191.073C536.852 191.38 536.198 191.533 535.452 191.533ZM534.072 188.153C534.072 188.446 534.152 188.713 534.312 188.953C534.472 189.18 534.692 189.36 534.972 189.493C535.265 189.626 535.605 189.693 535.992 189.693C536.485 189.693 536.925 189.586 537.312 189.373C537.698 189.16 538.005 188.873 538.232 188.513C538.458 188.14 538.572 187.72 538.572 187.253V187.013C538.225 186.866 537.865 186.753 537.492 186.673C537.132 186.58 536.758 186.533 536.372 186.533C535.678 186.533 535.118 186.68 534.692 186.973C534.278 187.266 534.072 187.66 534.072 188.153ZM547.314 191.533C546.261 191.533 545.434 191.233 544.834 190.633C544.234 190.02 543.934 189.146 543.934 188.013V182.633H542.094V180.773H543.934V177.233H546.234V180.773H549.274V182.633H546.234V187.773C546.234 188.333 546.347 188.766 546.574 189.073C546.814 189.366 547.161 189.513 547.614 189.513C547.854 189.513 548.114 189.48 548.394 189.413C548.674 189.333 548.934 189.226 549.174 189.093L549.694 190.833C549.387 191.046 549.027 191.213 548.614 191.333C548.214 191.466 547.781 191.533 547.314 191.533ZM556.174 191.533C555.401 191.533 554.688 191.4 554.034 191.133C553.394 190.853 552.834 190.466 552.354 189.973C551.874 189.48 551.501 188.9 551.234 188.233C550.981 187.553 550.854 186.806 550.854 185.993C550.854 185.206 550.981 184.48 551.234 183.813C551.501 183.146 551.861 182.566 552.314 182.073C552.781 181.566 553.328 181.173 553.954 180.893C554.581 180.613 555.261 180.473 555.994 180.473C556.728 180.473 557.394 180.606 557.994 180.873C558.608 181.126 559.134 181.493 559.574 181.973C560.028 182.453 560.374 183.026 560.614 183.693C560.854 184.346 560.974 185.073 560.974 185.873V186.553H553.234C553.301 187.166 553.461 187.7 553.714 188.153C553.981 188.593 554.321 188.933 554.734 189.173C555.148 189.413 555.628 189.533 556.174 189.533C557.268 189.533 558.121 189.046 558.734 188.073L560.754 188.853C560.514 189.4 560.161 189.88 559.694 190.293C559.241 190.693 558.708 191 558.094 191.213C557.494 191.426 556.854 191.533 556.174 191.533ZM555.994 182.333C555.528 182.333 555.108 182.44 554.734 182.653C554.374 182.866 554.068 183.166 553.814 183.553C553.561 183.94 553.388 184.393 553.294 184.913H558.574C558.494 184.393 558.341 183.94 558.114 183.553C557.888 183.166 557.588 182.866 557.214 182.653C556.854 182.44 556.448 182.333 555.994 182.333ZM567.393 191.033C566.713 191.033 566.08 190.9 565.493 190.633C564.906 190.366 564.393 190 563.953 189.533C563.513 189.053 563.173 188.5 562.933 187.873C562.693 187.233 562.573 186.54 562.573 185.793C562.573 185.046 562.693 184.353 562.933 183.713C563.186 183.06 563.54 182.493 563.993 182.013C564.446 181.533 564.973 181.16 565.573 180.893C566.173 180.613 566.82 180.473 567.513 180.473C568.233 180.473 568.886 180.633 569.473 180.953C570.073 181.26 570.553 181.693 570.913 182.253L570.993 180.773H573.093V190.133C573.093 190.933 572.966 191.66 572.713 192.313C572.46 192.98 572.1 193.546 571.633 194.013C571.166 194.493 570.606 194.86 569.953 195.113C569.313 195.366 568.593 195.493 567.793 195.493C566.726 195.493 565.793 195.253 564.993 194.773C564.193 194.293 563.566 193.626 563.113 192.773L565.293 192.013C565.586 192.493 565.953 192.853 566.393 193.093C566.833 193.346 567.326 193.473 567.873 193.473C568.46 193.473 568.973 193.34 569.413 193.073C569.853 192.82 570.193 192.453 570.433 191.973C570.673 191.506 570.793 190.953 570.793 190.313V189.313C570.42 189.846 569.94 190.266 569.353 190.573C568.766 190.88 568.113 191.033 567.393 191.033ZM567.873 188.953C568.433 188.953 568.933 188.813 569.373 188.533C569.826 188.253 570.18 187.873 570.433 187.393C570.7 186.913 570.833 186.366 570.833 185.753C570.833 185.14 570.7 184.593 570.433 184.113C570.18 183.633 569.826 183.253 569.373 182.973C568.933 182.693 568.433 182.553 567.873 182.553C567.313 182.553 566.813 182.693 566.373 182.973C565.933 183.253 565.58 183.633 565.313 184.113C565.06 184.593 564.933 185.14 564.933 185.753C564.933 186.366 565.06 186.913 565.313 187.393C565.58 187.873 565.933 188.253 566.373 188.533C566.813 188.813 567.313 188.953 567.873 188.953ZM580.432 191.533C579.672 191.533 578.965 191.4 578.312 191.133C577.672 190.853 577.112 190.466 576.632 189.973C576.152 189.466 575.779 188.88 575.512 188.213C575.245 187.533 575.112 186.793 575.112 185.993C575.112 185.206 575.245 184.48 575.512 183.813C575.779 183.133 576.152 182.546 576.632 182.053C577.125 181.546 577.699 181.16 578.352 180.893C579.019 180.613 579.739 180.473 580.512 180.473C581.272 180.473 581.972 180.613 582.612 180.893C583.265 181.16 583.832 181.546 584.312 182.053C584.792 182.546 585.165 183.126 585.432 183.793C585.699 184.46 585.832 185.193 585.832 185.993C585.832 186.793 585.699 187.533 585.432 188.213C585.165 188.88 584.785 189.466 584.292 189.973C583.812 190.466 583.239 190.853 582.572 191.133C581.919 191.4 581.205 191.533 580.432 191.533ZM580.472 189.453C581.045 189.453 581.559 189.306 582.012 189.013C582.465 188.706 582.819 188.293 583.072 187.773C583.339 187.253 583.472 186.66 583.472 185.993C583.472 185.326 583.339 184.74 583.072 184.233C582.819 183.713 582.465 183.306 582.012 183.013C581.559 182.706 581.045 182.553 580.472 182.553C579.899 182.553 579.385 182.706 578.932 183.013C578.479 183.306 578.119 183.713 577.852 184.233C577.599 184.74 577.472 185.326 577.472 185.993C577.472 186.66 577.599 187.253 577.852 187.773C578.119 188.293 578.479 188.706 578.932 189.013C579.385 189.306 579.899 189.453 580.472 189.453ZM587.857 191.233V180.773H589.957L590.057 182.493C590.324 181.906 590.691 181.453 591.157 181.133C591.637 180.8 592.197 180.633 592.837 180.633C593.037 180.633 593.231 180.646 593.417 180.673C593.604 180.7 593.771 180.746 593.917 180.813L593.657 183.053C593.511 183 593.357 182.966 593.197 182.953C593.037 182.926 592.877 182.913 592.717 182.913C591.917 182.913 591.291 183.18 590.837 183.713C590.384 184.246 590.157 184.986 590.157 185.933V191.233H587.857ZM597.285 195.393C596.951 195.393 596.638 195.36 596.345 195.293C596.065 195.226 595.791 195.12 595.525 194.973L596.025 193.153C596.171 193.22 596.338 193.273 596.525 193.313C596.711 193.366 596.891 193.393 597.065 193.393C597.465 193.393 597.811 193.28 598.105 193.053C598.411 192.826 598.665 192.46 598.865 191.953L599.185 191.133L594.925 180.773H597.445L600.265 188.593L602.825 180.773H605.265L600.825 192.493C600.438 193.493 599.951 194.226 599.365 194.693C598.791 195.16 598.098 195.393 597.285 195.393Z" fill="#002248"/>
<path d="M618 183L622 187L626 183" stroke="#002248" stroke-width="2" stroke-linecap="round" stroke-linejoin="round"/>
<path d="M473.384 229.428C472.787 229.428 472.232 229.326 471.72 229.124C471.208 228.91 470.765 228.612 470.392 228.228C470.019 227.844 469.747 227.39 469.576 226.868L470.84 226.468C471.053 227.022 471.379 227.454 471.816 227.764C472.264 228.073 472.781 228.228 473.368 228.228C473.827 228.228 474.237 228.137 474.6 227.956C474.973 227.764 475.261 227.508 475.464 227.188C475.677 226.857 475.784 226.489 475.784 226.084C475.784 225.561 475.603 225.134 475.24 224.804C474.888 224.462 474.376 224.217 473.704 224.068L473 223.908C471.955 223.673 471.171 223.289 470.648 222.756C470.125 222.222 469.864 221.566 469.864 220.788C469.864 220.318 469.949 219.892 470.12 219.508C470.301 219.113 470.552 218.772 470.872 218.484C471.192 218.196 471.56 217.977 471.976 217.828C472.403 217.668 472.861 217.588 473.352 217.588C473.928 217.588 474.456 217.694 474.936 217.908C475.427 218.11 475.848 218.404 476.2 218.788C476.552 219.172 476.808 219.62 476.968 220.132L475.704 220.532C475.491 219.966 475.181 219.534 474.776 219.236C474.371 218.937 473.896 218.788 473.352 218.788C472.936 218.788 472.568 218.873 472.248 219.044C471.928 219.204 471.677 219.428 471.496 219.716C471.315 219.993 471.224 220.318 471.224 220.692C471.224 221.182 471.4 221.588 471.752 221.908C472.104 222.217 472.664 222.462 473.432 222.644L474.136 222.804C475.149 223.038 475.901 223.433 476.392 223.988C476.893 224.542 477.144 225.214 477.144 226.004C477.144 226.505 477.048 226.969 476.856 227.396C476.675 227.812 476.413 228.174 476.072 228.484C475.741 228.782 475.347 229.017 474.888 229.188C474.429 229.348 473.928 229.428 473.384 229.428ZM482.911 229.428C482.303 229.428 481.743 229.321 481.231 229.108C480.73 228.894 480.292 228.596 479.919 228.212C479.546 227.817 479.258 227.358 479.055 226.836C478.852 226.302 478.751 225.716 478.751 225.076C478.751 224.446 478.847 223.87 479.039 223.348C479.242 222.814 479.519 222.35 479.871 221.956C480.234 221.561 480.655 221.257 481.135 221.044C481.615 220.82 482.138 220.708 482.703 220.708C483.247 220.708 483.748 220.809 484.207 221.012C484.676 221.214 485.082 221.497 485.423 221.86C485.764 222.222 486.026 222.654 486.207 223.156C486.399 223.657 486.495 224.201 486.495 224.788V225.316H480.079C480.122 225.913 480.26 226.436 480.495 226.884C480.74 227.332 481.066 227.678 481.471 227.924C481.876 228.169 482.346 228.292 482.879 228.292C483.402 228.292 483.855 228.185 484.239 227.972C484.634 227.748 484.97 227.422 485.247 226.996L486.335 227.492C486.122 227.897 485.844 228.244 485.503 228.532C485.162 228.82 484.767 229.038 484.319 229.188C483.882 229.348 483.412 229.428 482.911 229.428ZM482.703 221.796C482.266 221.796 481.866 221.902 481.503 222.116C481.151 222.329 480.852 222.628 480.607 223.012C480.372 223.385 480.218 223.822 480.143 224.324H485.151C485.108 223.822 484.975 223.385 484.751 223.012C484.527 222.628 484.239 222.329 483.887 222.116C483.535 221.902 483.14 221.796 482.703 221.796ZM488.323 229.188V217.316H489.603V229.188H488.323ZM495.583 229.428C494.975 229.428 494.415 229.321 493.903 229.108C493.401 228.894 492.964 228.596 492.591 228.212C492.217 227.817 491.929 227.358 491.727 226.836C491.524 226.302 491.423 225.716 491.423 225.076C491.423 224.446 491.519 223.87 491.711 223.348C491.913 222.814 492.191 222.35 492.543 221.956C492.905 221.561 493.327 221.257 493.807 221.044C494.287 220.82 494.809 220.708 495.375 220.708C495.919 220.708 496.42 220.809 496.879 221.012C497.348 221.214 497.753 221.497 498.095 221.86C498.436 222.222 498.697 222.654 498.879 223.156C499.071 223.657 499.167 224.201 499.167 224.788V225.316H492.751C492.793 225.913 492.932 226.436 493.167 226.884C493.412 227.332 493.737 227.678 494.143 227.924C494.548 228.169 495.017 228.292 495.551 228.292C496.073 228.292 496.527 228.185 496.911 227.972C497.305 227.748 497.641 227.422 497.919 226.996L499.007 227.492C498.793 227.897 498.516 228.244 498.175 228.532C497.833 228.82 497.439 229.038 496.991 229.188C496.553 229.348 496.084 229.428 495.583 229.428ZM495.375 221.796C494.937 221.796 494.537 221.902 494.175 222.116C493.823 222.329 493.524 222.628 493.279 223.012C493.044 223.385 492.889 223.822 492.815 224.324H497.823C497.78 223.822 497.647 223.385 497.423 223.012C497.199 222.628 496.911 222.329 496.559 222.116C496.207 221.902 495.812 221.796 495.375 221.796ZM504.625 229.428C504.06 229.428 503.537 229.321 503.057 229.108C502.577 228.894 502.156 228.596 501.793 228.212C501.43 227.817 501.148 227.358 500.945 226.836C500.753 226.313 500.657 225.742 500.657 225.124C500.657 224.505 500.758 223.929 500.961 223.396C501.164 222.852 501.446 222.377 501.809 221.972C502.172 221.566 502.598 221.252 503.089 221.028C503.58 220.804 504.113 220.692 504.689 220.692C505.222 220.692 505.702 220.788 506.129 220.98C506.566 221.172 506.94 221.433 507.249 221.764C507.569 222.094 507.814 222.473 507.985 222.9L506.817 223.3C506.582 222.852 506.278 222.5 505.905 222.244C505.532 221.988 505.11 221.86 504.641 221.86C504.257 221.86 503.905 221.945 503.585 222.116C503.265 222.276 502.982 222.5 502.737 222.788C502.492 223.076 502.3 223.422 502.161 223.828C502.033 224.222 501.969 224.649 501.969 225.108C501.969 225.566 502.033 225.988 502.161 226.372C502.3 226.756 502.486 227.092 502.721 227.38C502.956 227.657 503.233 227.876 503.553 228.036C503.884 228.185 504.241 228.26 504.625 228.26C505.116 228.26 505.564 228.137 505.969 227.892C506.385 227.636 506.7 227.284 506.913 226.836L508.081 227.236C507.91 227.684 507.649 228.073 507.297 228.404C506.956 228.724 506.55 228.974 506.081 229.156C505.622 229.337 505.137 229.428 504.625 229.428ZM512.864 229.428C512.363 229.428 511.931 229.326 511.568 229.124C511.206 228.921 510.923 228.622 510.72 228.228C510.528 227.833 510.432 227.353 510.432 226.788V222.02H508.912V220.932H510.432V218.164H511.712V220.932H514.304V222.02H511.712V226.724C511.712 227.214 511.814 227.598 512.016 227.876C512.23 228.142 512.55 228.276 512.976 228.276C513.2 228.276 513.424 228.244 513.648 228.18C513.883 228.105 514.091 228.009 514.272 227.892L514.656 228.884C514.432 229.044 514.171 229.172 513.872 229.268C513.574 229.374 513.238 229.428 512.864 229.428Z" fill="#697687"/>
<path d="M754.562 191.233V179.213H750.422V177.033H761.142V179.213H757.002V191.233H754.562ZM766.286 191.533C765.526 191.533 764.819 191.4 764.166 191.133C763.526 190.853 762.966 190.466 762.486 189.973C762.006 189.466 761.633 188.88 761.366 188.213C761.099 187.533 760.966 186.793 760.966 185.993C760.966 185.206 761.099 184.48 761.366 183.813C761.633 183.133 762.006 182.546 762.486 182.053C762.979 181.546 763.553 181.16 764.206 180.893C764.873 180.613 765.593 180.473 766.366 180.473C767.126 180.473 767.826 180.613 768.466 180.893C769.119 181.16 769.686 181.546 770.166 182.053C770.646 182.546 771.019 183.126 771.286 183.793C771.553 184.46 771.686 185.193 771.686 185.993C771.686 186.793 771.553 187.533 771.286 188.213C771.019 188.88 770.639 189.466 770.146 189.973C769.666 190.466 769.093 190.853 768.426 191.133C767.773 191.4 767.059 191.533 766.286 191.533ZM766.326 189.453C766.899 189.453 767.413 189.306 767.866 189.013C768.319 188.706 768.673 188.293 768.926 187.773C769.193 187.253 769.326 186.66 769.326 185.993C769.326 185.326 769.193 184.74 768.926 184.233C768.673 183.713 768.319 183.306 767.866 183.013C767.413 182.706 766.899 182.553 766.326 182.553C765.753 182.553 765.239 182.706 764.786 183.013C764.333 183.306 763.973 183.713 763.706 184.233C763.453 184.74 763.326 185.326 763.326 185.993C763.326 186.66 763.453 187.253 763.706 187.773C763.973 188.293 764.333 188.706 764.786 189.013C765.239 189.306 765.753 189.453 766.326 189.453ZM777.758 191.533C776.704 191.533 775.878 191.233 775.278 190.633C774.678 190.02 774.378 189.146 774.378 188.013V182.633H772.538V180.773H774.378V177.233H776.678V180.773H779.718V182.633H776.678V187.773C776.678 188.333 776.791 188.766 777.018 189.073C777.258 189.366 777.604 189.513 778.058 189.513C778.298 189.513 778.558 189.48 778.838 189.413C779.118 189.333 779.378 189.226 779.618 189.093L780.138 190.833C779.831 191.046 779.471 191.213 779.058 191.333C778.658 191.466 778.224 191.533 777.758 191.533ZM785.036 191.533C784.503 191.533 784.01 191.453 783.556 191.293C783.116 191.133 782.73 190.906 782.396 190.613C782.063 190.32 781.803 189.973 781.616 189.573C781.43 189.173 781.336 188.733 781.336 188.253C781.336 187.586 781.51 187.006 781.856 186.513C782.216 186.006 782.716 185.613 783.356 185.333C783.996 185.053 784.743 184.913 785.596 184.913C786.063 184.913 786.51 184.96 786.936 185.053C787.363 185.133 787.77 185.253 788.156 185.413V184.753C788.156 184.286 788.07 183.88 787.896 183.533C787.723 183.173 787.476 182.893 787.156 182.693C786.836 182.493 786.45 182.393 785.996 182.393C785.516 182.393 785.083 182.52 784.696 182.773C784.31 183.026 784.023 183.38 783.836 183.833L781.716 183.353C781.876 182.766 782.163 182.26 782.576 181.833C783.003 181.406 783.51 181.073 784.096 180.833C784.696 180.593 785.343 180.473 786.036 180.473C786.69 180.473 787.283 180.58 787.816 180.793C788.363 181.006 788.83 181.306 789.216 181.693C789.603 182.08 789.903 182.54 790.116 183.073C790.33 183.606 790.436 184.2 790.436 184.853V191.233H788.336L788.256 189.853C787.976 190.36 787.556 190.766 786.996 191.073C786.436 191.38 785.783 191.533 785.036 191.533ZM783.656 188.153C783.656 188.446 783.736 188.713 783.896 188.953C784.056 189.18 784.276 189.36 784.556 189.493C784.85 189.626 785.19 189.693 785.576 189.693C786.07 189.693 786.51 189.586 786.896 189.373C787.283 189.16 787.59 188.873 787.816 188.513C788.043 188.14 788.156 187.72 788.156 187.253V187.013C787.81 186.866 787.45 186.753 787.076 186.673C786.716 186.58 786.343 186.533 785.956 186.533C785.263 186.533 784.703 186.68 784.276 186.973C783.863 187.266 783.656 187.66 783.656 188.153ZM792.91 191.233V176.353H795.21V191.233H792.91ZM802.113 191.233V177.033H806.413C807.547 177.033 808.513 177.22 809.313 177.593C810.127 177.966 810.747 178.5 811.173 179.193C811.613 179.886 811.833 180.726 811.833 181.713C811.833 182.646 811.607 183.466 811.153 184.173C810.7 184.866 810.06 185.406 809.233 185.793C808.407 186.166 807.433 186.353 806.313 186.353C806.047 186.353 805.76 186.34 805.453 186.313C805.16 186.286 804.847 186.253 804.513 186.213V191.233H802.113ZM804.513 179.153V184.093C804.807 184.133 805.1 184.166 805.393 184.193C805.687 184.22 805.96 184.233 806.213 184.233C807.227 184.233 808 184.013 808.533 183.573C809.08 183.133 809.353 182.506 809.353 181.693C809.353 180.893 809.093 180.273 808.573 179.833C808.053 179.38 807.32 179.153 806.373 179.153H804.513ZM818.356 191.533C817.583 191.533 816.87 191.4 816.216 191.133C815.576 190.853 815.016 190.466 814.536 189.973C814.056 189.48 813.683 188.9 813.416 188.233C813.163 187.553 813.036 186.806 813.036 185.993C813.036 185.206 813.163 184.48 813.416 183.813C813.683 183.146 814.043 182.566 814.496 182.073C814.963 181.566 815.51 181.173 816.136 180.893C816.763 180.613 817.443 180.473 818.176 180.473C818.91 180.473 819.576 180.606 820.176 180.873C820.79 181.126 821.316 181.493 821.756 181.973C822.21 182.453 822.556 183.026 822.796 183.693C823.036 184.346 823.156 185.073 823.156 185.873V186.553H815.416C815.483 187.166 815.643 187.7 815.896 188.153C816.163 188.593 816.503 188.933 816.916 189.173C817.33 189.413 817.81 189.533 818.356 189.533C819.45 189.533 820.303 189.046 820.916 188.073L822.936 188.853C822.696 189.4 822.343 189.88 821.876 190.293C821.423 190.693 820.89 191 820.276 191.213C819.676 191.426 819.036 191.533 818.356 191.533ZM818.176 182.333C817.71 182.333 817.29 182.44 816.916 182.653C816.556 182.866 816.25 183.166 815.996 183.553C815.743 183.94 815.57 184.393 815.476 184.913H820.756C820.676 184.393 820.523 183.94 820.296 183.553C820.07 183.166 819.77 182.866 819.396 182.653C819.036 182.44 818.63 182.333 818.176 182.333ZM825.117 191.233V180.773H827.217L827.317 182.493C827.584 181.906 827.951 181.453 828.417 181.133C828.897 180.8 829.457 180.633 830.097 180.633C830.297 180.633 830.491 180.646 830.677 180.673C830.864 180.7 831.031 180.746 831.177 180.813L830.917 183.053C830.771 183 830.617 182.966 830.457 182.953C830.297 182.926 830.137 182.913 829.977 182.913C829.177 182.913 828.551 183.18 828.097 183.713C827.644 184.246 827.417 184.986 827.417 185.933V191.233H825.117ZM836.451 191.533C835.771 191.533 835.138 191.42 834.551 191.193C833.978 190.966 833.485 190.646 833.071 190.233C832.671 189.806 832.385 189.306 832.211 188.733L834.291 188.193C834.465 188.646 834.745 189 835.131 189.253C835.518 189.506 835.965 189.633 836.471 189.633C836.991 189.633 837.418 189.513 837.751 189.273C838.085 189.02 838.251 188.7 838.251 188.313C838.251 187.98 838.118 187.7 837.851 187.473C837.585 187.246 837.151 187.08 836.551 186.973L835.891 186.853C834.771 186.653 833.925 186.293 833.351 185.773C832.791 185.253 832.511 184.586 832.511 183.773C832.511 183.12 832.678 182.546 833.011 182.053C833.345 181.56 833.805 181.173 834.391 180.893C834.978 180.613 835.651 180.473 836.411 180.473C837.065 180.473 837.665 180.586 838.211 180.813C838.758 181.04 839.218 181.36 839.591 181.773C839.965 182.186 840.231 182.673 840.391 183.233L838.331 183.733C838.171 183.306 837.918 182.973 837.571 182.733C837.238 182.48 836.845 182.353 836.391 182.353C835.925 182.353 835.538 182.473 835.231 182.713C834.925 182.94 834.771 183.233 834.771 183.593C834.771 183.9 834.905 184.153 835.171 184.353C835.451 184.553 835.918 184.713 836.571 184.833L837.231 184.953C838.298 185.14 839.118 185.506 839.691 186.053C840.265 186.6 840.551 187.28 840.551 188.093C840.551 188.586 840.451 189.046 840.251 189.473C840.051 189.886 839.765 190.253 839.391 190.573C839.031 190.88 838.598 191.113 838.091 191.273C837.598 191.446 837.051 191.533 836.451 191.533ZM847.302 191.533C846.542 191.533 845.835 191.4 845.182 191.133C844.542 190.853 843.982 190.466 843.502 189.973C843.022 189.466 842.648 188.88 842.382 188.213C842.115 187.533 841.982 186.793 841.982 185.993C841.982 185.206 842.115 184.48 842.382 183.813C842.648 183.133 843.022 182.546 843.502 182.053C843.995 181.546 844.568 181.16 845.222 180.893C845.888 180.613 846.608 180.473 847.382 180.473C848.142 180.473 848.842 180.613 849.482 180.893C850.135 181.16 850.702 181.546 851.182 182.053C851.662 182.546 852.035 183.126 852.302 183.793C852.568 184.46 852.702 185.193 852.702 185.993C852.702 186.793 852.568 187.533 852.302 188.213C852.035 188.88 851.655 189.466 851.162 189.973C850.682 190.466 850.108 190.853 849.442 191.133C848.788 191.4 848.075 191.533 847.302 191.533ZM847.342 189.453C847.915 189.453 848.428 189.306 848.882 189.013C849.335 188.706 849.688 188.293 849.942 187.773C850.208 187.253 850.342 186.66 850.342 185.993C850.342 185.326 850.208 184.74 849.942 184.233C849.688 183.713 849.335 183.306 848.882 183.013C848.428 182.706 847.915 182.553 847.342 182.553C846.768 182.553 846.255 182.706 845.802 183.013C845.348 183.306 844.988 183.713 844.722 184.233C844.468 184.74 844.342 185.326 844.342 185.993C844.342 186.66 844.468 187.253 844.722 187.773C844.988 188.293 845.348 188.706 845.802 189.013C846.255 189.306 846.768 189.453 847.342 189.453ZM854.727 191.233V180.773H856.827L856.907 182.213C857.213 181.68 857.64 181.26 858.187 180.953C858.747 180.633 859.387 180.473 860.107 180.473C860.893 180.473 861.573 180.66 862.147 181.033C862.733 181.406 863.187 181.933 863.507 182.613C863.827 183.293 863.987 184.093 863.987 185.013V191.233H861.687V185.273C861.687 184.42 861.493 183.753 861.107 183.273C860.733 182.793 860.207 182.553 859.527 182.553C859.047 182.553 858.613 182.666 858.227 182.893C857.853 183.12 857.56 183.426 857.347 183.813C857.133 184.2 857.027 184.646 857.027 185.153V191.233H854.727Z" fill="#002248"/>
<path d="M883 184L887 188L891 184" stroke="#002248" stroke-width="2" stroke-linecap="round" stroke-linejoin="round"/>
<path d="M753.926 229.428C753.328 229.428 752.774 229.326 752.262 229.124C751.75 228.91 751.307 228.612 750.934 228.228C750.56 227.844 750.288 227.39 750.118 226.868L751.382 226.468C751.595 227.022 751.92 227.454 752.358 227.764C752.806 228.073 753.323 228.228 753.91 228.228C754.368 228.228 754.779 228.137 755.142 227.956C755.515 227.764 755.803 227.508 756.006 227.188C756.219 226.857 756.326 226.489 756.326 226.084C756.326 225.561 756.144 225.134 755.782 224.804C755.43 224.462 754.918 224.217 754.246 224.068L753.542 223.908C752.496 223.673 751.712 223.289 751.19 222.756C750.667 222.222 750.406 221.566 750.406 220.788C750.406 220.318 750.491 219.892 750.662 219.508C750.843 219.113 751.094 218.772 751.414 218.484C751.734 218.196 752.102 217.977 752.518 217.828C752.944 217.668 753.403 217.588 753.894 217.588C754.47 217.588 754.998 217.694 755.478 217.908C755.968 218.11 756.39 218.404 756.742 218.788C757.094 219.172 757.35 219.62 757.51 220.132L756.246 220.532C756.032 219.966 755.723 219.534 755.318 219.236C754.912 218.937 754.438 218.788 753.894 218.788C753.478 218.788 753.11 218.873 752.79 219.044C752.47 219.204 752.219 219.428 752.038 219.716C751.856 219.993 751.766 220.318 751.766 220.692C751.766 221.182 751.942 221.588 752.294 221.908C752.646 222.217 753.206 222.462 753.974 222.644L754.678 222.804C755.691 223.038 756.443 223.433 756.934 223.988C757.435 224.542 757.686 225.214 757.686 226.004C757.686 226.505 757.59 226.969 757.398 227.396C757.216 227.812 756.955 228.174 756.614 228.484C756.283 228.782 755.888 229.017 755.43 229.188C754.971 229.348 754.47 229.428 753.926 229.428ZM763.452 229.428C762.844 229.428 762.284 229.321 761.772 229.108C761.271 228.894 760.834 228.596 760.46 228.212C760.087 227.817 759.799 227.358 759.596 226.836C759.394 226.302 759.292 225.716 759.292 225.076C759.292 224.446 759.388 223.87 759.58 223.348C759.783 222.814 760.06 222.35 760.412 221.956C760.775 221.561 761.196 221.257 761.676 221.044C762.156 220.82 762.679 220.708 763.244 220.708C763.788 220.708 764.29 220.809 764.748 221.012C765.218 221.214 765.623 221.497 765.964 221.86C766.306 222.222 766.567 222.654 766.748 223.156C766.94 223.657 767.036 224.201 767.036 224.788V225.316H760.62C760.663 225.913 760.802 226.436 761.036 226.884C761.282 227.332 761.607 227.678 762.012 227.924C762.418 228.169 762.887 228.292 763.42 228.292C763.943 228.292 764.396 228.185 764.78 227.972C765.175 227.748 765.511 227.422 765.788 226.996L766.876 227.492C766.663 227.897 766.386 228.244 766.044 228.532C765.703 228.82 765.308 229.038 764.86 229.188C764.423 229.348 763.954 229.428 763.452 229.428ZM763.244 221.796C762.807 221.796 762.407 221.902 762.044 222.116C761.692 222.329 761.394 222.628 761.148 223.012C760.914 223.385 760.759 223.822 760.684 224.324H765.692C765.65 223.822 765.516 223.385 765.292 223.012C765.068 222.628 764.78 222.329 764.428 222.116C764.076 221.902 763.682 221.796 763.244 221.796ZM768.865 229.188V217.316H770.145V229.188H768.865ZM776.124 229.428C775.516 229.428 774.956 229.321 774.444 229.108C773.943 228.894 773.506 228.596 773.132 228.212C772.759 227.817 772.471 227.358 772.268 226.836C772.066 226.302 771.964 225.716 771.964 225.076C771.964 224.446 772.06 223.87 772.252 223.348C772.455 222.814 772.732 222.35 773.084 221.956C773.447 221.561 773.868 221.257 774.348 221.044C774.828 220.82 775.351 220.708 775.916 220.708C776.46 220.708 776.962 220.809 777.42 221.012C777.89 221.214 778.295 221.497 778.636 221.86C778.978 222.222 779.239 222.654 779.42 223.156C779.612 223.657 779.708 224.201 779.708 224.788V225.316H773.292C773.335 225.913 773.474 226.436 773.708 226.884C773.954 227.332 774.279 227.678 774.684 227.924C775.09 228.169 775.559 228.292 776.092 228.292C776.615 228.292 777.068 228.185 777.452 227.972C777.847 227.748 778.183 227.422 778.46 226.996L779.548 227.492C779.335 227.897 779.058 228.244 778.716 228.532C778.375 228.82 777.98 229.038 777.532 229.188C777.095 229.348 776.626 229.428 776.124 229.428ZM775.916 221.796C775.479 221.796 775.079 221.902 774.716 222.116C774.364 222.329 774.066 222.628 773.82 223.012C773.586 223.385 773.431 223.822 773.356 224.324H778.364C778.322 223.822 778.188 223.385 777.964 223.012C777.74 222.628 777.452 222.329 777.1 222.116C776.748 221.902 776.354 221.796 775.916 221.796ZM785.167 229.428C784.601 229.428 784.079 229.321 783.599 229.108C783.119 228.894 782.697 228.596 782.335 228.212C781.972 227.817 781.689 227.358 781.487 226.836C781.295 226.313 781.199 225.742 781.199 225.124C781.199 224.505 781.3 223.929 781.503 223.396C781.705 222.852 781.988 222.377 782.351 221.972C782.713 221.566 783.14 221.252 783.631 221.028C784.121 220.804 784.655 220.692 785.231 220.692C785.764 220.692 786.244 220.788 786.671 220.98C787.108 221.172 787.481 221.433 787.791 221.764C788.111 222.094 788.356 222.473 788.527 222.9L787.359 223.3C787.124 222.852 786.82 222.5 786.447 222.244C786.073 221.988 785.652 221.86 785.183 221.86C784.799 221.86 784.447 221.945 784.127 222.116C783.807 222.276 783.524 222.5 783.279 222.788C783.033 223.076 782.841 223.422 782.703 223.828C782.575 224.222 782.511 224.649 782.511 225.108C782.511 225.566 782.575 225.988 782.703 226.372C782.841 226.756 783.028 227.092 783.263 227.38C783.497 227.657 783.775 227.876 784.095 228.036C784.425 228.185 784.783 228.26 785.167 228.26C785.657 228.26 786.105 228.137 786.511 227.892C786.927 227.636 787.241 227.284 787.455 226.836L788.623 227.236C788.452 227.684 788.191 228.073 787.839 228.404C787.497 228.724 787.092 228.974 786.623 229.156C786.164 229.337 785.679 229.428 785.167 229.428ZM793.406 229.428C792.904 229.428 792.472 229.326 792.11 229.124C791.747 228.921 791.464 228.622 791.262 228.228C791.07 227.833 790.974 227.353 790.974 226.788V222.02H789.454V220.932H790.974V218.164H792.254V220.932H794.846V222.02H792.254V226.724C792.254 227.214 792.355 227.598 792.558 227.876C792.771 228.142 793.091 228.276 793.518 228.276C793.742 228.276 793.966 228.244 794.19 228.18C794.424 228.105 794.632 228.009 794.814 227.892L795.198 228.884C794.974 229.044 794.712 229.172 794.414 229.268C794.115 229.374 793.779 229.428 793.406 229.428Z" fill="#697687"/>
<path d="M1002.52 228V215.22H1007.17C1008.03 215.22 1008.78 215.358 1009.4 215.634C1010.04 215.898 1010.52 216.282 1010.86 216.786C1011.21 217.278 1011.38 217.86 1011.38 218.532C1011.38 219.144 1011.25 219.684 1010.98 220.152C1010.72 220.608 1010.35 220.968 1009.87 221.232C1010.52 221.484 1011.02 221.886 1011.38 222.438C1011.74 222.978 1011.92 223.62 1011.92 224.364C1011.92 225.108 1011.73 225.75 1011.34 226.29C1010.96 226.83 1010.42 227.25 1009.72 227.55C1009.03 227.85 1008.21 228 1007.26 228H1002.52ZM1005.12 217.434V220.368H1006.88C1007.47 220.368 1007.92 220.248 1008.23 220.008C1008.55 219.756 1008.72 219.39 1008.72 218.91C1008.72 218.43 1008.55 218.064 1008.23 217.812C1007.92 217.56 1007.47 217.434 1006.88 217.434H1005.12ZM1005.12 225.786H1007.13C1007.8 225.786 1008.32 225.642 1008.68 225.354C1009.05 225.066 1009.24 224.652 1009.24 224.112C1009.24 223.572 1009.05 223.158 1008.68 222.87C1008.32 222.582 1007.8 222.438 1007.13 222.438H1005.12V225.786ZM1018.2 228.27C1017.49 228.27 1016.84 228.144 1016.24 227.892C1015.64 227.64 1015.12 227.292 1014.67 226.848C1014.23 226.392 1013.88 225.858 1013.63 225.246C1013.39 224.634 1013.27 223.968 1013.27 223.248C1013.27 222.528 1013.4 221.868 1013.65 221.268C1013.9 220.656 1014.25 220.122 1014.69 219.666C1015.15 219.21 1015.68 218.856 1016.28 218.604C1016.89 218.352 1017.55 218.226 1018.27 218.226C1018.98 218.226 1019.64 218.352 1020.24 218.604C1020.84 218.856 1021.36 219.21 1021.8 219.666C1022.25 220.11 1022.59 220.638 1022.83 221.25C1023.08 221.85 1023.21 222.51 1023.21 223.23C1023.21 223.95 1023.08 224.616 1022.83 225.228C1022.58 225.84 1022.22 226.374 1021.77 226.83C1021.32 227.286 1020.79 227.64 1020.18 227.892C1019.58 228.144 1018.92 228.27 1018.2 228.27ZM1018.24 226.002C1018.69 226.002 1019.1 225.882 1019.46 225.642C1019.82 225.402 1020.1 225.078 1020.31 224.67C1020.52 224.25 1020.63 223.776 1020.63 223.248C1020.63 222.72 1020.52 222.252 1020.31 221.844C1020.1 221.424 1019.82 221.094 1019.46 220.854C1019.1 220.614 1018.69 220.494 1018.24 220.494C1017.78 220.494 1017.37 220.614 1017.01 220.854C1016.65 221.094 1016.37 221.424 1016.15 221.844C1015.95 222.252 1015.84 222.72 1015.84 223.248C1015.84 223.776 1015.95 224.25 1016.15 224.67C1016.37 225.078 1016.65 225.402 1017.01 225.642C1017.37 225.882 1017.78 226.002 1018.24 226.002ZM1029.52 228.27C1028.81 228.27 1028.16 228.144 1027.56 227.892C1026.96 227.64 1026.44 227.292 1025.99 226.848C1025.55 226.392 1025.2 225.858 1024.95 225.246C1024.71 224.634 1024.59 223.968 1024.59 223.248C1024.59 222.528 1024.72 221.868 1024.97 221.268C1025.22 220.656 1025.57 220.122 1026.01 219.666C1026.47 219.21 1027 218.856 1027.6 218.604C1028.21 218.352 1028.87 218.226 1029.59 218.226C1030.3 218.226 1030.96 218.352 1031.56 218.604C1032.16 218.856 1032.68 219.21 1033.12 219.666C1033.57 220.11 1033.91 220.638 1034.15 221.25C1034.4 221.85 1034.53 222.51 1034.53 223.23C1034.53 223.95 1034.4 224.616 1034.15 225.228C1033.9 225.84 1033.54 226.374 1033.09 226.83C1032.64 227.286 1032.11 227.64 1031.5 227.892C1030.9 228.144 1030.24 228.27 1029.52 228.27ZM1029.56 226.002C1030.01 226.002 1030.42 225.882 1030.78 225.642C1031.14 225.402 1031.42 225.078 1031.63 224.67C1031.84 224.25 1031.95 223.776 1031.95 223.248C1031.95 222.72 1031.84 222.252 1031.63 221.844C1031.42 221.424 1031.14 221.094 1030.78 220.854C1030.42 220.614 1030.01 220.494 1029.56 220.494C1029.1 220.494 1028.69 220.614 1028.33 220.854C1027.97 221.094 1027.69 221.424 1027.47 221.844C1027.27 222.252 1027.16 222.72 1027.16 223.248C1027.16 223.776 1027.27 224.25 1027.47 224.67C1027.69 225.078 1027.97 225.402 1028.33 225.642C1028.69 225.882 1029.1 226.002 1029.56 226.002ZM1036.18 228V214.572H1038.65V222.366L1042.18 218.496H1045.13L1041.17 222.708L1045.56 228H1042.37L1038.65 223.266V228H1036.18ZM1050.56 228V215.22H1052.89L1058.81 223.68V215.22H1061.4V228H1059.08L1053.16 219.54V228H1050.56ZM1068.16 228.27C1067.45 228.27 1066.8 228.144 1066.2 227.892C1065.6 227.64 1065.07 227.292 1064.63 226.848C1064.19 226.392 1063.84 225.858 1063.59 225.246C1063.35 224.634 1063.23 223.968 1063.23 223.248C1063.23 222.528 1063.35 221.868 1063.6 221.268C1063.86 220.656 1064.2 220.122 1064.65 219.666C1065.1 219.21 1065.63 218.856 1066.23 218.604C1066.84 218.352 1067.51 218.226 1068.23 218.226C1068.94 218.226 1069.59 218.352 1070.19 218.604C1070.79 218.856 1071.31 219.21 1071.76 219.666C1072.2 220.11 1072.54 220.638 1072.78 221.25C1073.04 221.85 1073.16 222.51 1073.16 223.23C1073.16 223.95 1073.04 224.616 1072.78 225.228C1072.53 225.84 1072.18 226.374 1071.72 226.83C1071.28 227.286 1070.75 227.64 1070.14 227.892C1069.54 228.144 1068.88 228.27 1068.16 228.27ZM1068.19 226.002C1068.65 226.002 1069.06 225.882 1069.42 225.642C1069.78 225.402 1070.06 225.078 1070.26 224.67C1070.48 224.25 1070.59 223.776 1070.59 223.248C1070.59 222.72 1070.48 222.252 1070.26 221.844C1070.06 221.424 1069.78 221.094 1069.42 220.854C1069.06 220.614 1068.65 220.494 1068.19 220.494C1067.74 220.494 1067.33 220.614 1066.97 220.854C1066.61 221.094 1066.32 221.424 1066.11 221.844C1065.9 222.252 1065.8 222.72 1065.8 223.248C1065.8 223.776 1065.9 224.25 1066.11 224.67C1066.32 225.078 1066.61 225.402 1066.97 225.642C1067.33 225.882 1067.74 226.002 1068.19 226.002ZM1076.88 228L1073.73 218.496H1076.32L1078.1 224.922L1080.03 218.496H1082.21L1084.13 224.94L1085.95 218.496H1088.45L1085.3 228H1082.98L1081.07 221.574L1079.16 228H1076.88Z" fill="white"/>
<path d="M1053.2 173.037C1052.24 172.699 1051.44 171.889 1051.44 170.867C1051.44 170.393 1051.03 170 1050.54 170C1050.05 170 1049.64 170.393 1049.64 170.867C1049.64 171.826 1048.87 172.602 1047.91 172.602H1043.61C1042.65 172.602 1041.87 171.826 1041.87 170.867C1041.87 170.393 1041.47 170 1040.98 170C1040.49 170 1040.08 170.393 1040.08 170.867C1040.08 171.889 1039.28 172.699 1038.32 173.037C1036.27 173.754 1035.24 175.384 1035.05 177.588C1035.02 177.923 1035.31 178.201 1035.65 178.201H1055.87C1056.22 178.201 1056.51 177.911 1056.47 177.588C1056.28 175.384 1055.25 173.754 1053.2 173.037Z" fill="white"/>
<path d="M1055.32 179.935H1036.2C1035.54 179.935 1035 180.456 1035 181.092V188.217C1035 191.687 1036.79 194 1040.98 194H1050.54C1054.72 194 1056.52 191.687 1056.52 188.217V181.092C1056.52 180.456 1055.98 179.935 1055.32 179.935ZM1042.42 189.616C1042.36 189.663 1042.3 189.72 1042.24 189.755C1042.17 189.801 1042.1 189.836 1042.03 189.859C1041.96 189.894 1041.89 189.917 1041.81 189.929C1041.73 189.94 1041.66 189.952 1041.57 189.952C1041.42 189.952 1041.26 189.917 1041.12 189.859C1040.97 189.801 1040.85 189.72 1040.73 189.616C1040.51 189.397 1040.38 189.096 1040.38 188.795C1040.38 188.494 1040.51 188.194 1040.73 187.974C1040.85 187.87 1040.97 187.789 1041.12 187.731C1041.34 187.639 1041.57 187.615 1041.81 187.662C1041.89 187.673 1041.96 187.696 1042.03 187.731C1042.1 187.754 1042.17 187.789 1042.24 187.835C1042.3 187.881 1042.36 187.928 1042.42 187.974C1042.64 188.194 1042.77 188.494 1042.77 188.795C1042.77 189.096 1042.64 189.397 1042.42 189.616ZM1042.42 185.568C1042.2 185.776 1041.89 185.904 1041.57 185.904C1041.26 185.904 1040.95 185.776 1040.73 185.568C1040.51 185.348 1040.38 185.048 1040.38 184.747C1040.38 184.446 1040.51 184.145 1040.73 183.926C1041.06 183.602 1041.59 183.498 1042.03 183.683C1042.18 183.741 1042.32 183.822 1042.42 183.926C1042.64 184.145 1042.77 184.446 1042.77 184.747C1042.77 185.048 1042.64 185.348 1042.42 185.568ZM1046.61 189.616C1046.38 189.825 1046.07 189.952 1045.76 189.952C1045.45 189.952 1045.14 189.825 1044.91 189.616C1044.69 189.397 1044.56 189.096 1044.56 188.795C1044.56 188.494 1044.69 188.194 1044.91 187.974C1045.35 187.546 1046.17 187.546 1046.61 187.974C1046.82 188.194 1046.95 188.494 1046.95 188.795C1046.95 189.096 1046.82 189.397 1046.61 189.616ZM1046.61 185.568C1046.55 185.614 1046.49 185.661 1046.43 185.707C1046.36 185.753 1046.28 185.788 1046.21 185.811C1046.14 185.846 1046.07 185.869 1046 185.88C1045.91 185.892 1045.84 185.904 1045.76 185.904C1045.45 185.904 1045.14 185.776 1044.91 185.568C1044.69 185.348 1044.56 185.048 1044.56 184.747C1044.56 184.446 1044.69 184.145 1044.91 183.926C1045.02 183.822 1045.15 183.741 1045.3 183.683C1045.75 183.498 1046.27 183.602 1046.61 183.926C1046.82 184.145 1046.95 184.446 1046.95 184.747C1046.95 185.048 1046.82 185.348 1046.61 185.568ZM1050.79 189.616C1050.56 189.825 1050.25 189.952 1049.94 189.952C1049.63 189.952 1049.32 189.825 1049.09 189.616C1048.88 189.397 1048.75 189.096 1048.75 188.795C1048.75 188.494 1048.88 188.194 1049.09 187.974C1049.54 187.546 1050.35 187.546 1050.79 187.974C1051.01 188.194 1051.14 188.494 1051.14 188.795C1051.14 189.096 1051.01 189.397 1050.79 189.616ZM1050.79 185.568C1050.73 185.614 1050.67 185.661 1050.61 185.707C1050.54 185.753 1050.47 185.788 1050.4 185.811C1050.33 185.846 1050.25 185.869 1050.18 185.88C1050.1 185.892 1050.01 185.904 1049.94 185.904C1049.63 185.904 1049.32 185.776 1049.09 185.568C1048.88 185.348 1048.75 185.048 1048.75 184.747C1048.75 184.446 1048.88 184.145 1049.09 183.926C1049.21 183.822 1049.33 183.741 1049.49 183.683C1049.7 183.59 1049.94 183.567 1050.18 183.613C1050.25 183.625 1050.33 183.648 1050.4 183.683C1050.47 183.706 1050.54 183.741 1050.61 183.787C1050.67 183.833 1050.73 183.879 1050.79 183.926C1051.01 184.145 1051.14 184.446 1051.14 184.747C1051.14 185.048 1051.01 185.348 1050.79 185.568Z" fill="white"/>
<defs>
<filter id="filter0_d_1_286" x="0" y="0" width="1320" height="484" filterUnits="userSpaceOnUse" color-interpolation-filters="sRGB">
<feFlood flood-opacity="0" result="BackgroundImageFix"/>
<feColorMatrix in="SourceAlpha" type="matrix" values="0 0 0 0 0 0 0 0 0 0 0 0 0 0 0 0 0 0 127 0" result="hardAlpha"/>
<feOffset dy="40"/>
<feGaussianBlur stdDeviation="85"/>
<feComposite in2="hardAlpha" operator="out"/>
<feColorMatrix type="matrix" values="0 0 0 0 0 0 0 0 0 0.133333 0 0 0 0 0.282353 0 0 0 0.07 0"/>
<feBlend mode="normal" in2="BackgroundImageFix" result="effect1_dropShadow_1_286"/>
<feBlend mode="normal" in="SourceGraphic" in2="effect1_dropShadow_1_286" result="shape"/>
</filter>
<filter id="filter1_d_1_286" x="899" y="101" width="308" height="241.84" filterUnits="userSpaceOnUse" color-interpolation-filters="sRGB">
<feFlood flood-opacity="0" result="BackgroundImageFix"/>
<feColorMatrix in="SourceAlpha" type="matrix" values="0 0 0 0 0 0 0 0 0 0 0 0 0 0 0 0 0 0 127 0" result="hardAlpha"/>
<feMorphology radius="10" operator="dilate" in="SourceAlpha" result="effect1_dropShadow_1_286"/>
<feOffset dx="8" dy="20"/>
<feGaussianBlur stdDeviation="19.5"/>
<feComposite in2="hardAlpha" operator="out"/>
<feColorMatrix type="matrix" values="0 0 0 0 0 0 0 0 0 0 0 0 0 0 0 0 0 0 0.04 0"/>
<feBlend mode="normal" in2="BackgroundImageFix" result="effect1_dropShadow_1_286"/>
<feBlend mode="normal" in="SourceGraphic" in2="effect1_dropShadow_1_286" result="shape"/>
</filter>
</defs>
</svg>
