<svg width="120" height="50" viewBox="0 0 120 50" fill="none" xmlns="http://www.w3.org/2000/svg">
<rect width="120" height="50" rx="10" fill="#3685FB"/>
<path d="M30.2919 31V19.64H33.7159C34.6225 19.64 35.4012 19.784 36.0519 20.072C36.7132 20.36 37.2199 20.7707 37.5719 21.304C37.9239 21.8373 38.0999 22.472 38.0999 23.208C38.0999 23.6667 38.0145 24.0987 37.8439 24.504C37.6839 24.8987 37.4492 25.256 37.1399 25.576C36.8412 25.896 36.4785 26.1573 36.0519 26.36L38.6919 31H36.5319L34.3399 26.872C34.2225 26.8827 34.0892 26.8933 33.9399 26.904C33.8012 26.904 33.6572 26.904 33.5079 26.904C33.1345 26.904 32.7025 26.8667 32.2119 26.792V31H30.2919ZM32.2119 21.336V25.096C32.4359 25.1387 32.6652 25.1707 32.8999 25.192C33.1452 25.2027 33.3852 25.208 33.6199 25.208C34.4092 25.208 35.0225 25.0373 35.4599 24.696C35.8972 24.3547 36.1159 23.88 36.1159 23.272C36.1159 22.664 35.9025 22.1893 35.4759 21.848C35.0492 21.5067 34.4519 21.336 33.6839 21.336H32.2119ZM43.755 31.24C43.1363 31.24 42.5657 31.1333 42.043 30.92C41.531 30.696 41.083 30.3867 40.699 29.992C40.315 29.5973 40.0163 29.1333 39.803 28.6C39.6003 28.056 39.499 27.4587 39.499 26.808C39.499 26.1787 39.6003 25.5973 39.803 25.064C40.0163 24.5307 40.3043 24.0667 40.667 23.672C41.0403 23.2667 41.4777 22.952 41.979 22.728C42.4803 22.504 43.0243 22.392 43.611 22.392C44.1977 22.392 44.731 22.4987 45.211 22.712C45.7017 22.9147 46.123 23.208 46.475 23.592C46.8377 23.976 47.115 24.4347 47.307 24.968C47.499 25.4907 47.595 26.072 47.595 26.712V27.256H41.403C41.4563 27.7467 41.5843 28.1733 41.787 28.536C42.0003 28.888 42.2723 29.16 42.603 29.352C42.9337 29.544 43.3177 29.64 43.755 29.64C44.6297 29.64 45.3123 29.2507 45.803 28.472L47.419 29.096C47.227 29.5333 46.9443 29.9173 46.571 30.248C46.2083 30.568 45.7817 30.8133 45.291 30.984C44.811 31.1547 44.299 31.24 43.755 31.24ZM43.611 23.88C43.2377 23.88 42.9017 23.9653 42.603 24.136C42.315 24.3067 42.0697 24.5467 41.867 24.856C41.6643 25.1653 41.5257 25.528 41.451 25.944H45.675C45.611 25.528 45.4883 25.1653 45.307 24.856C45.1257 24.5467 44.8857 24.3067 44.587 24.136C44.299 23.9653 43.9737 23.88 43.611 23.88ZM52.73 30.84C52.186 30.84 51.6793 30.7333 51.21 30.52C50.7407 30.3067 50.33 30.0133 49.978 29.64C49.626 29.256 49.354 28.8133 49.162 28.312C48.97 27.8 48.874 27.2453 48.874 26.648C48.874 26.0507 48.97 25.496 49.162 24.984C49.3647 24.4613 49.6473 24.008 50.01 23.624C50.3727 23.24 50.794 22.9413 51.274 22.728C51.754 22.504 52.2713 22.392 52.826 22.392C53.402 22.392 53.9247 22.52 54.394 22.776C54.874 23.0213 55.258 23.368 55.546 23.816L55.61 22.632H57.29V30.12C57.29 30.76 57.1887 31.3413 56.986 31.864C56.7833 32.3973 56.4953 32.8507 56.122 33.224C55.7487 33.608 55.3007 33.9013 54.778 34.104C54.266 34.3067 53.69 34.408 53.05 34.408C52.1967 34.408 51.45 34.216 50.81 33.832C50.17 33.448 49.6687 32.9147 49.306 32.232L51.05 31.624C51.2847 32.008 51.578 32.296 51.93 32.488C52.282 32.6907 52.6767 32.792 53.114 32.792C53.5833 32.792 53.994 32.6853 54.346 32.472C54.698 32.2693 54.97 31.976 55.162 31.592C55.354 31.2187 55.45 30.776 55.45 30.264V29.464C55.1513 29.8907 54.7673 30.2267 54.298 30.472C53.8287 30.7173 53.306 30.84 52.73 30.84ZM53.114 29.176C53.562 29.176 53.962 29.064 54.314 28.84C54.6767 28.616 54.9593 28.312 55.162 27.928C55.3753 27.544 55.482 27.1067 55.482 26.616C55.482 26.1253 55.3753 25.688 55.162 25.304C54.9593 24.92 54.6767 24.616 54.314 24.392C53.962 24.168 53.562 24.056 53.114 24.056C52.666 24.056 52.266 24.168 51.914 24.392C51.562 24.616 51.2793 24.92 51.066 25.304C50.8633 25.688 50.762 26.1253 50.762 26.616C50.762 27.1067 50.8633 27.544 51.066 27.928C51.2793 28.312 51.562 28.616 51.914 28.84C52.266 29.064 52.666 29.176 53.114 29.176ZM61.3053 20.296C61.3053 20.4987 61.2519 20.6853 61.1453 20.856C61.0493 21.0267 60.9159 21.1653 60.7453 21.272C60.5746 21.368 60.3879 21.416 60.1853 21.416C59.9826 21.416 59.7959 21.368 59.6253 21.272C59.4546 21.1653 59.3159 21.0267 59.2093 20.856C59.1133 20.6853 59.0653 20.4987 59.0653 20.296C59.0653 20.0933 59.1133 19.9067 59.2093 19.736C59.3159 19.5653 59.4546 19.432 59.6253 19.336C59.7959 19.2293 59.9826 19.176 60.1853 19.176C60.3879 19.176 60.5746 19.2293 60.7453 19.336C60.9159 19.432 61.0493 19.5653 61.1453 19.736C61.2519 19.9067 61.3053 20.0933 61.3053 20.296ZM59.2733 31V22.632H61.1133V31H59.2733ZM65.9654 31.24C65.4214 31.24 64.9147 31.1493 64.4454 30.968C63.9867 30.7867 63.592 30.5307 63.2614 30.2C62.9414 29.8587 62.712 29.4587 62.5734 29L64.2374 28.568C64.376 28.9307 64.6 29.2133 64.9094 29.416C65.2187 29.6187 65.576 29.72 65.9814 29.72C66.3974 29.72 66.7387 29.624 67.0054 29.432C67.272 29.2293 67.4054 28.9733 67.4054 28.664C67.4054 28.3973 67.2987 28.1733 67.0854 27.992C66.872 27.8107 66.5254 27.6773 66.0454 27.592L65.5174 27.496C64.6214 27.336 63.944 27.048 63.4854 26.632C63.0374 26.216 62.8134 25.6827 62.8134 25.032C62.8134 24.5093 62.9467 24.0507 63.2134 23.656C63.48 23.2613 63.848 22.952 64.3174 22.728C64.7867 22.504 65.3254 22.392 65.9334 22.392C66.456 22.392 66.936 22.4827 67.3734 22.664C67.8107 22.8453 68.1787 23.1013 68.4774 23.432C68.776 23.7627 68.9894 24.152 69.1174 24.6L67.4694 25C67.3414 24.6587 67.1387 24.392 66.8614 24.2C66.5947 23.9973 66.28 23.896 65.9174 23.896C65.544 23.896 65.2347 23.992 64.9894 24.184C64.744 24.3653 64.6214 24.6 64.6214 24.888C64.6214 25.1333 64.728 25.336 64.9414 25.496C65.1654 25.656 65.5387 25.784 66.0614 25.88L66.5894 25.976C67.4427 26.1253 68.0987 26.4187 68.5574 26.856C69.016 27.2933 69.2454 27.8373 69.2454 28.488C69.2454 28.8827 69.1654 29.2507 69.0054 29.592C68.8454 29.9227 68.616 30.216 68.3174 30.472C68.0294 30.7173 67.6827 30.904 67.2774 31.032C66.8827 31.1707 66.4454 31.24 65.9654 31.24ZM74.1199 31.24C73.2772 31.24 72.6159 31 72.1359 30.52C71.6559 30.0293 71.4159 29.3307 71.4159 28.424V24.12H69.9439V22.632H71.4159V19.8H73.2559V22.632H75.6879V24.12H73.2559V28.232C73.2559 28.68 73.3465 29.0267 73.5279 29.272C73.7199 29.5067 73.9972 29.624 74.3599 29.624C74.5519 29.624 74.7599 29.5973 74.9839 29.544C75.2079 29.48 75.4159 29.3947 75.6079 29.288L76.0239 30.68C75.7785 30.8507 75.4905 30.984 75.1599 31.08C74.8399 31.1867 74.4932 31.24 74.1199 31.24ZM81.2081 31.24C80.5895 31.24 80.0188 31.1333 79.4961 30.92C78.9841 30.696 78.5361 30.3867 78.1521 29.992C77.7681 29.5973 77.4695 29.1333 77.2561 28.6C77.0535 28.056 76.9521 27.4587 76.9521 26.808C76.9521 26.1787 77.0535 25.5973 77.2561 25.064C77.4695 24.5307 77.7575 24.0667 78.1201 23.672C78.4935 23.2667 78.9308 22.952 79.4321 22.728C79.9335 22.504 80.4775 22.392 81.0641 22.392C81.6508 22.392 82.1841 22.4987 82.6641 22.712C83.1548 22.9147 83.5761 23.208 83.9281 23.592C84.2908 23.976 84.5681 24.4347 84.7601 24.968C84.9521 25.4907 85.0481 26.072 85.0481 26.712V27.256H78.8561C78.9095 27.7467 79.0375 28.1733 79.2401 28.536C79.4535 28.888 79.7255 29.16 80.0561 29.352C80.3868 29.544 80.7708 29.64 81.2081 29.64C82.0828 29.64 82.7655 29.2507 83.2561 28.472L84.8721 29.096C84.6801 29.5333 84.3975 29.9173 84.0241 30.248C83.6615 30.568 83.2348 30.8133 82.7441 30.984C82.2641 31.1547 81.7521 31.24 81.2081 31.24ZM81.0641 23.88C80.6908 23.88 80.3548 23.9653 80.0561 24.136C79.7681 24.3067 79.5228 24.5467 79.3201 24.856C79.1175 25.1653 78.9788 25.528 78.9041 25.944H83.1281C83.0641 25.528 82.9415 25.1653 82.7601 24.856C82.5788 24.5467 82.3388 24.3067 82.0401 24.136C81.7521 23.9653 81.4268 23.88 81.0641 23.88ZM86.617 31V22.632H88.297L88.377 24.008C88.5903 23.5387 88.8837 23.176 89.257 22.92C89.641 22.6533 90.089 22.52 90.601 22.52C90.761 22.52 90.9157 22.5307 91.065 22.552C91.2143 22.5733 91.3477 22.6107 91.465 22.664L91.257 24.456C91.1397 24.4133 91.017 24.3867 90.889 24.376C90.761 24.3547 90.633 24.344 90.505 24.344C89.865 24.344 89.3637 24.5573 89.001 24.984C88.6383 25.4107 88.457 26.0027 88.457 26.76V31H86.617Z" fill="white"/>
</svg>
