<svg width="170" height="60" viewBox="0 0 170 60" fill="none" xmlns="http://www.w3.org/2000/svg">
<rect width="170" height="60" rx="10" fill="#3685FB"/>
<path d="M51.6378 36.24C50.9551 36.24 50.3258 36.1227 49.7498 35.888C49.1844 35.6427 48.6991 35.3013 48.2938 34.864C47.8991 34.416 47.6271 33.8827 47.4778 33.264L49.7018 32.784C49.8404 33.2213 50.0804 33.5627 50.4218 33.808C50.7738 34.0533 51.1898 34.176 51.6698 34.176C52.0111 34.176 52.3098 34.1173 52.5658 34C52.8324 33.872 53.0351 33.7013 53.1738 33.488C53.3231 33.2747 53.3978 33.0293 53.3978 32.752C53.3978 32.4 53.2644 32.1173 52.9978 31.904C52.7311 31.68 52.2991 31.4987 51.7018 31.36L51.1898 31.248C50.0164 30.992 49.1524 30.5813 48.5978 30.016C48.0431 29.44 47.7658 28.7413 47.7658 27.92C47.7658 27.408 47.8671 26.9387 48.0698 26.512C48.2724 26.0853 48.5498 25.7173 48.9018 25.408C49.2644 25.088 49.6858 24.8427 50.1658 24.672C50.6458 24.4907 51.1631 24.4 51.7178 24.4C52.3471 24.4 52.9338 24.5173 53.4778 24.752C54.0218 24.9867 54.4804 25.3227 54.8538 25.76C55.2271 26.1973 55.4778 26.7147 55.6058 27.312L53.4138 27.792C53.2858 27.3653 53.0618 27.04 52.7418 26.816C52.4324 26.5813 52.0698 26.464 51.6538 26.464C51.3658 26.464 51.1044 26.5227 50.8698 26.64C50.6458 26.7467 50.4644 26.9013 50.3258 27.104C50.1978 27.296 50.1338 27.5147 50.1338 27.76C50.1338 28.1333 50.2778 28.4213 50.5658 28.624C50.8538 28.816 51.2804 28.976 51.8458 29.104L52.3578 29.216C53.5204 29.472 54.3791 29.8773 54.9338 30.432C55.4991 30.9867 55.7818 31.696 55.7818 32.56C55.7818 33.104 55.6751 33.6 55.4618 34.048C55.2591 34.496 54.9711 34.8853 54.5978 35.216C54.2244 35.5467 53.7871 35.8027 53.2858 35.984C52.7844 36.1547 52.2351 36.24 51.6378 36.24ZM60.7319 36.24C60.1452 36.24 59.6385 36.128 59.2119 35.904C58.7959 35.6693 58.4705 35.3333 58.2359 34.896C58.0119 34.4587 57.8999 33.9253 57.8999 33.296V29.36H56.4599V27.552H57.8999V24.672H60.1399V27.552H62.4439V29.36H60.1399V33.024C60.1399 33.4293 60.2252 33.744 60.3959 33.968C60.5665 34.1813 60.8279 34.288 61.1799 34.288C61.3612 34.288 61.5532 34.2613 61.7559 34.208C61.9692 34.1547 62.1719 34.0853 62.3639 34L62.7639 35.68C62.4865 35.8507 62.1772 35.984 61.8359 36.08C61.4945 36.1867 61.1265 36.24 60.7319 36.24ZM66.629 36.24C66.1917 36.24 65.7917 36.176 65.429 36.048C65.0663 35.92 64.7463 35.7387 64.469 35.504C64.2023 35.2587 63.9943 34.976 63.845 34.656C63.6957 34.336 63.621 33.984 63.621 33.6C63.621 33.0667 63.765 32.5973 64.053 32.192C64.341 31.7867 64.7463 31.472 65.269 31.248C65.7917 31.0133 66.3997 30.896 67.093 30.896C67.445 30.896 67.7757 30.928 68.085 30.992C68.405 31.056 68.7143 31.1467 69.013 31.264V30.768C69.013 30.288 68.8743 29.8987 68.597 29.6C68.3303 29.3013 67.9623 29.152 67.493 29.152C67.141 29.152 66.821 29.2427 66.533 29.424C66.245 29.5947 66.0423 29.84 65.925 30.16L63.925 29.76C64.0423 29.2693 64.2717 28.8427 64.613 28.48C64.965 28.1067 65.3917 27.8187 65.893 27.616C66.3943 27.4133 66.9383 27.312 67.525 27.312C68.069 27.312 68.565 27.3973 69.013 27.568C69.461 27.7387 69.845 27.984 70.165 28.304C70.4957 28.624 70.7463 29.0027 70.917 29.44C71.0983 29.8667 71.189 30.3467 71.189 30.88V36H69.189L69.125 35.008C68.901 35.3707 68.5757 35.6693 68.149 35.904C67.7223 36.128 67.2157 36.24 66.629 36.24ZM65.829 33.488C65.829 33.7867 65.9517 34.032 66.197 34.224C66.4423 34.416 66.7677 34.512 67.173 34.512C67.525 34.512 67.8397 34.4373 68.117 34.288C68.3943 34.1387 68.613 33.936 68.773 33.68C68.933 33.4133 69.013 33.12 69.013 32.8V32.72C68.7783 32.624 68.5277 32.5493 68.261 32.496C67.9943 32.432 67.7277 32.4 67.461 32.4C66.9597 32.4 66.5597 32.5013 66.261 32.704C65.973 32.896 65.829 33.1573 65.829 33.488ZM72.9741 36V27.552H75.0381L75.1181 28.832C75.3315 28.384 75.6195 28.0427 75.9821 27.808C76.3448 27.5627 76.7715 27.44 77.2621 27.44C77.4115 27.44 77.5608 27.456 77.7101 27.488C77.8595 27.5093 77.9928 27.5413 78.1101 27.584L77.8701 29.792C77.7528 29.7493 77.6301 29.7227 77.5021 29.712C77.3848 29.6907 77.2621 29.68 77.1341 29.68C76.5155 29.68 76.0408 29.872 75.7101 30.256C75.3795 30.6293 75.2141 31.1627 75.2141 31.856V36H72.9741ZM83.2163 36.24C82.6296 36.24 82.1229 36.128 81.6963 35.904C81.2803 35.6693 80.9549 35.3333 80.7203 34.896C80.4963 34.4587 80.3843 33.9253 80.3843 33.296V29.36H78.9443V27.552H80.3843V24.672H82.6243V27.552H84.9283V29.36H82.6243V33.024C82.6243 33.4293 82.7096 33.744 82.8802 33.968C83.0509 34.1813 83.3123 34.288 83.6643 34.288C83.8456 34.288 84.0376 34.2613 84.2403 34.208C84.4536 34.1547 84.6563 34.0853 84.8483 34L85.2483 35.68C84.9709 35.8507 84.6616 35.984 84.3203 36.08C83.9789 36.1867 83.6109 36.24 83.2163 36.24ZM90.0556 36V24.64H92.1196L97.3836 32.16V24.64H99.6876V36H97.6236L92.3596 28.48V36H90.0556ZM105.694 36.24C105.065 36.24 104.484 36.128 103.95 35.904C103.417 35.68 102.953 35.3707 102.558 34.976C102.164 34.5707 101.854 34.096 101.63 33.552C101.417 33.008 101.31 32.416 101.31 31.776C101.31 31.136 101.422 30.5493 101.646 30.016C101.87 29.472 102.18 28.9973 102.574 28.592C102.98 28.1867 103.449 27.872 103.982 27.648C104.526 27.424 105.118 27.312 105.758 27.312C106.388 27.312 106.969 27.424 107.502 27.648C108.036 27.872 108.5 28.1867 108.894 28.592C109.289 28.9867 109.593 29.456 109.806 30C110.03 30.5333 110.142 31.12 110.142 31.76C110.142 32.4 110.03 32.992 109.806 33.536C109.582 34.08 109.268 34.5547 108.862 34.96C108.468 35.3653 107.998 35.68 107.454 35.904C106.921 36.128 106.334 36.24 105.694 36.24ZM105.726 34.224C106.132 34.224 106.494 34.1173 106.814 33.904C107.134 33.6907 107.385 33.4027 107.566 33.04C107.758 32.6667 107.854 32.2453 107.854 31.776C107.854 31.3067 107.758 30.8907 107.566 30.528C107.385 30.1547 107.134 29.8613 106.814 29.648C106.494 29.4347 106.132 29.328 105.726 29.328C105.321 29.328 104.958 29.4347 104.638 29.648C104.318 29.8613 104.062 30.1547 103.87 30.528C103.689 30.8907 103.598 31.3067 103.598 31.776C103.598 32.2453 103.689 32.6667 103.87 33.04C104.062 33.4027 104.318 33.6907 104.638 33.904C104.958 34.1173 105.321 34.224 105.726 34.224ZM113.445 36L110.645 27.552H112.949L114.533 33.264L116.245 27.552H118.181L119.893 33.28L121.509 27.552H123.733L120.933 36H118.869L117.173 30.288L115.477 36H113.445Z" fill="white"/>
</svg>
